SplineFontDB: 3.0
FontName: TengwarFormalUnicode-Regular
FullName: Tengwar Formal Unicode
FamilyName: Tengwar Formal Unicode
Weight: Medium
Copyright: Copyright (c) September 2009, Michal Nowakowski (http://tengwarformal.limes.com.pl),\nwith Reserved Font Names "Tengwar Formal" and "Tengwar Formal A".\n\nTengwar Formal Unicode copyright (c) 2010, Johan Winge and J. "Mach" Wust (http://freetengwar.sourceforge.net/)\n\nThis Font Software is licensed under the SIL Open Font License, Version 1.1.\nThis license is provided in a separate file, LICENSE, supplied with the fonts,\nand is also available with a FAQ at: http://scripts.sil.org/OFL
UComments: "2010-1-26: Created." 
Version: 1.0
ItalicAngle: 0
UnderlinePosition: -204.8
UnderlineWidth: 102.4
Ascent: 1639
Descent: 409
LayerCount: 2
Layer: 0 0 "Back"  1
Layer: 1 0 "Fore"  0
NeedsXUIDChange: 1
XUID: [1021 269 264596955 9794134]
FSType: 0
OS2Version: 0
OS2_WeightWidthSlopeOnly: 0
OS2_UseTypoMetrics: 1
CreationTime: 1264509410
ModificationTime: 1264514895
OS2TypoAscent: 0
OS2TypoAOffset: 1
OS2TypoDescent: 0
OS2TypoDOffset: 1
OS2TypoLinegap: 184
OS2WinAscent: 0
OS2WinAOffset: 1
OS2WinDescent: 0
OS2WinDOffset: 1
HheadAscent: 0
HheadAOffset: 1
HheadDescent: 0
HheadDOffset: 1
DEI: 91125
LangName: 1033 "" "" "" "FontTengwarFormalUnicode10" "" "" "" "" "" "Micha+AUIA Nowakowski" "" "" "http://tengwarformal.limes.com.pl" "" "http://scripts.sil.org/OFL" 
Encoding: UnicodeBmp
UnicodeInterp: none
NameList: Adobe Glyph List
DisplaySize: -48
AntiAlias: 1
FitToEm: 1
WinInfo: 57344 16 10
BeginChars: 65780 277

StartChar: comma
Encoding: 44 44 0
Width: 421
VWidth: 1000
Flags: HW
LayerCount: 2
Fore
SplineSet
45 78 m 0
 45 104.667 58 126.667 84 144 c 0
 98 153.333 112.333 158 127 158 c 0
 153.667 158 175.667 146 193 122 c 0
 202.333 108.424 207 86.0907 207 55 c 0
 207 21 197 -23.3333 177 -78 c 0
 161 -122.667 146.333 -145 133 -145 c 0
 125 -145 120.333 -117.333 119 -62 c 0
 118.333 -18 115 4 109 4 c 0
 88.3333 4 70.6667 17 56 43 c 0
 48.6667 55.6667 45 67.3333 45 78 c 0
EndSplineSet
Validated: 1
EndChar

StartChar: currency
Encoding: 164 164 1
Width: 768
VWidth: 1000
Flags: HW
LayerCount: 2
Fore
SplineSet
229 555 m 0
 229 502.333 249.667 459.667 291 427 c 0
 320.333 404.333 353.667 393 391 393 c 0
 443.667 393 486.333 413.667 519 455 c 0
 541.667 484.333 553 517.667 553 555 c 0
 553 607 532.333 649 491 681 c 0
 461.667 703.667 428.333 715 391 715 c 0
 338.333 715 295.667 694.333 263 653 c 0
 240.333 624.333 229 591.667 229 555 c 0
518 711 m 1
 561 754 l 1
 590 725 l 1
 547 682 l 1
 577 646 592 603.667 592 555 c 0
 592 505 577 462 547 426 c 1
 590 385 l 1
 561 354 l 1
 518 397 l 1
 478.667 367 436.333 352 391 352 c 128
 345.667 352 303.333 367 264 397 c 1
 221 354 l 1
 193 385 l 1
 236 426 l 1
 205.333 462.667 190 505.667 190 555 c 0
 190 603 205.333 645.333 236 682 c 1
 193 725 l 1
 221 754 l 1
 264 711 l 1
 303.333 741 345.667 756 391 756 c 128
 436.333 756 478.667 741 518 711 c 1
EndSplineSet
Validated: 1
EndChar

StartChar: exclam
Encoding: 33 33 2
Width: 591
VWidth: 1000
Flags: HW
LayerCount: 2
Fore
SplineSet
322 1118 m 1
 379 1118 l 1
 377.601 1030.52 374.267 965.189 369 922 c 1
 317 326 l 1
 256 293 l 1
 218 704.333 199 940.333 199 1001 c 2
 199 1053 l 1
 322 1118 l 1
283 156 m 0
 319 156 346 141 364 111 c 0
 372.667 96.3333 377 80.3333 377 63 c 0
 377 27 362 0 332 -18 c 0
 317.333 -26.6667 301 -31 283 -31 c 0
 247.667 -31 221 -16 203 14 c 0
 194.333 28.6667 190 45 190 63 c 0
 190 98.3333 204.667 125 234 143 c 0
 249.333 151.667 265.667 156 283 156 c 0
EndSplineSet
Validated: 1
EndChar

StartChar: middot
Encoding: 183 183 3
Width: 421
VWidth: 1000
Flags: HW
LayerCount: 2
Fore
SplineSet
131 348 m 0
 131 354.22 145.667 376.887 175 416 c 1
 186.333 429.333 194.333 436.333 199 437 c 0
 207 437 231.333 420.333 272 387 c 2
 277 383 l 2
 289 373.667 295.667 365 297 357 c 1
 297 343.667 283.333 321.667 256 291 c 0
 243.333 276.333 235.333 269 232 269 c 0
 226.667 269 205.333 283.333 168 312 c 0
 146.133 328.4 134.467 338.066 133 341 c 0
 131.667 343 131 345.333 131 348 c 0
EndSplineSet
Validated: 1
EndChar

StartChar: paragraph
Encoding: 182 182 4
Width: 671
VWidth: 1000
Flags: HW
LayerCount: 2
Fore
SplineSet
66 725 m 0
 66 830.333 101.333 907.333 172 956 c 0
 216 986 270 1001 334 1001 c 2
 627 1001 l 1
 627 958 l 1
 547 958 l 1
 547 -326 l 1
 506 -326 l 1
 506 958 l 1
 393 958 l 1
 393 -326 l 1
 350 -326 l 1
 350 442 l 1
 199.333 442 108.333 503.333 77 626 c 0
 69.6667 655.333 66 688.333 66 725 c 0
EndSplineSet
Validated: 1
EndChar

StartChar: parenleft
Encoding: 40 40 5
Width: 679
VWidth: 1000
Flags: HW
LayerCount: 2
Fore
SplineSet
291 489 m 0
 291 281.667 320.667 108.333 380 -31 c 0
 415.333 -114.333 470.333 -206.333 545 -307 c 1
 506 -346 l 1
 426.667 -269.333 364.667 -196 320 -126 c 0
 208 48 152 251.667 152 485 c 0
 152 793 268.667 1056.67 502 1276 c 0
 512 1286 l 1
 545 1241 l 1
 442.333 1117.67 372.333 990 335 858 c 0
 305.667 752.667 291 629.667 291 489 c 0
EndSplineSet
Validated: 1
EndChar

StartChar: parenright
Encoding: 41 41 6
Width: 679
VWidth: 1000
Flags: HW
LayerCount: 2
Fore
SplineSet
291 451 m 0
 291 658.333 261.333 831.667 202 971 c 0
 166.667 1054.33 111.667 1146.33 37 1247 c 1
 76 1286 l 1
 155.333 1209.33 217.333 1136 262 1066 c 0
 374 892 430 688.333 430 455 c 0
 430 147 313.333 -116.667 80 -336 c 0
 70 -346 l 1
 37 -301 l 1
 139.667 -177.667 209.667 -50 247 82 c 0
 276.333 187.333 291 310.333 291 451 c 0
EndSplineSet
Validated: 1
EndChar

StartChar: period
Encoding: 46 46 7
Width: 399
VWidth: 1000
Flags: HW
LayerCount: 2
Fore
SplineSet
90 53 m 0
 90 59.2201 104.667 81.8867 134 121 c 1
 145.333 134.333 153.333 141.333 158 142 c 0
 166 142 190.333 125.333 231 92 c 2
 236 88 l 2
 248 78.6667 254.667 70 256 62 c 1
 256 48.6667 242.333 26.6667 215 -4 c 0
 202.333 -18.6667 194.333 -26 191 -26 c 0
 185.667 -26 164.333 -11.6667 127 17 c 0
 105.133 33.3997 93.4668 43.0664 92 46 c 0
 90.6667 48 90 50.3333 90 53 c 0
EndSplineSet
Validated: 1
EndChar

StartChar: question
Encoding: 63 63 8
Width: 798
VWidth: 1000
Flags: HW
LayerCount: 2
Fore
SplineSet
512 864 m 0
 512 908 490.667 948.333 448 985 c 0
 412.667 1015 377.333 1030 342 1030 c 0
 296 1030 264.333 1025.67 247 1017 c 0
 207.419 996.267 170.085 950.267 135 879 c 1
 94 883 l 1
 152 1083 l 1
 219.5 1123 302.5 1143 401 1143 c 0
 464.333 1143 523.667 1119 579 1071 c 1
 632.333 1018.33 660.667 965 664 911 c 1
 664 824.212 644.667 756.212 606 707 c 0
 578.667 672.333 532.333 626.333 467 569 c 0
 411 519 374.333 480 357 452 c 0
 340.333 424 332 395.667 332 367 c 0
 332 346.333 344.333 321.667 369 293 c 1
 334 266 l 1
 288 300 263.333 339.667 260 385 c 0
 260 397 l 0
 260 443.667 284.667 496.333 334 555 c 1
 430 665 l 1
 484.667 733 512 799.333 512 864 c 0
340 160 m 0
 374 160 400 145 418 115 c 0
 427.333 100.333 432 84 432 66 c 0
 432 30.6667 417.333 3.66667 388 -15 c 0
 373.333 -24.3333 357.333 -29 340 -29 c 0
 306 -29 279.667 -14.3333 261 15 c 0
 251 31 246 48 246 66 c 0
 246 99.3333 260.333 125.667 289 145 c 0
 305 155 322 160 340 160 c 0
EndSplineSet
Validated: 1
EndChar

StartChar: quoteleft
Encoding: 8216 8216 9
Width: 301
VWidth: 1000
Flags: HW
LayerCount: 2
Fore
SplineSet
198 1132 m 0
 181.333 1111.33 157.333 1102.67 126 1106 c 0
 109.333 1108 95.3333 1113.67 84 1123 c 0
 64 1140.33 55 1163.67 57 1193 c 0
 58.3333 1209 69 1229 89 1253 c 0
 110.333 1279 146.333 1306.67 197 1336 c 0
 237.667 1360 263.333 1368 274 1360 c 0
 280 1354.67 265.667 1330.33 231 1287 c 0
 203.667 1252.33 192.333 1233.33 197 1230 c 0
 213 1216.67 218 1195.33 212 1166 c 0
 210 1151.33 205.333 1140 198 1132 c 0
EndSplineSet
Validated: 33
EndChar

StartChar: quoteright
Encoding: 8217 8217 10
Width: 301
VWidth: 1000
Flags: HW
LayerCount: 2
Fore
SplineSet
115.402 1249.34 m 0
 132.069 1270.01 156.069 1278.67 187.402 1275.34 c 0
 204.069 1273.34 218.069 1267.67 229.402 1258.34 c 0
 249.402 1241.01 258.402 1217.67 256.402 1188.34 c 0
 255.069 1172.34 244.402 1152.34 224.402 1128.34 c 0
 203.069 1102.34 167.069 1074.67 116.402 1045.34 c 0
 75.7355 1021.34 50.069 1013.34 39.4023 1021.34 c 0
 33.4023 1026.67 47.7356 1051.01 82.4023 1094.34 c 0
 109.735 1129.01 121.069 1148.01 116.402 1151.34 c 0
 100.402 1164.67 95.4022 1186.01 101.402 1215.34 c 0
 103.402 1230.01 108.069 1241.34 115.402 1249.34 c 0
EndSplineSet
Validated: 33
EndChar

StartChar: semicolon
Encoding: 59 59 11
Width: 587
VWidth: 1000
Flags: HW
LayerCount: 2
Fore
SplineSet
199 614 m 0
 199 620.22 213.667 642.887 243 682 c 1
 254.333 695.333 262.333 702.333 267 703 c 0
 275 703 299.333 686.333 340 653 c 2
 345 649 l 2
 357 639.667 363.667 631 365 623 c 1
 365 609.667 351.333 587.667 324 557 c 0
 311.333 542.333 303.333 535 300 535 c 0
 294.667 535 273.333 549.333 236 578 c 0
 214.133 594.4 202.467 604.066 201 607 c 0
 199.667 609 199 611.333 199 614 c 0
192 78 m 0
 192 104.667 205 126.667 231 144 c 0
 245 153.333 259.333 158 274 158 c 0
 300.667 158 322.667 146 340 122 c 0
 349.333 108.424 354 86.0905 354 55 c 0
 354 21 344 -23.3333 324 -78 c 0
 308 -122.667 293.333 -145 280 -145 c 0
 272 -145 267.333 -117.333 266 -62 c 0
 265.333 -18 262 4 256 4 c 0
 235.333 4 217.667 17 203 43 c 0
 195.667 55.6667 192 67.3333 192 78 c 0
EndSplineSet
Validated: 1
EndChar

StartChar: uni204A
Encoding: 8266 8266 13
Width: 806
VWidth: 1000
Flags: HW
LayerCount: 2
Fore
SplineSet
305 -256 m 1
 245 -260.109 215 -282.776 215 -324 c 0
 215 -390.667 256 -424 338 -424 c 0
 399.333 -424 451.333 -405.667 494 -369 c 0
 507.333 -357.667 522.333 -342.667 539 -324 c 0
 585 -270.667 606 -177.667 602 -45 c 0
 601.333 -15.6667 600 151.667 598 457 c 0
 597.333 501.667 596.667 526.667 596 532 c 0
 592 547.333 564 553 512 549 c 0
 468.667 545.667 418 548.333 360 557 c 0
 271.085 570.996 165.419 568.329 43 549 c 1
 120.333 646.333 231 684.667 375 664 c 1
 428.551 653.29 507.217 652.957 611 663 c 0
 669.667 668.333 702 667.333 708 660 c 0
 709.333 658 709.667 655.667 709 653 c 0
 704.333 612.333 702.333 480 703 256 c 0
 703 110 700.667 10.3333 696 -43 c 1
 674.667 -219.667 599 -351.333 469 -438 c 1
 383.667 -497.333 315.333 -518.667 264 -502 c 1
 174 -469.541 129 -408.541 129 -319 c 1
 133 -249 152 -203.333 186 -182 c 0
 197.333 -175.333 209.667 -172 223 -172 c 0
 240.333 -172 260 -188 282 -220 c 0
 291 -234 291 -234 305 -256 c 1
EndSplineSet
Validated: 33
EndChar

StartChar: tinco
Encoding: 57344 57344 14
Width: 806
VWidth: 1000
Flags: HW
LayerCount: 2
Fore
SplineSet
190 473 m 1
 304.667 587.667 408.667 645 502 645 c 0
 611.333 645 684.333 596.333 721 499 c 0
 737 457 745 408 745 352 c 0
 745 256.667 720 171.333 670 96 c 0
 614.684 12.6667 547.017 -29 467 -29 c 0
 433.667 -29 400 -14.6667 366 14 c 0
 348.667 29.3333 340 41.6667 340 51 c 0
 340 59.6667 354.667 74.6667 384 96 c 0
 403.333 110 417.333 117 426 117 c 0
 430 117 440.333 109.333 457 94 c 0
 484.333 68 511.667 55 539 55 c 0
 601 55 638.667 109.667 652 219 c 0
 655.333 243.667 657 269.667 657 297 c 0
 657 381.667 629 448 573 496 c 0
 531.667 531.333 482.667 549 426 549 c 0
 350.667 549 286.333 520.333 233 463 c 0
 207.667 435.667 195 415 195 401 c 1
 189 335.667 188 220 192 54 c 0
 201.541 -331.473 202.541 -549.473 195 -600 c 0
 188.333 -642.667 144.333 -686.333 63 -731 c 1
 57 -733 55 -731 57 -725 c 1
 78.3333 -681.667 91 -640.667 95 -602 c 0
 97.6667 -580 100 -507.667 102 -385 c 0
 106 -169.667 104.667 89 98 391 c 0
 96 479 94 524.667 92 528 c 0
 82.6667 544.667 68 557 48 565 c 0
 39.3333 569 35 574 35 580 c 0
 35 592.667 44.6667 610.333 64 633 c 0
 84 656.333 103 668 121 668 c 0
 168.333 668 192 625.667 192 541 c 1
 190 473 l 1
EndSplineSet
Validated: 33
EndChar

StartChar: parma
Encoding: 57345 57345 15
Width: 806
VWidth: 1000
Flags: HW
LayerCount: 2
Fore
SplineSet
741 352 m 0
 741 283.407 720.667 199.407 680 100 c 1
 716.667 103.333 753.667 109.667 791 119 c 0
 809 123 818 121.333 818 114 c 0
 818 108 811.667 97.3333 799 82 c 1
 745.667 24 682 -6.66667 608 -10 c 0
 592 -10 l 2
 402 3 l 1
 262.667 7.66667 193 -6.33333 193 -39 c 1
 199.667 -319.667 200.667 -502.333 196 -587 c 1
 196 -634.306 151.667 -682.306 63 -731 c 1
 57 -733 55 -731 57 -725 c 1
 78.3333 -681.667 91 -640.667 95 -602 c 0
 97.6667 -580 100 -507.667 102 -385 c 0
 106 -154.333 105 96.6667 99 368 c 0
 96.3333 470 93.3333 523.333 90 528 c 0
 80 542 65.6667 554 47 564 c 0
 39 568 35 573.333 35 580 c 0
 35 592.667 44.6667 610.333 64 633 c 0
 84 656.333 103 668 121 668 c 0
 168.333 668 192 625.667 192 541 c 1
 190 473 l 1
 304.667 587.667 408 645 500 645 c 0
 614 645 688 592.333 722 487 c 0
 734.667 448.333 741 403.333 741 352 c 0
188 84 m 1
 214.667 96.6667 361 102 627 100 c 1
 645.667 190.667 655 256.333 655 297 c 0
 655 388.333 624.667 457 564 503 c 0
 524.667 533.667 478 549 424 549 c 0
 346.667 549 282 519.667 230 461 c 0
 206.667 434.333 195 414.333 195 401 c 1
 189 336.333 187.667 264 191 184 c 0
 192.333 148.667 191.333 115.333 188 84 c 1
EndSplineSet
Validated: 33
EndChar

StartChar: calma
Encoding: 57346 57346 16
Width: 806
VWidth: 1000
Flags: HW
LayerCount: 2
Fore
SplineSet
625 274 m 1
 582.333 174 543.667 103.667 509 63 c 0
 457 1.66667 393.667 -29 319 -29 c 0
 243 -29 177.333 0.333334 122 59 c 0
 65.3333 119.667 37 193.667 37 281 c 0
 37 384.333 77.3333 476.667 158 558 c 0
 192 592 230.667 620.333 274 643 c 0
 288.667 651 303 655 317 655 c 0
 339 655 365 643.333 395 620 c 0
 415.667 604 426 590 426 578 c 0
 426 560.667 408.333 538 373 510 c 0
 360.333 500.667 352.667 496 350 496 c 0
 346 496 334.333 504.333 315 521 c 0
 288.333 545 264 557 242 557 c 0
 200 557 167.333 525.333 144 462 c 0
 128.667 420.667 121 376 121 328 c 0
 121 258.667 143.667 200 189 152 c 128
 234.333 104 293.667 80 367 80 c 0
 435.667 80 498.667 131.333 556 234 c 0
 588.667 292.667 611.667 352 625 412 c 1
 618.675 509.676 628.675 571.676 655 598 c 1
 677 622 701.333 639.333 728 650 c 0
 738.667 654.667 748 657 756 657 c 0
 774 657 789.333 643.333 802 616 c 0
 808 602.667 811 590.667 811 580 c 0
 811 555.333 805 543 793 543 c 0
 759 543 737.667 530.333 729 505 c 0
 724.333 491.667 721.667 465.333 721 426 c 1
 715.667 407.333 715 347 719 245 c 0
 735.02 -199.994 733.353 -468.327 714 -560 c 0
 702 -615.333 682.333 -650.667 655 -666 c 1
 635.667 -680.667 613.333 -693 588 -703 c 0
 572.667 -708.333 563.667 -709 561 -705 c 0
 556.333 -699 561 -686 575 -666 c 1
 609 -624.667 627.667 -555.667 631 -459 c 1
 635 -292 l 1
 635 -287 l 2
 636.333 -261.667 635 -198.667 631 -98 c 0
 627 4.66666 625 128.667 625 274 c 1
EndSplineSet
Validated: 33
EndChar

StartChar: quesse
Encoding: 57347 57347 17
Width: 806
VWidth: 1000
Flags: HW
LayerCount: 2
Fore
SplineSet
618 524 m 1
 540.667 512.667 399.667 511.333 195 520 c 1
 146.333 480.667 121 422 119 344 c 1
 119 268 143.333 204.333 192 153 c 0
 238 104.333 296.333 80 367 80 c 0
 431 80 488.667 118.667 540 196 c 0
 595.333 279.39 623 369.057 623 465 c 0
 623 484.333 621.333 504 618 524 c 1
625 254 m 1
 585.667 174.667 555.667 120.667 535 92 c 0
 476.333 10 406 -31 324 -31 c 0
 245.333 -31 178 -0.666666 122 60 c 0
 65.3333 122 37 197.667 37 287 c 0
 37 379 66 451.333 124 504 c 0
 130 510 136.333 515.333 143 520 c 1
 103.667 520 66.3333 512 31 496 c 0
 -4.12067 480.948 -6.12067 497.281 25 545 c 1
 63.6667 581 100.333 604 135 614 c 0
 164.333 622.667 202 627 248 627 c 1
 495 621 l 1
 498 621 l 2
 568.667 621 640.667 629 714 645 c 0
 733.333 649 748 651 758 651 c 0
 784 651 796.667 644 796 630 c 0
 796 621.333 788.667 610.667 774 598 c 0
 748.667 576.667 733.333 557.667 728 541 c 0
 720.667 521 718 469 720 385 c 0
 722 321.667 723 289 723 287 c 0
 735.827 -238.917 731.161 -529.25 709 -584 c 0
 693 -623.333 676.667 -649.667 660 -663 c 0
 649.333 -671.667 628.667 -683.333 598 -698 c 0
 570.667 -712 557.667 -711.667 559 -697 c 0
 559.667 -689 565 -678.667 575 -666 c 0
 609 -623.333 627.667 -552 631 -452 c 1
 635 -292 l 1
 635 -287 l 2
 637 -252.333 636.333 -200 633 -130 c 0
 627.667 -36.6667 625 91.3333 625 254 c 1
EndSplineSet
Validated: 33
EndChar

StartChar: ando
Encoding: 57348 57348 18
Width: 1232
VWidth: 1000
Flags: HW
LayerCount: 2
Fore
SplineSet
195 481 m 1
 310.333 590.333 409.333 645 492 645 c 0
 552.667 645 602.333 625 641 585 c 0
 655.667 569 674 544.667 696 512 c 1
 733.333 550.667 780.667 584 838 612 c 0
 884.667 634 926.333 645 963 645 c 0
 1062.33 645 1130.33 601 1167 513 c 0
 1185 470.333 1194 419.333 1194 360 c 0
 1194 282 1175.33 205 1138 129 c 0
 1086.21 22.3333 1019.55 -31 938 -31 c 0
 890.667 -31 851 -11.6667 819 27 c 0
 809.667 38.3333 805 46.3333 805 51 c 0
 805 57.6667 818.333 71.3333 845 92 c 0
 866.333 108.667 881.667 117 891 117 c 0
 895 117 905 109 921 93 c 0
 946.333 67.6667 971 55 995 55 c 0
 1039 55 1071.33 87.3333 1092 152 c 0
 1104 190 1110 233 1110 281 c 0
 1110 386.333 1080 462.333 1020 509 c 0
 984.667 537 941.667 551 891 551 c 0
 833 551 785.333 534.333 748 501 c 0
 737.333 491 725.667 478.333 713 463 c 1
 717 426.333 719 392.667 719 362 c 0
 719 276.667 699.667 195.667 661 119 c 0
 609.551 19 542.884 -31 461 -31 c 0
 412.333 -31 372 -8.33333 340 37 c 0
 334.667 45 332 49.6667 332 51 c 0
 332 57.6667 345.333 71.3333 372 92 c 0
 393.333 108.667 408.667 117 418 117 c 0
 422 117 431 109.333 445 94 c 0
 469 68 494 55 520 55 c 0
 560 55 591.667 81 615 133 c 0
 631 170.333 639 214 639 264 c 0
 639 362 613 437.333 561 490 c 0
 521.667 529.333 472 549 412 549 c 0
 352.667 549 294 521 236 465 c 0
 211.333 441 198.333 424.667 197 416 c 0
 191 345.333 189.667 217.333 193 32 c 0
 195.667 -102.667 197.667 -209.667 199 -289 c 0
 203 -451.667 201.667 -555.333 195 -600 c 0
 188.333 -642.667 144.333 -686.333 63 -731 c 1
 57 -733 55 -731 57 -725 c 1
 78.3333 -681.667 91 -640.667 95 -602 c 0
 97.6667 -580 100 -507.667 102 -385 c 0
 106 -169.667 104.667 89 98 391 c 0
 96 479 94 524.667 92 528 c 0
 82.6667 544.667 68 557 48 565 c 0
 39.3333 569 35 574 35 580 c 0
 35 592.667 44.6667 610.333 64 633 c 0
 84 656.333 103 668 121 668 c 0
 169.667 668 194.667 626.333 196 543 c 0
 195.333 571.667 195 551 195 481 c 1
EndSplineSet
Validated: 33
EndChar

StartChar: umbar
Encoding: 57349 57349 19
Width: 1232
VWidth: 1000
Flags: HW
LayerCount: 2
Fore
SplineSet
190 471 m 1
 299.333 587 399 645 489 645 c 0
 552.333 645 603.333 624 642 582 c 0
 656.667 566 674 542.667 694 512 c 1
 731.333 550.667 778.667 584 836 612 c 0
 882.667 634 925 645 963 645 c 0
 1061.67 645 1129.67 599.667 1167 509 c 0
 1185 464.333 1194 412 1194 352 c 0
 1194 290.319 1167.33 204.985 1114 96 c 1
 1141.33 99.3333 1179 105 1227 113 c 0
 1253 117 1266 114.333 1266 105 c 0
 1266 100.333 1262.33 93.3333 1255 84 c 0
 1215 36.6667 1147.33 3.66667 1052 -15 c 0
 1012.67 -23 972.667 -27 932 -27 c 0
 901.333 -27 814.333 -21.6667 671 -11 c 0
 592.333 -5 525.667 -2 471 -2 c 0
 284.333 -2 191.667 -17.6667 193 -49 c 0
 199 -167.667 201.333 -306.667 200 -466 c 0
 200 -532.667 198.333 -577.333 195 -600 c 0
 188.333 -642 143.667 -685.667 61 -731 c 0
 57 -733 55 -731 55 -725 c 1
 77 -682.333 90 -643 94 -607 c 0
 96.6667 -580.333 98.6667 -506.333 100 -385 c 0
 104 -96.3333 102.333 165 95 399 c 0
 92.3333 481 89.3333 524 86 528 c 0
 77.3333 537.333 63.6667 548.667 45 562 c 0
 38.3333 566.667 35 572.667 35 580 c 0
 35 592.667 44.6667 610.333 64 633 c 0
 84 656.333 103 668 121 668 c 0
 168.333 668 192 625 192 539 c 1
 190 471 l 1
719 352 m 0
 719 288.727 698.333 200.727 657 88 c 1
 805 75.3333 945 76.6667 1077 92 c 1
 1097.67 170 1108 237 1108 293 c 0
 1108 383 1082.67 451.667 1032 499 c 0
 994.667 533.667 947.667 551 891 551 c 128
 834.333 551 788.333 536 753 506 c 0
 741 495.333 727 481 711 463 c 1
 716.333 425 719 388 719 352 c 0
190 70 m 1
 293.333 104.667 431.333 114.667 604 100 c 1
 626 155.333 637 214 637 276 c 0
 637 370.667 610.333 443.333 557 494 c 0
 517.667 530.667 468.667 549 410 549 c 0
 352 549 297.333 524.333 246 475 c 0
 216 447 199 422.333 195 401 c 1
 189 335.667 188 259.333 192 172 c 0
 194 133.333 193.333 99.3333 190 70 c 1
EndSplineSet
Validated: 33
EndChar

StartChar: anga
Encoding: 57350 57350 20
Width: 1232
VWidth: 1000
Flags: HW
LayerCount: 2
Fore
SplineSet
508 190 m 1
 501.542 210.047 498.209 233.38 498 260 c 0
 498 322.667 509.333 380.667 532 434 c 0
 544.667 464.667 571.333 503.667 612 551 c 0
 671.333 620.333 722 655 764 655 c 0
 788.667 655 815 643 843 619 c 0
 862.333 603 872 588.333 872 575 c 0
 872 561 856.333 540.667 825 514 c 0
 811 502 801.667 496 797 496 c 128
 792.333 496 780 505 760 523 c 0
 734 547 712 559 694 559 c 0
 662 559 634.667 531.333 612 476 c 0
 593.333 430.667 584 384.667 584 338 c 0
 584 258 608 193.333 656 144 c 0
 697.333 101.333 749.667 80 813 80 c 0
 877 80 936.667 125 992 215 c 0
 1025.33 269.667 1049.67 327.667 1065 389 c 1
 1061 498.333 1074 568 1104 598 c 1
 1120.67 618 1142 634.333 1168 647 c 0
 1182 653.667 1194 657 1204 657 c 0
 1222.67 657 1238.33 643.333 1251 616 c 0
 1257 602.667 1260 590.667 1260 580 c 0
 1260 555.333 1253.67 543 1241 543 c 0
 1201.67 543 1177.33 527 1168 495 c 0
 1163.33 479 1161 456.667 1161 428 c 0
 1158.33 322 1159 105 1163 -223 c 1
 1167 -389.667 1160.67 -505 1144 -569 c 0
 1131.33 -618.333 1112.33 -650.667 1087 -666 c 1
 1067 -681.333 1044.33 -693.667 1019 -703 c 0
 1005 -708.333 996.333 -709 993 -705 c 0
 987.667 -699 992.667 -686 1008 -666 c 1
 1042 -624 1060.33 -555.333 1063 -460 c 1
 1063.26 -400.998 1064.59 -343.331 1067 -287 c 1
 1069.67 -251.667 1069.67 -187.333 1067 -94 c 0
 1064.33 0.666664 1063 116 1063 252 c 1
 1020.33 166 985 106.333 957 73 c 0
 904.333 9 840.667 -23 766 -23 c 0
 688 -23 626.333 5.33333 581 62 c 0
 567 79.3333 553 101 539 127 c 1
 491.667 60.3333 443.333 16.3333 394 -5 c 0
 362.667 -18.3333 328.333 -25 291 -25 c 0
 215.667 -25 153 11 103 83 c 0
 61.6667 143.667 41 210.333 41 283 c 0
 41 365 70.3333 447.333 129 530 c 0
 152.333 562.667 183 592.333 221 619 c 0
 254.333 643 283.667 655 309 655 c 0
 331.667 655 357 643.333 385 620 c 0
 405.667 603.333 416 588.333 416 575 c 0
 416 561 399.333 540.333 366 513 c 0
 352.667 501.667 344 496 340 496 c 128
 336 496 324.333 504.667 305 522 c 0
 277.667 546.667 253 559 231 559 c 0
 191 559 161 523.333 141 452 c 0
 130.333 413.333 125 374 125 334 c 0
 125 259.333 148.333 197.333 195 148 c 0
 237.667 102.667 291.333 80 356 80 c 0
 406 80 449 102.333 485 147 c 0
 500.333 166.333 508 180.667 508 190 c 1
EndSplineSet
Validated: 33
EndChar

StartChar: ungwe
Encoding: 57351 57351 21
Width: 1232
VWidth: 1000
Flags: HW
LayerCount: 2
Fore
SplineSet
516 190 m 1
 510.902 216.751 508.235 246.418 508 279 c 0
 508 331 517.333 377.333 536 418 c 0
 547.333 444 566 478 592 520 c 1
 470.667 538.667 330.667 538.667 172 520 c 1
 146 446.667 133 383.333 133 330 c 0
 133 250.667 158.333 187 209 139 c 0
 250.333 99.6667 302.333 80 365 80 c 0
 415 80 457.667 102 493 146 c 0
 508.333 165.333 516 180 516 190 c 1
1067 254 m 1
 1022.33 171.333 994.667 121.667 984 105 c 0
 924.991 15.6667 852.324 -29 766 -29 c 0
 661.333 -29 589 23 549 127 c 1
 501.667 67.6667 461.667 27.6667 429 7 c 0
 393 -15.6667 352.333 -27 307 -27 c 0
 231 -27 168 7.33333 118 76 c 0
 73.3333 138 51 210.333 51 293 c 0
 51 349 65.3333 403.667 94 457 c 0
 102.667 472.333 113.667 490.667 127 512 c 1
 105 508 74.3333 504 35 500 c 1
 6.33333 496 -7 500 -5 512 c 0
 -4.33333 516.667 -0.666667 522.667 6 530 c 1
 40 572.667 103.667 604.667 197 626 c 0
 247 637.333 297.333 643 348 643 c 0
 391.333 643 498.333 636 669 622 c 0
 756.333 615.333 823.333 612 870 612 c 0
 896 612 967.333 620 1084 636 c 0
 1182.67 649.333 1234.33 649 1239 635 c 0
 1242.33 627 1232.67 614 1210 596 c 0
 1183.33 573.333 1168 538 1164 490 c 0
 1162 468.667 1162.33 395 1165 269 c 2
 1165 248 l 2
 1178.33 -246.667 1173.67 -524 1151 -584 c 0
 1135 -622.667 1118 -649 1100 -663 c 0
 1090 -671.667 1070 -683.333 1040 -698 c 0
 1014 -711.333 1001 -711.667 1001 -699 c 0
 1001 -691 1006.67 -680 1018 -666 c 0
 1052 -624 1070.33 -554.667 1073 -458 c 1
 1075 -288 l 1
 1075 -287 l 2
 1077.67 -249.667 1077.33 -197.333 1074 -130 c 0
 1069.33 -32.6667 1067 95.3333 1067 254 c 1
1067 532 m 1
 977.667 508 835.667 501.333 641 512 c 1
 609.667 428 594 362.333 594 315 c 0
 594 245.667 618 188 666 142 c 0
 708 100.667 760.333 80 823 80 c 0
 879 80 934 122.667 988 208 c 0
 1025.33 266 1051.67 327 1067 391 c 1
 1067 532 l 1
EndSplineSet
Validated: 33
EndChar

StartChar: suule
Encoding: 57352 57352 22
Width: 806
VWidth: 1000
Flags: HW
LayerCount: 2
Fore
SplineSet
123 1274 m 0
 162.447 1274 184.781 1228.33 190 1137 c 1
 188 593 l 1
 190 477 l 1
 299.165 589 403.165 645 502 645 c 0
 612 645 685 595.667 721 497 c 0
 735.667 457.667 743 412 743 360 c 0
 743 265.333 719 179 671 101 c 0
 616.846 13 551.513 -31 475 -31 c 0
 425.667 -31 385 -11.3333 353 28 c 0
 344.333 38.6667 340 46.3333 340 51 c 0
 340 59.6667 354.667 74.6667 384 96 c 0
 403.333 110 417.333 117 426 117 c 0
 430 117 440 109.333 456 94 c 0
 482.667 68 509.667 55 537 55 c 0
 591.667 55 628.333 99.3333 647 188 c 0
 653.667 221.333 657 257.667 657 297 c 0
 657 381 628.333 447 571 495 c 0
 529 529.667 479.333 547 422 547 c 0
 343.333 547 277.333 520 224 466 c 0
 201.333 443.333 190 426.667 190 416 c 1
 197 133 l 1
 197 121 196.333 111.333 195 104 c 0
 188.333 60.6667 144.333 13 63 -39 c 1
 57.6667 -39 55 -37 55 -33 c 1
 79.6667 15.6667 94 63 98 109 c 0
 99.3333 128.333 100.667 197.667 102 317 c 1
 92 713 l 1
 94 987 92 1130.33 86 1143 c 0
 82 1153 71 1162 53 1170 c 0
 42.3333 1174 37 1178.67 37 1184 c 0
 37 1194.67 46.6667 1212 66 1236 c 0
 86.6667 1261.33 105.667 1274 123 1274 c 0
EndSplineSet
Validated: 33
EndChar

StartChar: formen
Encoding: 57353 57353 23
Width: 806
VWidth: 1000
Flags: HW
LayerCount: 2
Fore
SplineSet
188 84 m 1
 214.667 96.6667 361 102 627 100 c 1
 645.667 190.667 655 256.333 655 297 c 0
 655 379.667 628.667 445 576 493 c 0
 534.667 530.333 483.333 549 422 549 c 0
 363.333 549 308.333 527.667 257 485 c 0
 219.667 453.667 201 425.667 201 401 c 1
 195 339.667 192 262.667 192 170 c 0
 191.333 139.333 190 110.667 188 84 c 1
123 1274 m 0
 162.447 1274 184.781 1228.33 190 1137 c 1
 190 644 l 1
 190.667 588 191.667 533 193 479 c 1
 298.855 589.667 401.189 645 500 645 c 0
 614 645 688 592.333 722 487 c 0
 734.667 448.333 741 403.333 741 352 c 0
 741 283.407 720.667 199.407 680 100 c 1
 716.667 103.333 753.667 109.667 791 119 c 0
 809 123 818 121.333 818 114 c 0
 818 108 811.667 97.3333 799 82 c 0
 757.667 35.3333 713.667 7.33333 667 -2 c 0
 647 -6 622.667 -8 594 -8 c 1
 303 8 l 1
 243 8 168 0.666667 78 -14 c 1
 62 -18.6667 54.3333 -13.6667 55 1 c 0
 55 4.33333 55.6667 8.66667 57 14 c 1
 85.6667 47.3333 100 148.333 100 317 c 1
 92 713 l 1
 94 987 92 1130.33 86 1143 c 0
 82 1153 71 1162 53 1170 c 0
 42.3333 1174 37 1178.67 37 1184 c 0
 37 1194.67 46.6667 1212 66 1236 c 0
 86.6667 1261.33 105.667 1274 123 1274 c 0
EndSplineSet
Validated: 33
EndChar

StartChar: aha
Encoding: 57354 57354 24
Width: 806
VWidth: 1000
Flags: HW
LayerCount: 2
Fore
SplineSet
625 274 m 1
 588.333 189.333 558.667 130.667 536 98 c 0
 478 16 400.333 -25 303 -25 c 0
 236.333 -25 177.333 1.66667 126 55 c 0
 66.6667 115.667 37 192.333 37 285 c 0
 37 385.667 76.3333 476 155 556 c 0
 189.667 591.333 228.667 620.333 272 643 c 1
 289.333 651 303.667 655 315 655 c 0
 338.333 655 365 643.333 395 620 c 0
 415.667 604 426 590 426 578 c 0
 426 560 408.667 537.667 374 511 c 0
 360.667 501 352 496 348 496 c 128
 344 496 332.333 504.333 313 521 c 0
 286.333 545 262.667 557 242 557 c 0
 202 557 170 529.667 146 475 c 0
 128 435.667 119 392 119 344 c 0
 119 257.333 146.667 189 202 139 c 0
 245.333 99.6667 299.667 80 365 80 c 0
 436.333 80 500.667 133 558 239 c 0
 588 295 610.333 353.333 625 414 c 1
 625 785.333 630.333 1013.33 641 1098 c 1
 650.333 1162.67 670.333 1210.67 701 1242 c 0
 719 1260.67 738.667 1270 760 1270 c 0
 780.667 1270 797.667 1251 811 1213 c 0
 816.333 1198.33 819 1186 819 1176 c 0
 819 1159.33 813.667 1150.33 803 1149 c 2
 788 1149 l 2
 750 1149 729 1056 725 870 c 1
 723.667 630.667 725 381 729 121 c 0
 729.667 87 741.667 50.3333 765 11 c 0
 780.71 -14.4351 785.043 -32.4351 778 -43 c 1
 772 -57.6667 749 -48 709 -14 c 0
 671.667 17.3333 648 56 638 102 c 0
 631.333 133.333 627 190.667 625 274 c 1
EndSplineSet
Validated: 33
EndChar

StartChar: aha_tinco
Encoding: 65547 -1 25
Width: 1232
VWidth: 1000
Flags: HW
LayerCount: 2
Fore
SplineSet
590 254 m 1
 526 142 l 1
 454.847 30.6667 370.181 -25 272 -25 c 0
 186 -25 119.667 14.3333 73 93 c 0
 39.6667 148.333 23 212.333 23 285 c 0
 23 377 58.3333 464 129 546 c 0
 175 599.333 220 633.333 264 648 c 0
 274 651.333 283 653 291 653 c 0
 309 653 333 643 363 623 c 0
 387 607 399 592 399 578 c 0
 399 562 382.333 540.333 349 513 c 0
 335 501.667 326 496 322 496 c 0
 317.333 496 305.667 504.667 287 522 c 0
 261.667 545.333 239 557 219 557 c 0
 177.667 557 146.667 528 126 470 c 0
 112.667 434 106 392.667 106 346 c 0
 106 250 134.667 178 192 130 c 0
 231.333 96.6667 280 80 338 80 c 0
 400 80 459.667 126.333 517 219 c 0
 553.667 279 578 336.333 590 391 c 1
 590 784.333 594.667 1020 604 1098 c 1
 613.333 1162.67 633.333 1210.67 664 1242 c 0
 682 1260.67 701.667 1270 723 1270 c 0
 743.667 1270 760.667 1251 774 1213 c 0
 779.333 1198.33 782 1186 782 1176 c 0
 782 1159.33 776.667 1150.33 766 1149 c 2
 752 1149 l 2
 713.333 1149 692 1056 688 870 c 1
 686 481 l 1
 795.333 590.333 889 645 967 645 c 0
 1057.67 645 1123 607.333 1163 532 c 0
 1187.67 485.333 1200 426.667 1200 356 c 0
 1200 280.667 1183.67 206.333 1151 133 c 0
 1102.69 25.0001 1035.69 -28.9999 950 -29 c 0
 934.667 -29 909.667 -21.3333 875 -6 c 0
 833.667 12.6667 813 31.6667 813 51 c 0
 813 62.3333 833.667 81 875 107 c 0
 887.667 115 895 119 897 119 c 0
 900.333 119 909.667 111 925 95 c 0
 950.333 68.3333 975.667 55 1001 55 c 0
 1039 55 1067.33 79 1086 127 c 0
 1104.67 176.778 1114 230.778 1114 289 c 0
 1114 376.333 1088.67 444.333 1038 493 c 0
 999.333 530.333 950.333 549 891 549 c 0
 835 549 779 522.667 723 470 c 0
 697 445.333 684.667 429.333 686 422 c 1
 692 85.3333 695.333 -129.667 696 -223 c 0
 698 -384.333 692.333 -495.333 679 -556 c 0
 667 -612.667 647.667 -649.333 621 -666 c 1
 563 -698 l 1
 541.667 -708 528.667 -710.333 524 -705 c 1
 520 -697.667 525.667 -684.667 541 -666 c 1
 574.333 -624 592 -553.667 594 -455 c 0
 594.277 -397.68 595.61 -341.68 598 -287 c 1
 600.667 -252.333 600.333 -197 597 -121 c 0
 592.333 -19.6667 590 105.333 590 254 c 1
EndSplineSet
Validated: 33
EndChar

StartChar: hwesta
Encoding: 57355 57355 26
Width: 806
VWidth: 1000
Flags: HW
LayerCount: 2
Fore
SplineSet
195 514 m 1
 144.333 480.222 119 422.222 119 340 c 0
 119 266.667 142.667 204.667 190 154 c 0
 236 104.667 295 80 367 80 c 0
 429.667 80 486.333 116.667 537 190 c 0
 594.333 272.126 623 363.126 623 463 c 0
 623 481.667 621.333 502 618 524 c 1
 551.333 514 410.333 510.667 195 514 c 1
625 254 m 1
 569.667 144 513 67.6667 455 25 c 0
 407 -9.66667 355 -27 299 -27 c 0
 214.333 -27 147 10 97 84 c 0
 57 142.667 37 209 37 283 c 0
 37 364.333 58.3333 430 101 480 c 0
 113.667 494 127 505.333 141 514 c 1
 99.6667 512 63 506 31 496 c 1
 -4.33333 486.667 -6.33333 499.667 25 535 c 0
 73 589 122 616 172 616 c 0
 194.667 616.667 273.667 616 409 614 c 0
 486.333 612.667 557.667 615.667 623 623 c 1
 626.333 645 629.333 738.333 632 903 c 0
 633.333 997 636.333 1061.33 641 1096 c 0
 647.667 1150.67 664.667 1195.67 692 1231 c 0
 712 1257 734.667 1270 760 1270 c 0
 780.667 1270 797.667 1251 811 1213 c 0
 816.333 1198.33 819 1186 819 1176 c 0
 819 1159.33 813.667 1150.33 803 1149 c 2
 788 1149 l 2
 750 1149 729 1056 725 870 c 1
 723 521.333 724.333 269.667 729 115 c 0
 729.667 84.3333 742 49.6667 766 11 c 0
 780 -13 784.667 -31 780 -43 c 1
 772.667 -56.3333 749.667 -46.6667 711 -14 c 0
 674.333 16 651 49.6667 641 87 c 0
 633.667 115.667 628.333 171.333 625 254 c 1
EndSplineSet
Validated: 33
EndChar

StartChar: hwesta_tinco
Encoding: 65549 -1 27
Width: 1232
VWidth: 1000
Flags: HW
LayerCount: 2
Fore
SplineSet
590 254 m 1
 546 166.667 512.333 107.667 489 77 c 0
 435.667 5 373 -31 301 -31 c 0
 219.667 -31 152.333 5.33333 99 78 c 0
 53.6667 139.333 31 207 31 281 c 0
 31 386.333 62 461.667 124 507 c 0
 127.333 509.667 131 512 135 514 c 1
 93 512 56.3333 506 25 496 c 1
 2.33333 490 -6.66667 493.333 -2 506 c 0
 0.666667 512.667 7.33333 522.333 18 535 c 1
 68.6667 589 116.667 616 162 616 c 0
 182.667 616.667 255 616 379 614 c 0
 452.333 612.667 522 615.667 588 623 c 1
 589.975 790.221 595.309 948.555 604 1098 c 1
 613.333 1162.67 633.333 1210.67 664 1242 c 0
 682 1260.67 701.667 1270 723 1270 c 0
 743.667 1270 760.667 1251 774 1213 c 0
 779.333 1198.33 782 1186 782 1176 c 0
 782 1159.33 776.667 1150.33 766 1149 c 2
 752 1149 l 2
 713.333 1149 692 1056 688 870 c 1
 688 736 686 607 682 483 c 1
 736.667 532.333 779 566.667 809 586 c 0
 867.667 625.333 920.333 645 967 645 c 0
 1057.67 645 1123 607.333 1163 532 c 0
 1187.67 485.333 1200 426.667 1200 356 c 0
 1200 280.667 1183.67 206.333 1151 133 c 0
 1102.69 25.0001 1035.69 -28.9999 950 -29 c 0
 934.667 -29 909.667 -21.3333 875 -6 c 0
 833.667 12.6667 813 31.6667 813 51 c 0
 813 62.3333 833.667 81 875 107 c 0
 887.667 115 895 119 897 119 c 0
 900.333 119 909.667 111 925 95 c 0
 950.333 68.3333 975.667 55 1001 55 c 0
 1047 55 1080 94 1100 172 c 0
 1109.33 209.333 1114 248.333 1114 289 c 0
 1114 376.333 1088.67 444.333 1038 493 c 0
 999.333 530.333 950.333 549 891 549 c 0
 835 549 779 522.667 723 470 c 0
 697 445.333 684.667 429.333 686 422 c 1
 692 85.3333 695.333 -129.667 696 -223 c 0
 698 -384.333 692.333 -495.333 679 -556 c 0
 667 -612.667 647.667 -649.333 621 -666 c 1
 563 -698 l 1
 541.667 -708 528.667 -710.333 524 -705 c 1
 520 -697.667 525.667 -684.667 541 -666 c 1
 574.333 -624 592 -553.667 594 -455 c 0
 594.277 -397.68 595.61 -341.68 598 -287 c 1
 600.667 -252.333 600.333 -197 597 -121 c 0
 592.333 -19.6667 590 105.333 590 254 c 1
584 524 m 1
 512 513.333 377.333 510 180 514 c 1
 136.667 476 114.333 420.667 113 348 c 1
 113 271.333 135 207 179 155 c 0
 221 105 275.333 80 342 80 c 0
 398 80 452.333 120.333 505 201 c 0
 546.333 265 571.667 327 581 387 c 0
 581.667 388.333 582 389.667 582 391 c 0
 586.667 455 587.333 499.333 584 524 c 1
EndSplineSet
Validated: 33
EndChar

StartChar: anto
Encoding: 57356 57356 28
Width: 1232
VWidth: 1000
Flags: HW
LayerCount: 2
Fore
SplineSet
123 1274 m 0
 162.447 1274 184.781 1228.33 190 1137 c 1
 190 644 l 1
 190.667 588 191.667 533 193 479 c 1
 312.333 589.667 412 645 492 645 c 0
 552.667 645 602.333 625 641 585 c 0
 655.667 569 674 544.667 696 512 c 1
 733.333 550.667 780.667 584 838 612 c 0
 884.667 634 926.333 645 963 645 c 0
 1062.33 645 1130.33 601 1167 513 c 0
 1185 470.333 1194 419.333 1194 360 c 0
 1194 282 1175.33 205 1138 129 c 0
 1086.21 22.3333 1019.55 -31 938 -31 c 0
 890.667 -31 851 -11.6667 819 27 c 0
 809.667 38.3333 805 46.3333 805 51 c 0
 805 57.6667 818.333 71.3333 845 92 c 0
 866.333 108.667 881.667 117 891 117 c 0
 895 117 905 109 921 93 c 0
 946.333 67.6667 971 55 995 55 c 0
 1039 55 1071.33 87.3333 1092 152 c 0
 1104 190 1110 233 1110 281 c 0
 1110 386.333 1080 462.333 1020 509 c 0
 984.667 537 941.667 551 891 551 c 0
 833 551 785.333 534.333 748 501 c 0
 737.333 491 725.667 478.333 713 463 c 1
 717 426.333 719 392.667 719 362 c 0
 719 276.667 699.667 195.667 661 119 c 0
 609.551 19 542.884 -31 461 -31 c 0
 412.333 -31 372 -8.33333 340 37 c 0
 334.667 45 332 49.6667 332 51 c 0
 332 57.6667 345.333 71.3333 372 92 c 0
 393.333 108.667 408.667 117 418 117 c 0
 422 117 431 109.333 445 94 c 0
 469 68 494 55 520 55 c 0
 560 55 591.667 81 615 133 c 0
 631 170.333 639 214 639 264 c 0
 639 362 613 437.333 561 490 c 0
 521.667 529.333 472 549 412 549 c 0
 353.333 549 294 522 234 468 c 0
 206.667 443.333 193 426.667 193 418 c 1
 197 125 l 1
 196.333 116.333 195.667 109.333 195 104 c 0
 188.333 60.6667 144.333 13 63 -39 c 1
 57.6667 -39 55 -37 55 -33 c 1
 79.6667 15.6667 94 63 98 109 c 0
 99.3333 128.333 100.667 197.667 102 317 c 1
 92 713 l 1
 94 987 92 1130.33 86 1143 c 0
 82 1153 71 1162 53 1170 c 0
 42.3333 1174 37 1178.67 37 1184 c 0
 37 1194.67 46.6667 1212 66 1236 c 0
 86.6667 1261.33 105.667 1274 123 1274 c 0
EndSplineSet
Validated: 33
EndChar

StartChar: ampa
Encoding: 57357 57357 29
Width: 1232
VWidth: 1000
Flags: HW
LayerCount: 2
Fore
SplineSet
719 352 m 0
 719 288.727 698.333 200.727 657 88 c 1
 805 75.3333 945 76.6667 1077 92 c 1
 1097.67 170 1108 237 1108 293 c 0
 1108 383 1082.67 451.667 1032 499 c 0
 994.667 533.667 947.667 551 891 551 c 128
 834.333 551 788.333 536 753 506 c 0
 741 495.333 727 481 711 463 c 1
 716.333 425 719 388 719 352 c 0
188 70 m 1
 291.333 104.667 430 114.667 604 100 c 1
 626 155.333 637 214 637 276 c 0
 637 370.667 610.333 443.333 557 494 c 0
 517.667 530.667 468.667 549 410 549 c 0
 352 549 297 524.333 245 475 c 0
 214.333 447 197 422.333 193 401 c 1
 187 335.667 186 259.333 190 172 c 0
 192 133.333 191.333 99.3333 188 70 c 1
123 1274 m 0
 162.447 1274 184.781 1228.33 190 1137 c 1
 190 642 l 1
 190.667 586 191.667 531 193 477 c 1
 300.333 589 399 645 489 645 c 0
 552.333 645 603.333 624 642 582 c 0
 656.667 566 674 542.667 694 512 c 1
 731.333 550.667 778.667 584 836 612 c 0
 882.667 634 925 645 963 645 c 0
 1061.67 645 1129.67 599.667 1167 509 c 0
 1185 464.333 1194 412 1194 352 c 0
 1194 290.319 1167.33 204.985 1114 96 c 1
 1141.33 99.3333 1179 105 1227 113 c 0
 1253 117 1266 114.333 1266 105 c 0
 1266 100.333 1262.33 93.3333 1255 84 c 0
 1212.33 33.3333 1140 -0.666668 1038 -18 c 0
 1001.33 -24 964 -27 926 -27 c 0
 882 -27 767.667 -20 583 -6 c 0
 488.333 0.666667 415.667 4 365 4 c 0
 262.333 4 161.667 -12.3333 63 -45 c 1
 57.6667 -45 55 -43.6667 55 -41 c 1
 79 25 93 80.3333 97 125 c 1
 99.184 296.713 97.5173 492.713 92 713 c 1
 94 987 92 1130.33 86 1143 c 0
 82 1153 71 1162 53 1170 c 0
 42.3333 1174 37 1178.67 37 1184 c 0
 37 1194.67 46.6667 1212 66 1236 c 0
 86.6667 1261.33 105.667 1274 123 1274 c 0
EndSplineSet
Validated: 33
EndChar

StartChar: anca
Encoding: 57358 57358 30
Width: 1232
VWidth: 1000
Flags: HW
LayerCount: 2
Fore
SplineSet
1153 870 m 1
 1163 121 l 1
 1163 87 1175 50 1199 10 c 0
 1213.37 -13.9393 1217.7 -31.606 1212 -43 c 0
 1204.67 -56.3333 1181.67 -46.6667 1143 -14 c 0
 1103 19.3333 1078 62 1068 114 c 0
 1064 138.667 1060.33 185.333 1057 254 c 1
 1008.33 158.667 960.667 89.6667 914 47 c 0
 861.333 -1 805 -25 745 -25 c 0
 657 -25 588.333 25.6667 539 127 c 1
 489.667 69 450.667 30.6667 422 12 c 0
 383.333 -14 337.667 -27 285 -27 c 0
 219 -27 161.667 5.33333 113 70 c 0
 65.6667 133.333 41.6667 205.667 41 287 c 0
 41 361 65.6667 435.333 115 510 c 0
 141 550 168.333 580 197 600 c 1
 246.867 636.667 282.867 655 305 655 c 0
 320.333 655 342.333 646.667 371 630 c 0
 401 612 416 594.667 416 578 c 0
 416 562 399.333 540.333 366 513 c 0
 352.667 501.667 344 496 340 496 c 128
 336 496 324.333 504.667 305 522 c 0
 277.667 546.667 253 559 231 559 c 0
 191 559 161 523.667 141 453 c 0
 130.333 414.333 125 374.667 125 334 c 0
 125 248 151.667 181.333 205 134 c 0
 245.667 98 296 80 356 80 c 0
 406 80 449 102.333 485 147 c 0
 500.333 166.333 508 180.667 508 190 c 1
 501.542 210.047 498.209 233.38 498 260 c 0
 498 346.667 526.333 432.333 583 517 c 0
 627.667 585 675 628.333 725 647 c 0
 738.333 652.333 751.333 655 764 655 c 0
 788.667 655 815 643 843 619 c 0
 862.333 603 872 588.333 872 575 c 0
 872 561 856.333 540.667 825 514 c 0
 811 502 801.667 496 797 496 c 128
 792.333 496 780 505 760 523 c 0
 734 547 712 559 694 559 c 0
 664 559 637.667 533.667 615 483 c 0
 594.333 437.667 584 388.667 584 336 c 0
 584 244.667 612.667 175.333 670 128 c 0
 708.667 96 756.333 80 813 80 c 0
 881.667 80 943 130.333 997 231 c 0
 1023.67 280.333 1044.33 333.667 1059 391 c 1
 1055.67 595.667 1057.33 791.333 1064 978 c 0
 1066 1034 1068.33 1074 1071 1098 c 0
 1078.33 1160.67 1096.67 1208.33 1126 1241 c 0
 1144 1260.33 1164 1270 1186 1270 c 0
 1206.67 1270 1223.67 1251 1237 1213 c 0
 1242.33 1198.33 1245 1186 1245 1176 c 0
 1245 1159.33 1239.67 1150.33 1229 1149 c 2
 1214 1149 l 2
 1175.33 1149 1155 1056 1153 870 c 1
EndSplineSet
Validated: 33
EndChar

StartChar: unque
Encoding: 57359 57359 31
Width: 1232
VWidth: 1000
Flags: HW
LayerCount: 2
Fore
SplineSet
500 260 m 0
 500 351.333 527.333 438 582 520 c 1
 460.667 538.667 321.333 538.667 164 520 c 1
 139.333 428 127 359.667 127 315 c 0
 127 241.667 151.667 182.333 201 137 c 0
 242.333 99 294 80 356 80 c 0
 406 80 449 102.333 485 147 c 0
 500.333 166.333 508 180.667 508 190 c 1
 502.935 210.774 500.269 234.107 500 260 c 0
1059 532 m 1
 967 506.667 825 500 633 512 c 1
 601.667 425.333 586 358.333 586 311 c 0
 586 235.667 611.667 176 663 132 c 0
 703.667 97.3333 753.667 80 813 80 c 0
 880.333 80 941 129 995 227 c 0
 1023.67 279 1045 333.667 1059 391 c 1
 1059 532 l 1
1057 254 m 1
 1019.67 176.667 994.667 127.667 982 107 c 0
 925.807 17.6667 852.473 -27 762 -27 c 0
 678 -27 614 4.33333 570 67 c 0
 556.667 85 546.333 105 539 127 c 1
 494.333 65 451.333 23 410 1 c 0
 376.667 -16.3333 339.667 -25 299 -25 c 0
 213.667 -25 146.667 11 98 83 c 0
 62.6667 136.333 45 198 45 268 c 0
 45 339.333 69 420.667 117 512 c 1
 95 508 64.3333 504 25 500 c 1
 -15.3553 493.723 -25.022 503.723 -4 530 c 0
 32.6667 574 97.6667 606.333 191 627 c 0
 238.333 637.667 286 643 334 643 c 0
 366 643 458 637.667 610 627 c 0
 692.667 621 762.333 618 819 618 c 0
 908.333 618 988.333 624.333 1059 637 c 1
 1059 840 l 2
 1059 996.667 1068.67 1104.67 1088 1164 c 0
 1106 1220.67 1134.67 1255.33 1174 1268 c 1
 1190 1272 1202 1270 1210 1262 c 0
 1231.33 1239.33 1243.33 1213 1246 1183 c 0
 1248.67 1159.67 1241 1148.33 1223 1149 c 1
 1179.67 1159 1157 1066 1155 870 c 0
 1154.33 700.667 1156.67 471.667 1162 183 c 0
 1162.67 161 1163 140.333 1163 121 c 0
 1163 87 1175 50 1199 10 c 0
 1213.37 -13.9393 1217.7 -31.606 1212 -43 c 0
 1204.67 -56.3333 1181.67 -46.6667 1143 -14 c 0
 1103 19.3333 1078 62 1068 114 c 0
 1064 138.667 1060.33 185.333 1057 254 c 1
EndSplineSet
Validated: 33
EndChar

StartChar: nuumen
Encoding: 57360 57360 32
Width: 1232
VWidth: 1000
Flags: HW
LayerCount: 2
Fore
SplineSet
197 483 m 1
 303.423 591 400.757 645 489 645 c 0
 552.333 645 603.333 624 642 582 c 0
 656.667 566 674 542.667 694 512 c 1
 731.333 550.667 778.667 584 836 612 c 0
 882.667 634 925 645 963 645 c 0
 1051 645 1115.67 606.333 1157 529 c 0
 1183 481.667 1196 425.333 1196 360 c 0
 1196 284.667 1177.33 208.667 1140 132 c 0
 1086.47 23.3333 1019.13 -31.0001 938 -31 c 0
 898.667 -31 862.333 -16 829 14 c 0
 813 29.3333 805 41.6667 805 51 c 0
 805 59 818.333 73.3333 845 94 c 0
 865 109.333 879.667 117 889 117 c 0
 893 117 903.333 109 920 93 c 0
 946 67.6667 971 55 995 55 c 0
 1039.67 55 1072.33 87.3333 1093 152 c 0
 1104.33 189.333 1110 231.667 1110 279 c 0
 1110 381.667 1080.67 457.333 1022 506 c 0
 985.333 536 941 551 889 551 c 0
 833 551 786.667 535 750 503 c 0
 738.667 493 725.667 479.667 711 463 c 1
 716.333 428.333 719 392.667 719 356 c 0
 719 269.333 698.333 188 657 112 c 0
 606.059 16.6667 540.725 -31 461 -31 c 0
 422.333 -31 386.667 -15 354 17 c 0
 339.333 31.6667 332 43 332 51 c 0
 332 57.6667 345.333 71.3333 372 92 c 0
 393.333 108.667 408.667 117 418 117 c 0
 422 117 431 109.333 445 94 c 0
 469 68 494 55 520 55 c 0
 557.333 55 588 80 612 130 c 0
 630 168.667 639 213.333 639 264 c 0
 639 365.333 611.667 442 557 494 c 0
 517.667 530.667 468.667 549 410 549 c 0
 349.333 549 290.667 521.667 234 467 c 0
 212 445.667 200.333 430.667 199 422 c 1
 201 244 199.667 138 195 104 c 0
 188.333 60 143.667 12.3333 61 -39 c 1
 55 -41 53 -39 55 -33 c 1
 79 15 93 62 97 108 c 0
 97.6667 122 98.6667 191.667 100 317 c 0
 102 433 99.6667 501.667 93 523 c 0
 92.3333 524.333 92 526 92 528 c 1
 84 544 70 556 50 564 c 0
 40 568.667 35 574 35 580 c 0
 35 592.667 44.6667 610.333 64 633 c 0
 84 656.333 103 668 121 668 c 0
 170.333 668 195.667 625.333 197 540 c 0
 197 483 l 1
EndSplineSet
Validated: 33
EndChar

StartChar: malta
Encoding: 57361 57361 33
Width: 1232
VWidth: 1000
Flags: HW
LayerCount: 2
Fore
SplineSet
193 471 m 1
 307.215 587 406.882 645 492 645 c 0
 552.667 645 602.333 625 641 585 c 0
 655.667 569 674 544.667 696 512 c 1
 733.333 550.667 780.667 584 838 612 c 0
 884.667 634 926.333 645 963 645 c 0
 1057.67 645 1124.33 603.333 1163 520 c 0
 1183.67 474.667 1194 420.667 1194 358 c 0
 1194 301.333 1179 238 1149 168 c 2
 1116 96 l 1
 1142 99.3333 1179 105 1227 113 c 0
 1254.33 117 1267.67 114.333 1267 105 c 0
 1267 100.333 1263 93.3333 1255 84 c 0
 1213.67 33.3333 1141 -0.666668 1037 -18 c 0
 1000.33 -24 963.333 -27 926 -27 c 0
 883.333 -27 769.333 -20 584 -6 c 0
 489.333 0.666667 416.333 4 365 4 c 0
 259 4 159.333 -12.3333 66 -45 c 1
 60 -45 57 -43.6667 57 -41 c 1
 80.3333 21.6667 93 73.6667 95 115 c 0
 95.6667 124.333 94.6667 192.333 92 319 c 1
 94 474 l 1
 93.3333 503.333 91.3333 520.667 88 526 c 0
 79.3333 538.667 65.6667 550.667 47 562 c 0
 39 567.333 35 573.333 35 580 c 0
 35 592.667 44.6667 610.333 64 633 c 0
 84 656.333 103 668 121 668 c 0
 169.667 668 194 622.667 194 532 c 1
 193 471 l 1
657 88 m 1
 805 75.3333 945 76.6667 1077 92 c 1
 1097.67 164.667 1108 232.333 1108 295 c 0
 1108 385.667 1082 454.333 1030 501 c 0
 993.333 534.333 947 551 891 551 c 0
 833.667 551 787 535 751 503 c 0
 739.667 493 727 479.667 713 463 c 1
 718.333 426.333 721 390.667 721 356 c 0
 721 300.667 707.667 234 681 156 c 0
 675.667 139.333 667.667 116.667 657 88 c 1
188 70 m 1
 291.333 104.667 430.667 114.667 606 100 c 1
 628 155.333 639 213.333 639 274 c 0
 639 368.667 612.667 441.333 560 492 c 0
 520.667 530 471.333 549 412 549 c 0
 364.667 549 315.667 529.667 265 491 c 0
 225.667 461.667 201.667 431.667 193 401 c 1
 187.667 340.333 186.667 263.333 190 170 c 0
 192 131.333 191.333 98 188 70 c 1
EndSplineSet
Validated: 33
EndChar

StartChar: noldo
Encoding: 57362 57362 34
Width: 1232
VWidth: 1000
Flags: HW
LayerCount: 2
Fore
SplineSet
522 190 m 1
 515.542 210.047 512.209 233.38 512 260 c 0
 512 346.667 540.333 432.333 597 517 c 0
 642.333 585 689.667 628.333 739 647 c 0
 753 652.333 766 655 778 655 c 0
 802 655 828.333 643.333 857 620 c 0
 877 603.333 887 588.333 887 575 c 0
 887 561 871 540.667 839 514 c 0
 825 502 815.667 496 811 496 c 0
 807 496 794.667 505.333 774 524 c 0
 748.667 547.333 727 559 709 559 c 0
 678.333 559 651.667 533.333 629 482 c 0
 608.333 436.667 598 388 598 336 c 0
 598 244.667 626.667 175.333 684 128 c 0
 722.667 96 770.333 80 827 80 c 0
 892.333 80 951.667 126.333 1005 219 c 0
 1035.67 272.333 1058.33 329.667 1073 391 c 1
 1067 502.333 1077.33 571.333 1104 598 c 1
 1120.67 618 1142 634.333 1168 647 c 0
 1182 653.667 1194 657 1204 657 c 0
 1222.67 657 1238.33 643.333 1251 616 c 0
 1257 602.667 1260 590.667 1260 580 c 0
 1260 555.333 1253.67 543 1241 543 c 0
 1201.67 543 1177.33 527 1168 495 c 0
 1163.33 479 1161 456.667 1161 428 c 0
 1161 200.762 1176.67 64.7619 1208 20 c 0
 1228.67 -10 1235 -31 1227 -43 c 0
 1219 -56.3333 1195.67 -46.6667 1157 -14 c 0
 1117 19.3333 1092 62 1082 114 c 0
 1078 138.667 1074.33 185.333 1071 254 c 1
 1029.67 171.333 997.333 114.667 974 84 c 0
 916.667 10 847.333 -27 766 -27 c 0
 670 -27 599 24.3333 553 127 c 1
 505 67.6667 465.667 27.6667 435 7 c 0
 397.667 -17 355 -29 307 -29 c 0
 237.667 -29 177.667 4.66667 127 72 c 1
 80.3333 138 56.3333 209.667 55 287 c 0
 55 361 79.6667 435.333 129 510 c 0
 155 550 182.333 580 211 600 c 0
 261.667 634.667 297.667 653 319 655 c 1
 334.333 655 356.333 646.667 385 630 c 0
 415 612 430 594.667 430 578 c 0
 430 562 413.667 540.333 381 513 c 0
 367 501.667 358 496 354 496 c 128
 350 496 338.667 504.333 320 521 c 0
 292.667 546.333 268 559 246 559 c 0
 205.333 559 175 523.667 155 453 c 0
 144.333 414.333 139 374.667 139 334 c 0
 139 248 166 181.333 220 134 c 0
 260 98 310.333 80 371 80 c 0
 420.333 80 463 102.333 499 147 c 0
 514.333 166.333 522 180.667 522 190 c 1
EndSplineSet
Validated: 33
EndChar

StartChar: nwalme
Encoding: 57363 57363 35
Width: 1232
VWidth: 1000
Flags: HW
LayerCount: 2
Fore
SplineSet
516 190 m 1
 511.117 216.286 508.45 244.953 508 276 c 0
 508 324.667 522 378.333 550 437 c 2
 592 520 l 1
 470.667 538.667 330.667 538.667 172 520 c 1
 148.667 422 137 354.333 137 317 c 0
 137 239.667 162.667 178.333 214 133 c 0
 254.667 97.6667 305 80 365 80 c 0
 415 80 457.667 102 493 146 c 0
 508.333 165.333 516 180 516 190 c 1
1067 532 m 1
 975 506.667 833 500 641 512 c 1
 611.667 424.667 596 362.333 594 325 c 0
 594 313 l 0
 594 239.667 619 180.333 669 135 c 0
 710.333 98.3333 761.667 80 823 80 c 0
 879 80 934 122.667 988 208 c 0
 1025.33 266 1051.67 327 1067 391 c 1
 1067 532 l 1
1067 254 m 1
 1011 131.333 950 49.3333 884 8 c 0
 842.667 -18 797.333 -30.3333 748 -29 c 0
 684.667 -27.6667 631 3.66667 587 65 c 0
 575.667 81 563 101.667 549 127 c 1
 501 57.6667 444 10.6667 378 -14 c 0
 351.333 -24 325 -29 299 -29 c 0
 233 -29 175.333 2 126 64 c 1
 77.3333 128 52.3333 199.667 51 279 c 0
 51 327.667 65 382.333 93 443 c 2
 127 512 l 1
 105 508 74.3333 504 35 500 c 1
 6.33333 496 -7 500 -5 512 c 0
 -4.33333 516.667 -0.666667 522.667 6 530 c 1
 40 572.667 103.667 604.667 197 626 c 0
 247 637.333 297.333 643 348 643 c 0
 391.333 643 498.333 636 669 622 c 0
 756.333 615.333 823.333 612 870 612 c 0
 896 612 967.333 620 1084 636 c 0
 1182.67 649.333 1234.33 649 1239 635 c 0
 1242.33 627 1232.67 614 1210 596 c 1
 1180.67 570 1165 536 1163 494 c 1
 1164.9 365.712 1167.57 241.379 1171 121 c 1
 1173.67 79.6667 1184 46 1202 20 c 0
 1222.67 -10 1229 -31 1221 -43 c 1
 1213.67 -57 1190.33 -47.3333 1151 -14 c 128
 1111.67 19.3333 1087.33 63.3333 1078 118 c 0
 1074 142 1070.33 187.333 1067 254 c 1
EndSplineSet
Validated: 33
EndChar

StartChar: oore
Encoding: 57364 57364 36
Width: 806
VWidth: 1000
Flags: HW
LayerCount: 2
Fore
SplineSet
197 483 m 1
 306.333 591 407.333 645 500 645 c 0
 620.667 645 696.333 586.667 727 470 c 0
 736.333 434.667 741 394.667 741 350 c 0
 741 264.667 719 184.667 675 110 c 0
 621.624 17.3333 554.291 -29 473 -29 c 0
 428.333 -29 390 -12.3333 358 21 c 0
 346 33.6667 340 43.6667 340 51 c 0
 340 60.3333 354 75.3333 382 96 c 0
 401.333 110 415.333 117 424 117 c 0
 428 117 438.667 109 456 93 c 0
 484 67.6667 511 55 537 55 c 0
 582.333 55 615.667 88.3333 637 155 c 0
 649 192.333 655 234.333 655 281 c 0
 655 378.333 626 451.333 568 500 c 0
 528.667 532.667 480.667 549 424 549 c 0
 349.333 549 284.667 521 230 465 c 0
 208.667 443.667 198.333 429.333 199 422 c 0
 201 244 199.667 138 195 104 c 0
 188.333 60 143.667 12.3333 61 -39 c 1
 55 -41 53 -39 55 -33 c 1
 79 15 93 62 97 108 c 0
 97.6667 122 98.6667 191.667 100 317 c 0
 102 433 99.6667 501.667 93 523 c 0
 92.3333 524.333 92 526 92 528 c 1
 84 544 70 556 50 564 c 0
 40 568.667 35 574 35 580 c 0
 35 592.667 44.6667 610.333 64 633 c 0
 84 656.333 103 668 121 668 c 0
 170.333 668 195.667 625.333 197 540 c 0
 197 483 l 1
EndSplineSet
Validated: 33
EndChar

StartChar: vala
Encoding: 57365 57365 37
Width: 806
VWidth: 1000
Flags: HW
LayerCount: 2
Fore
SplineSet
92 270 m 1
 92 493 l 1
 91.3333 513 90 524 88 526 c 0
 81.3333 533.333 68 544.667 48 560 c 0
 39.3333 566 35 572.667 35 580 c 0
 35 592.667 44.6667 610.333 64 633 c 0
 84 656.333 103 668 121 668 c 0
 171 668 196.333 623.333 197 534 c 0
 197 479 l 1
 302.748 589.667 404.415 645 502 645 c 0
 608.667 645 680.667 598.333 718 505 c 0
 734.667 462.333 743 412.667 743 356 c 0
 743 290.333 722 205 680 100 c 1
 714.667 103.333 752.333 109.667 793 119 c 0
 812.333 123.667 820.667 121.333 818 112 c 0
 816.667 105.333 810.333 95.3333 799 82 c 0
 757.667 36 714 8 668 -2 c 0
 632 -10 563.667 -10 463 -2 c 2
 444 0 l 2
 328.875 11.2867 206.875 6.62007 78 -14 c 1
 59.3333 -20 53 -10.6667 59 14 c 1
 80.3333 40.6667 91.3333 126 92 270 c 1
188 84 m 1
 214.667 96.6667 361.667 102 629 100 c 1
 647.667 190.667 657 255.667 657 295 c 0
 657 375.667 631.667 440 581 488 c 0
 539 528.667 486 549 422 549 c 0
 360.667 549 304 525.667 252 479 c 0
 218 449 201 423 201 401 c 1
 195 341.667 192 267 192 177 c 0
 192 143.667 190.667 112.667 188 84 c 1
EndSplineSet
Validated: 33
EndChar

StartChar: anna
Encoding: 57366 57366 38
Width: 806
VWidth: 1000
Flags: HW
LayerCount: 2
Fore
SplineSet
625 274 m 1
 581 173.333 540 102.333 502 61 c 0
 448 2.33333 380.333 -27 299 -27 c 0
 221 -27 156.667 5.66667 106 71 c 0
 60 129.667 37 199.667 37 281 c 0
 37 384.333 77.3333 476.667 158 558 c 0
 192 592 230.667 620.333 274 643 c 0
 288.667 651 303 655 317 655 c 0
 339 655 365 643.333 395 620 c 0
 415.667 604 426 590 426 578 c 0
 426 560.667 408.333 538 373 510 c 0
 360.333 500.667 352.667 496 350 496 c 0
 346 496 334.333 504.333 315 521 c 0
 288.333 545 264 557 242 557 c 0
 200 557 167.333 525.333 144 462 c 0
 128.667 420.667 121 376 121 328 c 0
 121 258.667 143.667 200 189 152 c 128
 234.333 104 293.667 80 367 80 c 0
 435.667 80 498.333 131 555 233 c 0
 588.333 292.333 611.667 352.667 625 414 c 1
 619.371 509.704 630.037 571.037 657 598 c 1
 679 622 703.333 639.333 730 650 c 0
 740.667 654.667 750 657 758 657 c 0
 776 657 791.333 643.333 804 616 c 0
 810 602.667 813 590.667 813 580 c 0
 813 555.333 807 543 795 543 c 0
 755.667 543 731.333 527.333 722 496 c 0
 717.333 480 715 457.333 715 428 c 0
 715 200.762 730.667 64.7619 762 20 c 0
 782 -10 788 -31 780 -43 c 0
 772.667 -56.3333 749.667 -46.6667 711 -14 c 0
 669.667 20 644.333 70 635 136 c 0
 631 160.667 627.667 206.667 625 274 c 1
EndSplineSet
Validated: 33
EndChar

StartChar: vilya
Encoding: 57367 57367 39
Width: 806
VWidth: 1000
Flags: HW
LayerCount: 2
Fore
SplineSet
618 528 m 1
 514 512 373 512 195 528 c 1
 145.667 481.333 121 418 121 338 c 0
 121 262.667 145.333 200 194 150 c 0
 239.333 103.333 297 80 367 80 c 0
 429.667 80 486.333 116.667 537 190 c 0
 594.333 272.126 623 363.126 623 463 c 0
 623 484.333 621.333 506 618 528 c 1
37 283 m 0
 37 387.947 71.6667 469.614 141 528 c 1
 109.667 526.667 73 518 31 502 c 0
 7 493.333 -1.66667 497 5 513 c 0
 8.33333 521 15 531.667 25 545 c 1
 64.3333 584.333 104.333 609 145 619 c 0
 171.667 625.667 204.667 629 244 629 c 1
 506 621 l 1
 508 621 l 2
 569.333 621 625.667 627.667 677 641 c 0
 701.667 647.667 724.333 651 745 651 c 0
 776.333 651 793.667 644.333 797 631 c 1
 797 623 787.333 611.333 768 596 c 0
 732.667 567.333 715 501 715 397 c 0
 715 377 718.667 304.333 726 179 c 0
 727.333 154.333 728.333 133 729 115 c 0
 729.667 84.3333 742 49.6667 766 11 c 0
 780 -13 784.667 -31 780 -43 c 1
 772.667 -56.3333 749.667 -46.6667 711 -14 c 0
 674.333 16 651 49.6667 641 87 c 0
 633.667 115.667 628.333 171.333 625 254 c 1
 569.667 144 513 67.6667 455 25 c 0
 407 -9.66667 355 -27 299 -27 c 0
 214.333 -27 147 10 97 84 c 0
 57 142.667 37 209 37 283 c 0
EndSplineSet
Validated: 33
EndChar

StartChar: tincoX
Encoding: 57368 57368 40
Width: 806
VWidth: 1000
Flags: HW
LayerCount: 2
Fore
SplineSet
190 471 m 1
 302.667 587 406.667 645 502 645 c 0
 612 645 685 595.667 721 497 c 0
 735.667 457.667 743 412 743 360 c 0
 743 265.333 719 179 671 101 c 0
 616.846 13 551.513 -31 475 -31 c 0
 425.667 -31 385 -11.3333 353 28 c 0
 344.333 38.6667 340 46.3333 340 51 c 0
 340 59.6667 354.667 74.6667 384 96 c 0
 403.333 110 417.333 117 426 117 c 0
 430 117 440 109.333 456 94 c 0
 482.667 68 509.667 55 537 55 c 0
 591.667 55 628.333 99.3333 647 188 c 0
 653.667 221.333 657 257.667 657 297 c 0
 657 381 628.333 447 571 495 c 0
 529 529.667 479.333 547 422 547 c 0
 344.667 547 280 517.333 228 458 c 0
 204.667 432 193 413 193 401 c 1
 187 334.333 186 221.667 190 63 c 2
 199 -289 l 2
 203 -451.667 201.667 -555.333 195 -600 c 0
 188.333 -641.333 144.333 -685 63 -731 c 1
 57.6667 -733 55 -731 55 -725 c 1
 77 -683.667 90.3333 -645 95 -609 c 0
 103.979 -530.435 103.979 -308.768 95 56 c 0
 89.6667 245.333 88 464.333 90 713 c 0
 92 989.667 90.6667 1133 86 1143 c 0
 82 1153 71 1162 53 1170 c 0
 42.3333 1174 37 1178.67 37 1184 c 0
 37 1194.67 46.6667 1212 66 1236 c 0
 86.6667 1261.33 105.667 1274 123 1274 c 0
 162.447 1274 184.781 1228.33 190 1137 c 1
 192.667 1063 192.667 841 190 471 c 1
EndSplineSet
Validated: 33
EndChar

StartChar: parmaX
Encoding: 57369 57369 41
Width: 806
VWidth: 1000
Flags: HW
LayerCount: 2
Fore
SplineSet
188 84 m 1
 208.667 94 282 100.333 408 103 c 0
 483.333 105 557 104 629 100 c 1
 647.667 190.667 657 255.667 657 295 c 0
 657 385.667 627.333 454.667 568 502 c 0
 528 533.333 480.667 549 426 549 c 0
 351.333 549 286.667 520.333 232 463 c 0
 207.333 436.333 194.333 415.667 193 401 c 0
 190.333 352.333 189.667 277.667 191 177 c 0
 191.667 145.667 190.667 114.667 188 84 c 1
743 356 m 0
 743 290.333 722 205 680 100 c 1
 714.667 103.333 752.333 109.667 793 119 c 0
 812.333 123.667 820.667 121.333 818 112 c 0
 816.667 105.333 810.333 95.3333 799 82 c 0
 757.667 35.3333 713.667 7.33333 667 -2 c 0
 647 -6 622.667 -8 594 -8 c 1
 356 5 l 1
 247.333 7.66667 193 -6.33333 193 -37 c 1
 201 -404 l 1
 201.667 -505.333 199.667 -570.667 195 -600 c 0
 188.333 -641.333 144.333 -685 63 -731 c 1
 57.6667 -733 55 -731 55 -725 c 1
 77 -683.667 90.3333 -645 95 -609 c 0
 103.979 -530.435 103.979 -308.768 95 56 c 0
 89.6667 245.333 88 464.333 90 713 c 0
 91.3333 895.667 90 1039 86 1143 c 1
 82 1153 71 1162 53 1170 c 0
 42.3333 1174 37 1178.67 37 1184 c 0
 37 1194.67 46.6667 1212 66 1236 c 0
 86.6667 1261.33 105.667 1274 123 1274 c 0
 153 1274 173.333 1246.33 184 1191 c 0
 187.333 1175 189.333 1157 190 1137 c 1
 190 471 l 1
 302.667 587 406.667 645 502 645 c 0
 608.667 645 680.667 598.333 718 505 c 0
 734.667 462.333 743 412.667 743 356 c 0
EndSplineSet
Validated: 33
EndChar

StartChar: calmaX
Encoding: 57370 57370 42
Width: 806
VWidth: 1000
Flags: HW
LayerCount: 2
Fore
SplineSet
625 254 m 1
 581 178 550.333 128.333 533 105 c 0
 467.667 18.3333 392.333 -25 307 -25 c 0
 222.333 -25 154 9.66667 102 79 c 0
 58.6667 136.333 37 203 37 279 c 0
 37 374.333 71 460.667 139 538 c 0
 159.667 562 182.333 582.667 207 600 c 0
 257.667 634.667 293.667 653 315 655 c 1
 329 655 350.667 646.667 380 630 c 0
 410.667 612 426 594.667 426 578 c 0
 426 560.667 408.333 538 373 510 c 0
 360.333 500.667 352.667 496 350 496 c 0
 346 496 334.333 504.333 315 521 c 0
 288.333 545 264 557 242 557 c 0
 200.667 557 168.667 527.667 146 469 c 0
 130.667 430.333 123 387.333 123 340 c 0
 123 254 151.667 186.333 209 137 c 0
 252.333 99 305 80 367 80 c 0
 423 80 478.667 117.667 534 193 c 0
 580.667 256.333 611 322.333 625 391 c 1
 625 788.333 631 1024 643 1098 c 1
 650.333 1157.33 668.333 1204 697 1238 c 0
 715.667 1259.33 736.667 1270 760 1270 c 0
 780.667 1270 797.667 1251 811 1213 c 0
 816.333 1198.33 819 1186 819 1176 c 0
 819 1159.33 813.667 1150.33 803 1149 c 2
 788 1149 l 2
 749.333 1149 729 1056 727 870 c 1
 724.515 744.088 725.848 379.755 731 -223 c 0
 732.333 -387.667 726.667 -500 714 -560 c 0
 702 -615.333 682.333 -650.667 655 -666 c 1
 635.667 -680.667 613.333 -693 588 -703 c 0
 572.667 -708.333 563.667 -709 561 -705 c 0
 556.333 -699 561 -686 575 -666 c 1
 609 -624.667 627.667 -555.667 631 -459 c 1
 635 -292 l 1
 635 -287 l 2
 637 -252.333 636.333 -200 633 -130 c 0
 627.667 -36.6667 625 91.3333 625 254 c 1
EndSplineSet
Validated: 33
EndChar

StartChar: quesseX
Encoding: 57371 57371 43
Width: 806
VWidth: 1000
Flags: HW
LayerCount: 2
Fore
SplineSet
37 281 m 0
 37 393 71.6667 470.667 141 514 c 1
 99.6667 512 63 506 31 496 c 1
 -4.33333 486.667 -6.33333 499.667 25 535 c 0
 73 589 122 616 172 616 c 0
 200.667 616.667 268.667 615.333 376 612 c 0
 453.333 609.333 535.667 613 623 623 c 1
 627 648.333 630 728.667 632 864 c 0
 633.333 947.333 635.667 1024 639 1094 c 0
 640.333 1142 654.667 1185 682 1223 c 0
 704.667 1254.33 730.667 1270 760 1270 c 0
 780.667 1270 797.667 1251 811 1213 c 0
 816.333 1198.33 819 1186 819 1176 c 0
 819 1159.33 813.667 1150.33 803 1149 c 2
 788 1149 l 2
 749.333 1149 729 1056 727 870 c 0
 723.189 620.724 724.522 256.391 731 -223 c 0
 732.333 -387.667 726.667 -500 714 -560 c 0
 702 -615.333 682.333 -650.667 655 -666 c 1
 635.667 -680.667 613.333 -693 588 -703 c 0
 572.667 -708.333 563.667 -709 561 -705 c 0
 556.333 -699 561 -686 575 -666 c 1
 609 -626 627.667 -555.667 631 -455 c 1
 635 -293 l 1
 635 -287 l 0
 637 -252.333 636.333 -200 633 -130 c 0
 627.667 -36.6667 625 91.3333 625 254 c 1
 583.667 172 553.333 117.333 534 90 c 0
 476.667 9.33334 406 -31 322 -31 c 0
 237.333 -31 167 3.66667 111 73 c 0
 61.6667 133.667 37 203 37 281 c 0
195 514 m 1
 144.333 480.222 119 422.222 119 340 c 0
 119 266.667 142.667 204.667 190 154 c 0
 236 104.667 295 80 367 80 c 0
 429.667 80 486.333 116.667 537 190 c 0
 594.333 272.126 623 363.126 623 463 c 0
 623 481.667 621.333 502 618 524 c 1
 502.667 507.333 361.667 504 195 514 c 1
EndSplineSet
Validated: 33
EndChar

StartChar: andoX
Encoding: 57372 57372 44
Width: 1232
VWidth: 1000
Flags: HW
LayerCount: 2
Fore
SplineSet
190 471 m 1
 295.455 587 395.121 645 489 645 c 0
 552.333 645 603.333 624 642 582 c 0
 656.667 566 674 542.667 694 512 c 1
 731.333 550.667 778.667 584 836 612 c 0
 882.667 634 925 645 963 645 c 0
 1051 645 1115.67 606.333 1157 529 c 0
 1183 481.667 1196 425.333 1196 360 c 0
 1196 284.667 1177.33 208.667 1140 132 c 0
 1086.47 23.3333 1019.13 -31.0001 938 -31 c 0
 898.667 -31 862.333 -16 829 14 c 0
 813 29.3333 805 41.6667 805 51 c 0
 805 59 818.333 73.3333 845 94 c 0
 865 109.333 879.667 117 889 117 c 0
 893 117 903.333 109 920 93 c 0
 946 67.6667 971 55 995 55 c 0
 1039.67 55 1072.33 87.3333 1093 152 c 0
 1104.33 189.333 1110 231.667 1110 279 c 0
 1110 382.333 1080.33 458 1021 506 c 0
 985 534.667 941 549 889 549 c 0
 832.333 549 786 533.667 750 503 c 0
 738 493 725 479.667 711 463 c 1
 716.333 428.333 719 392.667 719 356 c 0
 719 269.333 698.333 188 657 112 c 0
 606.059 16.6667 540.725 -31 461 -31 c 0
 422.333 -31 386.667 -15 354 17 c 0
 339.333 31.6667 332 43 332 51 c 0
 332 57.6667 345.333 71.3333 372 92 c 0
 393.333 108.667 408.667 117 418 117 c 0
 422 117 431 109.333 445 94 c 0
 469 68 494 55 520 55 c 0
 557.333 55 588 80 612 130 c 0
 630 168.667 639 213.333 639 264 c 0
 639 365.333 611.667 442 557 494 c 0
 517.667 530.667 468.667 549 410 549 c 0
 352.667 549 298 525 246 477 c 0
 213.333 447.667 195.667 422.333 193 401 c 1
 187 334.333 186 221.667 190 63 c 2
 199 -289 l 2
 203 -451.667 201.667 -555.333 195 -600 c 0
 188.333 -641.333 144.333 -685 63 -731 c 1
 57.6667 -733 55 -731 55 -725 c 1
 77 -683.667 90.3333 -645 95 -609 c 0
 103.979 -530.435 103.979 -308.768 95 56 c 0
 89.6667 245.333 88 464.333 90 713 c 0
 92 989.667 90.6667 1133 86 1143 c 0
 82 1153 71 1162 53 1170 c 0
 42.3333 1174 37 1178.67 37 1184 c 0
 37 1194.67 46.6667 1212 66 1236 c 0
 86.6667 1261.33 105.667 1274 123 1274 c 0
 162.447 1274 184.781 1228.33 190 1137 c 1
 192.667 1063 192.667 841 190 471 c 1
EndSplineSet
Validated: 33
EndChar

StartChar: umbarX
Encoding: 57373 57373 45
Width: 1232
VWidth: 1000
Flags: HW
LayerCount: 2
Fore
SplineSet
188 471 m 1
 300.667 587 401 645 489 645 c 0
 552.333 645 603.333 624 642 582 c 0
 656.667 566 674 542.667 694 512 c 1
 731.333 550.667 778.667 584 836 612 c 0
 882.667 634 925 645 963 645 c 0
 1061.67 645 1129.67 599.667 1167 509 c 0
 1185 464.333 1194 412 1194 352 c 0
 1194 290.319 1167.33 204.985 1114 96 c 1
 1141.33 99.3333 1179 105 1227 113 c 0
 1253 117 1266 114.333 1266 105 c 0
 1266 100.333 1262.33 93.3333 1255 84 c 0
 1215 36.6667 1147.33 3.66667 1052 -15 c 0
 1012.67 -23 972.667 -27 932 -27 c 0
 901.333 -27 814.333 -21.6667 671 -11 c 0
 592.333 -5 525.667 -2 471 -2 c 0
 305 -2 212.667 -13.6667 194 -37 c 0
 190.667 -40.3333 189.333 -44.3333 190 -49 c 0
 195.333 -123 198.667 -247.333 200 -422 c 0
 200 -513.333 198.333 -572.667 195 -600 c 0
 188.333 -642 143.667 -685.667 61 -731 c 0
 57 -733 55 -731 55 -725 c 1
 77 -682.333 90 -643 94 -607 c 0
 102.027 -526.729 101.694 -302.396 93 66 c 0
 89 252 88 467.667 90 713 c 0
 92 989.667 90.6667 1133 86 1143 c 0
 82 1153 71 1162 53 1170 c 0
 42.3333 1174 37 1178.67 37 1184 c 0
 37 1194.67 46.6667 1212 66 1236 c 0
 86.6667 1261.33 105.667 1274 123 1274 c 0
 158.219 1274 180.552 1228.33 190 1137 c 0
 192.667 1111.67 192.667 1026 190 880 c 0
 188 747.333 187.333 611 188 471 c 1
719 352 m 0
 719 288.727 698.333 200.727 657 88 c 1
 715.667 82.6667 781.333 80 854 80 c 0
 930 80 1004.33 84 1077 92 c 1
 1097.67 170 1108 237 1108 293 c 0
 1108 383.667 1082 452.333 1030 499 c 0
 993.333 532.333 947 549 891 549 c 0
 833.667 549 787.667 534.667 753 506 c 0
 740.333 495.333 726.333 481 711 463 c 1
 716.333 425 719 388 719 352 c 0
188 70 m 1
 291.333 104.667 430 114.667 604 100 c 1
 626 155.333 637 214 637 276 c 0
 637 370.667 610.333 443.333 557 494 c 0
 517.667 530.667 468.667 549 410 549 c 0
 352 549 297 524.333 245 475 c 0
 214.333 447 197 422.333 193 401 c 1
 187 335.667 186 259.333 190 172 c 0
 192 133.333 191.333 99.3333 188 70 c 1
EndSplineSet
Validated: 33
EndChar

StartChar: angaX
Encoding: 57374 57374 46
Width: 1232
VWidth: 1000
Flags: HW
LayerCount: 2
Fore
SplineSet
508 190 m 1
 501.542 210.047 498.209 233.38 498 260 c 0
 498 346.667 526.333 432.333 583 517 c 0
 627.667 585 675 628.333 725 647 c 0
 738.333 652.333 751.333 655 764 655 c 0
 788.667 655 815 643 843 619 c 0
 862.333 603 872 588.333 872 575 c 0
 872 561 856.333 540.667 825 514 c 0
 811 502 801.667 496 797 496 c 128
 792.333 496 780 505 760 523 c 0
 734 547 712 559 694 559 c 0
 664 559 637.667 533.667 615 483 c 0
 594.333 437.667 584 388.667 584 336 c 0
 584 244.667 612.667 175.333 670 128 c 0
 708.667 96 756.333 80 813 80 c 0
 881.667 80 943 130.333 997 231 c 0
 1023.67 280.333 1044.33 333.667 1059 391 c 1
 1053.19 750.248 1057.85 985.915 1073 1098 c 1
 1080.33 1160.67 1098.67 1208.33 1128 1241 c 0
 1146 1260.33 1166 1270 1188 1270 c 0
 1208.67 1270 1225.67 1251 1239 1213 c 0
 1244.33 1198.33 1247 1186 1247 1176 c 0
 1247 1159.33 1241.67 1150.33 1231 1149 c 2
 1217 1149 l 2
 1177.67 1149 1157 1056 1155 870 c 0
 1154.33 720 1156.67 382 1162 -144 c 0
 1162.67 -170.667 1163 -197 1163 -223 c 0
 1167 -389.667 1160.67 -505 1144 -569 c 0
 1131.33 -618.333 1112.33 -650.667 1087 -666 c 1
 1067 -681.333 1044.33 -693.667 1019 -703 c 0
 1005 -708.333 996.333 -709 993 -705 c 0
 987.667 -699 992.667 -686 1008 -666 c 1
 1042 -624 1060.33 -555.333 1063 -460 c 1
 1063.26 -400.998 1064.59 -343.331 1067 -287 c 0
 1069 -255 1068 -200 1064 -122 c 0
 1059.33 -24 1057 101.333 1057 254 c 1
 1008.33 158.667 960.667 89.6667 914 47 c 0
 861.333 -1 805 -25 745 -25 c 0
 657 -25 588.333 25.6667 539 127 c 1
 489.667 69 450.667 30.6667 422 12 c 0
 383.333 -14 337.667 -27 285 -27 c 0
 219 -27 161.667 5.33333 113 70 c 0
 65.6667 133.333 41.6667 205.667 41 287 c 0
 41 361 65.6667 435.333 115 510 c 0
 141 550 168.333 580 197 600 c 1
 246.867 636.667 282.867 655 305 655 c 0
 320.333 655 342.333 646.667 371 630 c 0
 401 612 416 594.667 416 578 c 0
 416 562 399.333 540.333 366 513 c 0
 352.667 501.667 344 496 340 496 c 128
 336 496 324.333 504.667 305 522 c 0
 277.667 546.667 253 559 231 559 c 0
 191 559 161 523.667 141 453 c 0
 130.333 414.333 125 374.667 125 334 c 0
 125 248 151.667 181.333 205 134 c 0
 245.667 98 296 80 356 80 c 0
 406 80 449 102.333 485 147 c 0
 500.333 166.333 508 180.667 508 190 c 1
EndSplineSet
Validated: 33
EndChar

StartChar: ungweX
Encoding: 57375 57375 47
Width: 1232
VWidth: 1000
Flags: HW
LayerCount: 2
Fore
SplineSet
1061 254 m 1
 1023.67 176.667 998.667 127.667 986 107 c 0
 929.807 17.6667 856.473 -27 766 -27 c 0
 680 -27 615 4.66667 571 68 c 0
 558.333 86 548.333 105.667 541 127 c 1
 496.333 65 453.333 23 412 1 c 0
 378.667 -16.3333 341.667 -25 301 -25 c 0
 215.667 -25 148.667 11 100 83 c 0
 64.6667 136.333 47 198 47 268 c 0
 47 339.333 71.6667 420.667 121 512 c 1
 101 508 73.6667 504 39 500 c 1
 9.66667 494.667 -2.66667 499 2 513 c 0
 2.66667 515 4 517.333 6 520 c 0
 28.6667 553.333 76.6667 583 150 609 c 0
 214 631.667 277.333 643 340 643 c 0
 372 643 462.667 637.667 612 627 c 0
 694 621 763.667 618 821 618 c 0
 908.333 618 988.333 624.333 1061 637 c 1
 1061 807.667 1064.33 961.333 1071 1098 c 0
 1074.33 1148.67 1089 1191.67 1115 1227 c 0
 1135 1255.67 1158.67 1270 1186 1270 c 0
 1206.67 1270 1223.67 1251 1237 1213 c 0
 1242.33 1198.33 1245 1186 1245 1176 c 0
 1245 1159.33 1239.67 1150.33 1229 1149 c 2
 1214 1149 l 2
 1175.33 1149 1155 1056 1153 870 c 1
 1165 -223 l 1
 1169 -397 1162 -516 1144 -580 c 0
 1132 -622.667 1114.67 -651.333 1092 -666 c 1
 1036 -698 l 1
 1013.33 -708.667 999.667 -711 995 -705 c 1
 991 -697.667 996 -684.667 1010 -666 c 0
 1044 -622.667 1062.67 -549.667 1066 -447 c 0
 1070.11 -347.453 1070.77 -241.787 1068 -130 c 1
 1063.33 -32.6667 1061 95.3333 1061 254 c 1
502 260 m 0
 502 351.487 530 438.154 586 520 c 1
 456 540 316 540 166 520 c 1
 142.667 419.333 130.333 352.333 129 319 c 1
 129 241.667 154.667 180 206 134 c 0
 246.667 98 297.333 80 358 80 c 0
 408 80 451 102.333 487 147 c 0
 502.333 166.333 510 180.667 510 190 c 1
 505.212 210.883 502.545 234.216 502 260 c 0
1061 532 m 1
 969 506.667 827 500 635 512 c 1
 603.667 425.333 588 358.333 588 311 c 0
 588 235.667 613.667 176 665 132 c 0
 705.667 97.3333 755.667 80 815 80 c 0
 882.333 80 943 129 997 227 c 0
 1025.67 279 1047 333.667 1061 391 c 1
 1061 532 l 1
EndSplineSet
Validated: 33
EndChar

StartChar: roomen
Encoding: 57376 57376 48
Width: 806
VWidth: 1000
Flags: HW
LayerCount: 2
Fore
SplineSet
477 102 m 1
 593 271.686 651 392.019 651 463 c 0
 651 506.333 629 534.333 585 547 c 0
 571.667 551 557 553 541 553 c 0
 509 553 475.667 540 441 514 c 0
 424.333 500.667 412.667 494 406 494 c 0
 396.667 494 391 498 389 506 c 1
 389 512 400.667 526.667 424 550 c 0
 481.333 609.333 542 639 606 639 c 0
 676 639 718.667 614.667 734 566 c 0
 738.667 549.333 741 529.333 741 506 c 0
 739.667 449.333 684.333 338.333 575 173 c 1
 384 -112 l 1
 322 -208.667 291 -273 291 -305 c 0
 291 -367 318.667 -419 374 -461 c 0
 417.333 -493.667 463.333 -510 512 -510 c 0
 547.333 -510 586.333 -497.667 629 -473 c 0
 638.333 -467.667 644.333 -465 647 -465 c 128
 649.667 -465 651 -467 651 -471 c 0
 651 -482.333 635.667 -505.667 605 -541 c 0
 555.667 -597 513 -625 477 -625 c 0
 424.333 -625 372.333 -607.333 321 -572 c 0
 245 -519.333 207 -447.333 207 -356 c 0
 207 -306 227.333 -252 268 -194 c 1
 389 -31 l 1
 354.333 71.6667 310 178 256 288 c 0
 180 442.667 119.333 520 74 520 c 0
 61.3333 520 40 511 10 493 c 0
 -6.66667 482.333 -19 477 -27 477 c 0
 -38.3333 477 -44.3333 482 -45 492 c 0
 -45 501.333 -17.6667 527 37 569 c 0
 96.3333 614.333 134 637 150 637 c 0
 183.333 637 260.667 519.667 382 285 c 0
 442.667 167.667 474.333 106.667 477 102 c 1
EndSplineSet
Validated: 1
EndChar

StartChar: arda
Encoding: 57377 57377 49
Width: 804
VWidth: 1000
Flags: HW
LayerCount: 2
Fore
SplineSet
279 213 m 1
 182.352 417.667 112.685 520 70 520 c 0
 57.3333 520 36 511 6 493 c 0
 -10.6667 482.333 -23 477 -31 477 c 0
 -41 477 -47.6667 482 -51 492 c 1
 -51 500.667 -24 525.667 30 567 c 0
 90 613.667 128.333 637 145 637 c 0
 186.667 637 296.667 458.667 475 102 c 1
 521 170 549 212.667 559 230 c 0
 620.333 330.667 651 408.333 651 463 c 0
 651 523 613 553 537 553 c 0
 504.333 553 471 540 437 514 c 0
 421 502 409.667 496 403 496 c 0
 392.333 496 387 500 387 508 c 0
 387 514.667 399 530 423 554 c 0
 480.333 610.667 540.667 639 604 639 c 0
 678.667 639 722.333 611.333 735 556 c 0
 737.667 543.333 739 528.667 739 512 c 0
 739 453.333 685 343 577 181 c 1
 381 -108 l 1
 318.333 -206 287 -271.667 287 -305 c 0
 287 -363 313.333 -413.333 366 -456 c 0
 410 -492 457.333 -510 508 -510 c 0
 544.667 -510 584.333 -497.667 627 -473 c 0
 636.333 -467.667 642.333 -465 645 -465 c 128
 647.667 -465 649 -467 649 -471 c 0
 649 -482.333 633.667 -505.667 603 -541 c 0
 553.667 -597 511 -625 475 -625 c 0
 418.333 -625 364 -605.667 312 -567 c 0
 239.333 -513.667 203 -442.667 203 -354 c 0
 203 -308 222.667 -255 262 -195 c 2
 385 -27 l 1
 377.667 -2.33333 347.667 64 295 172 c 1
 244.333 113.333 212.667 75.6667 200 59 c 0
 158 -0.333332 137 -56.3333 137 -109 c 1
 145 -184 l 1
 145 -210 129 -229.667 97 -243 c 0
 85 -247.667 73.6667 -250 63 -250 c 0
 49.6667 -250 43 -243 43 -229 c 0
 43 -153 62.3333 -83 101 -19 c 0
 125.167 20.1667 184.5 97.5 279 213 c 1
EndSplineSet
Validated: 1
EndChar

StartChar: lambe
Encoding: 57378 57378 50
Width: 1232
VWidth: 1000
Flags: HW
LayerCount: 2
Fore
SplineSet
872 481 m 1
 723.555 481 607.555 496.667 524 528 c 1
 365 387 l 1
 287.667 314.333 236.667 246.333 212 183 c 0
 196 140.333 188 94.3333 188 45 c 0
 188 -73.6667 221 -164.667 287 -228 c 0
 307.667 -248.667 333.667 -268.333 365 -287 c 0
 422.333 -322.333 509.333 -347 626 -361 c 0
 669.333 -366.333 710.667 -369 750 -369 c 0
 866.667 -369 948.667 -344 996 -294 c 0
 1021.33 -266.667 1034 -233.667 1034 -195 c 0
 1034 -172.333 1025 -152.667 1007 -136 c 0
 1000.33 -130.667 997 -126.333 997 -123 c 0
 997 -111.667 1012 -96.6667 1042 -78 c 0
 1059.33 -66.6667 1071.67 -61 1079 -61 c 0
 1098.33 -61 1108 -91.3333 1108 -152 c 0
 1108 -225.333 1069.67 -292.667 993 -354 c 1
 906.333 -426.667 792.333 -465 651 -469 c 0
 629 -469 l 0
 438.333 -469 292.667 -409 192 -289 c 0
 121.333 -204.985 86 -115.319 86 -20 c 0
 86 90 127.333 191.667 210 285 c 0
 232 309.667 277.333 353.333 346 416 c 0
 402 467.333 441 509.667 463 543 c 1
 429 552.333 379.667 557 315 557 c 0
 217.667 557 147.333 540 104 506 c 1
 95.3333 493.333 90 494.667 88 510 c 1
 80.6667 539.333 111.333 578.333 180 627 c 1
 208.667 645.667 252.333 655 311 655 c 0
 368.333 655 476 641.667 634 615 c 0
 791.333 588.333 904.333 575 973 575 c 0
 1060.33 575 1131.33 591.667 1186 625 c 0
 1200.67 633.667 1208 631.333 1208 618 c 1
 1210 598 1191 575.333 1151 550 c 1
 1074.33 505.333 981.333 482.333 872 481 c 1
EndSplineSet
Validated: 33
EndChar

StartChar: alda
Encoding: 57379 57379 51
Width: 1232
VWidth: 1000
Flags: HW
LayerCount: 2
Fore
SplineSet
522 -8 m 0
 339.333 -8 248 60.3333 248 197 c 0
 248 279.667 317 373 455 477 c 2
 520 524 l 1
 445.333 543.333 390 553.667 354 555 c 0
 336 555 l 0
 234 555 163 538 123 504 c 1
 96 477 l 1
 91.3333 477 88 481 86 489 c 1
 86 496 l 2
 86 516.667 113.333 549 168 593 c 0
 180.667 602.333 188 608 190 610 c 0
 234.667 642.667 299 659 383 659 c 0
 431.667 659 501.667 649 593 629 c 0
 711 603.667 816 590 908 588 c 0
 934 588 l 0
 1048.67 588 1127.67 606.333 1171 643 c 0
 1177 648.333 1182.67 651 1188 651 c 0
 1191.33 651 1194 647.667 1196 641 c 1
 1196 637 l 2
 1196 618.143 1174 596.143 1130 571 c 1
 1038.8 515 925.8 487 791 487 c 0
 699.667 487 628.667 492 578 502 c 1
 527.333 476 492.333 456.333 473 443 c 0
 387 383 344 315.333 344 240 c 0
 344 169.333 370 122.667 422 100 c 0
 457.333 84 514 76 592 76 c 0
 619.333 76 685.667 82.3333 791 95 c 0
 844.333 101 887.333 104 920 104 c 0
 1007.33 104 1060.33 77 1079 23 c 0
 1084.33 6.33333 1087 -13 1087 -35 c 0
 1087 -91.4447 1055 -153.445 991 -221 c 1
 867 -361.667 714 -432 532 -432 c 0
 463.333 -432 398.667 -420 338 -396 c 0
 276.667 -371.333 246 -340.333 246 -303 c 0
 246 -283.667 263.333 -255.333 298 -218 c 0
 322 -192.667 338.667 -180 348 -180 c 0
 352 -180 354 -182.667 354 -188 c 1
 344 -242 l 1
 344 -244 l 1
 344 -298 402.333 -330.667 519 -342 c 0
 544.333 -344.667 570.667 -346 598 -346 c 0
 744 -346 842.333 -320.667 893 -270 c 0
 951.667 -211.333 981 -149.333 981 -84 c 0
 981 -37.3333 968 -8 942 4 c 0
 926.667 10.6667 900.667 14 864 14 c 0
 842 14 772.667 9 656 -1 c 0
 602 -5.66667 557.333 -8 522 -8 c 0
EndSplineSet
Validated: 1
EndChar

StartChar: silme
Encoding: 57380 57380 52
Width: 806
VWidth: 1000
Flags: HW
LayerCount: 2
Fore
SplineSet
737 401 m 0
 737 340.333 710.333 270 657 190 c 0
 599.667 102.667 533 39.6667 457 1 c 0
 414.333 -20.3333 372.667 -31 332 -31 c 0
 251.333 -31 184 -1.33333 130 58 c 0
 82.6667 111.333 59 174 59 246 c 0
 59 389.333 164 630.333 374 969 c 2
 504 1169 l 1
 555.333 1248.33 592.667 1288 616 1288 c 0
 620.667 1288 623 1285.33 623 1280 c 0
 623 1278 591 1228.67 527 1132 c 0
 265.667 735.333 135 459.667 135 305 c 0
 135 240.333 160 185.667 210 141 c 0
 254 101.667 305.667 82 365 82 c 0
 425 82 483.667 102 541 142 c 0
 610.333 190 647 249 651 319 c 2
 651 330 l 2
 651 382.667 626.333 419.667 577 441 c 2
 535 459 l 1
 530.333 462.333 528 465.667 528 469 c 0
 528 479 540 495.333 564 518 c 0
 588 540 607.667 551 623 551 c 0
 643.667 551 666 539 690 515 c 0
 721.333 484.333 737 446.333 737 401 c 0
EndSplineSet
Validated: 1
EndChar

StartChar: silme.alt
Encoding: 65575 -1 53
Width: 806
VWidth: 1000
Flags: HW
LayerCount: 2
Fore
SplineSet
705 297 m 0
 705 252.333 682 197.667 636 133 c 0
 582 57 521 5 453 -23 c 0
 423.667 -35 395 -41 367 -41 c 0
 269.667 -41 193.333 10 138 112 c 0
 91.3333 197.333 68 300 68 420 c 0
 68 569.333 91 690 137 782 c 1
 173.667 860 226.667 933 296 1001 c 0
 391.333 1094.33 484.333 1141 575 1141 c 0
 631.667 1141 673.667 1112.67 701 1056 c 0
 714.333 1028.67 721 1001 721 973 c 0
 721 942.333 703.333 916.667 668 896 c 0
 660.667 891.333 655.667 889 653 889 c 0
 648.333 889 643.333 900 638 922 c 0
 626.667 970.667 608.333 1004 583 1022 c 0
 560.333 1038.67 530.667 1047 494 1047 c 0
 448.667 1047 402.667 1028.33 356 991 c 1
 258 918.333 197.333 788.667 174 602 c 0
 167.333 552 164 499.333 164 444 c 0
 164 273.333 205.333 157.333 288 96 c 0
 326.667 67.3333 373.333 53 428 53 c 0
 489.333 53 542.333 80 587 134 c 0
 617.667 170 633 203 633 233 c 0
 633 253 619.333 266.333 592 273 c 0
 567.333 278.333 553.667 282 551 284 c 0
 547 286.667 545 290.333 545 295 c 0
 545 311.667 561.333 338 594 374 c 0
 617.333 399.333 633.667 412 643 412 c 1
 684.333 382 705 343.667 705 297 c 0
EndSplineSet
Validated: 1
EndChar

StartChar: silme_aha
Encoding: 65576 -1 54
Width: 1232
VWidth: 1000
Flags: HW
LayerCount: 2
Fore
SplineSet
1057 254 m 1
 1008.33 158.667 960.667 89.6667 914 47 c 0
 861.333 -1 805 -25 745 -25 c 0
 657 -25 588.333 25.6667 539 127 c 1
 489.667 69 450.667 30.6667 422 12 c 0
 383.333 -14 337.667 -27 285 -27 c 0
 219 -27 161.667 5.33333 113 70 c 0
 65.6667 133.333 41.6667 205.667 41 287 c 0
 41 409 118 556.333 272 729 c 1
 437.027 911.1 630.361 1052.43 852 1153 c 1
 977.713 1211.67 1076.71 1241 1149 1241 c 0
 1185.67 1241 1209.33 1234.67 1220 1222 c 0
 1222 1219.33 1223 1216.67 1223 1214 c 0
 1223 1210 1216 1203.33 1202 1194 c 0
 1172.67 1175.33 1157 1067.33 1155 870 c 0
 1154.33 700.667 1156.67 471.667 1162 183 c 0
 1162.67 161 1163 140.333 1163 121 c 0
 1163 87 1175 50 1199 10 c 0
 1213.37 -13.9393 1217.7 -31.606 1212 -43 c 0
 1204.67 -56.3333 1181.67 -46.6667 1143 -14 c 0
 1103 19.3333 1078 62 1068 114 c 0
 1064 138.667 1060.33 185.333 1057 254 c 1
508 190 m 1
 501.542 210.047 498.209 233.38 498 260 c 0
 498 346.667 526.333 432.333 583 517 c 0
 627.667 585 675 628.333 725 647 c 0
 738.333 652.333 751.333 655 764 655 c 0
 788.667 655 815 643 843 619 c 0
 862.333 603 872 588.333 872 575 c 0
 872 561 856.333 540.667 825 514 c 0
 811 502 801.667 496 797 496 c 128
 792.333 496 780 505 760 523 c 0
 734 547 712 559 694 559 c 0
 664 559 637.667 533.667 615 483 c 0
 594.333 437.667 584 388.667 584 336 c 0
 584 244.667 612.667 175.333 670 128 c 0
 708.667 96 756.333 80 813 80 c 0
 876.333 80 936.333 130.667 993 232 c 0
 1023.67 286 1045.67 339 1059 391 c 1
 1061.67 761 1063.67 967.333 1065 1010 c 0
 1067 1064 1069.67 1099.33 1073 1116 c 0
 1079.43 1143.53 1044.09 1144.87 967 1120 c 0
 791.667 1065.33 629.667 979.333 481 862 c 0
 403 800.667 337.667 736.667 285 670 c 0
 233.667 605.333 201 561.667 187 539 c 0
 145.667 473 125 407.333 125 342 c 0
 125 244 154.667 171.667 214 125 c 0
 252.667 95 300 80 356 80 c 0
 406 80 449 102.333 485 147 c 0
 500.333 166.333 508 180.667 508 190 c 1
EndSplineSet
Validated: 33
EndChar

StartChar: silmeN
Encoding: 57381 57381 55
Width: 806
VWidth: 1000
Flags: HW
LayerCount: 2
Fore
SplineSet
59 246 m 0
 59 309.333 86.3333 380.667 141 460 c 0
 199.667 546.667 268.333 608.333 347 645 c 0
 389.667 665.667 431.667 676 473 676 c 0
 551.667 676 616 649.667 666 597 c 0
 713.333 547 737 481 737 399 c 0
 737 260.333 638.667 29.3333 442 -294 c 0
 314.875 -502.973 234.208 -616.306 200 -634 c 0
 194.667 -637.333 189.333 -639 184 -639 c 128
 178.667 -639 176 -637 176 -633 c 0
 176 -629.667 208 -579.333 272 -482 c 1
 528 -88 658 186.667 662 342 c 1
 662 410.667 635.333 467 582 511 c 0
 538 547 487.333 565 430 565 c 0
 350 565 281.333 536.333 224 479 c 0
 173.333 429 147.667 373 147 311 c 0
 147 267.667 170.667 234.667 218 212 c 2
 263 191 l 1
 267.667 187 270 183.333 270 180 c 0
 270 168 257.333 150.667 232 128 c 0
 210 108 191.333 98 176 98 c 0
 157.333 98 135.667 109 111 131 c 0
 76.3333 161.667 59 200 59 246 c 0
EndSplineSet
Validated: 1
EndChar

StartChar: silmeN.alt
Encoding: 65578 -1 56
Width: 806
VWidth: 1000
Flags: HW
LayerCount: 2
Fore
SplineSet
92 283 m 0
 92 329 115.333 385 162 451 c 0
 216 526.333 276 577.667 342 605 c 0
 370 617 397.333 623 424 623 c 0
 530 623 610.667 568 666 458 c 0
 708 375.333 729 277.333 729 164 c 0
 729 21.1667 706.667 -100.5 662 -201 c 1
 622 -283.667 565 -359.667 491 -429 c 0
 398.333 -517 310.333 -561 227 -561 c 0
 175 -561 134.333 -539 105 -495 c 0
 85.6667 -465.667 76 -431.667 76 -393 c 0
 76 -359 94 -332.667 130 -314 c 0
 136.667 -310.667 141 -309 143 -309 c 0
 148.333 -309 153.667 -319.667 159 -341 c 0
 171 -387.667 189 -420 213 -438 c 0
 236.333 -456 267.667 -465 307 -465 c 0
 344.333 -465 388.667 -446.667 440 -410 c 1
 567.333 -314.903 631 -131.903 631 139 c 0
 631 381.667 553.333 510.333 398 525 c 0
 388 525.667 377.667 526 367 526 c 0
 304.333 526 250.333 497.333 205 440 c 0
 177.667 404.667 164 374 164 348 c 0
 164 327.333 178 314 206 308 c 0
 230.667 302.667 244.667 299 248 297 c 0
 252 293.667 254 289.667 254 285 c 0
 254 268.333 237 242.333 203 207 c 0
 179.667 182.333 163.333 170 154 170 c 0
 143.333 170 130.667 181.667 116 205 c 0
 100 230.333 92 256.333 92 283 c 0
EndSplineSet
Validated: 1
EndChar

StartChar: esse
Encoding: 57382 57382 57
Width: 806
VWidth: 1000
Flags: HW
LayerCount: 2
Fore
SplineSet
600 422 m 1
 565 412 l 1
 550.333 412 550.333 426 565 454 c 0
 581.667 484.667 601 506.667 623 520 c 0
 630.333 524 637 526 643 526 c 0
 673.667 526 698 509.333 716 476 c 0
 727.333 456 733 434 733 410 c 0
 733 332 701.667 250.333 639 165 c 0
 581 86.3333 516.667 31.6667 446 1 c 0
 414.667 -13 384.667 -20 356 -20 c 0
 318.667 -20 284 -13.3333 252 0 c 1
 208 -58 186 -120 186 -186 c 0
 186 -260 212 -320 264 -366 c 0
 308.667 -404.667 364 -424 430 -424 c 128
 496 -424 558 -403 616 -361 c 0
 666.667 -324.333 692.667 -286 694 -246 c 0
 694 -232.667 684 -221.333 664 -212 c 0
 645.333 -202.667 634.667 -195 632 -189 c 0
 631.333 -187 631 -184.667 631 -182 c 0
 631 -167.333 637.333 -148 650 -124 c 0
 664 -97.3333 680 -84 698 -84 c 0
 734 -84 752 -115.333 752 -178 c 0
 752 -231.333 724.667 -291.667 670 -359 c 0
 611.333 -432.333 544.667 -482.667 470 -510 c 0
 438 -522 407 -528 377 -528 c 0
 297.667 -528 230.333 -502.333 175 -451 c 0
 122.333 -401.667 96 -341.333 96 -270 c 0
 96 -221.867 129 -125.2 195 20 c 1
 117.667 67.3333 70.3333 119.667 53 177 c 0
 46.3333 199 43 222.667 43 248 c 0
 43 398.667 139.333 610.333 332 883 c 0
 395.333 971.667 460 1055 526 1133 c 0
 603.586 1223 649.586 1268 664 1268 c 0
 669.333 1268 672 1265.33 672 1260 c 0
 672 1246.67 641 1202.33 579 1127 c 0
 469 992.333 390.667 891 344 823 c 0
 207.333 624.333 139 457.333 139 322 c 0
 139 234.667 173.333 169.667 242 127 c 0
 286 99.6667 337 86 395 86 c 0
 461 86 522.667 110 580 158 c 1
 634 210 662.667 263 666 317 c 1
 666 348.333 656.667 376 638 400 c 0
 626 414.667 613.333 422 600 422 c 1
EndSplineSet
Validated: 1
EndChar

StartChar: esse.alt
Encoding: 65580 -1 58
Width: 806
VWidth: 1000
Flags: HW
LayerCount: 2
Fore
SplineSet
106 207 m 0
 106 305.889 159.333 401.555 266 494 c 1
 208.667 498.667 162 523 126 567 c 0
 96.6667 602.333 82 644 82 692 c 0
 82 786 120.333 879.333 197 972 c 0
 262.333 1050.67 336.333 1106 419 1138 c 0
 457 1153.33 492.667 1161 526 1161 c 0
 588 1161 635 1141.33 667 1102 c 0
 686.333 1077.33 696 1048 696 1014 c 0
 696 988 686 959 666 927 c 0
 654 908.333 643.667 899 635 899 c 0
 629.667 899 625.333 908.667 622 928 c 0
 614.667 970.667 600 1001.33 578 1020 c 0
 548 1046 502 1059 440 1059 c 0
 363.333 1059 298.333 1023 245 951 c 1
 201.667 885.667 178.667 819.333 176 752 c 1
 176 683.333 199.333 634.667 246 606 c 0
 270 591.333 298 584 330 584 c 0
 363.333 584 402 599 446 629 c 0
 462 639.667 472.333 645 477 645 c 0
 481 645 483 643 483 639 c 0
 483 622.333 429.333 572 322 488 c 0
 317.333 484 313.667 481 311 479 c 0
 259 437.667 225.667 395 211 351 c 0
 203 327 199 300 199 270 c 0
 199 166 237.333 98 314 66 c 0
 343.333 53.3333 377.333 47 416 47 c 0
 474 47 526.667 63.3333 574 96 c 0
 614.667 124.667 635 157 635 193 c 0
 635 203.667 626 211 608 215 c 0
 587.333 220.333 575 226 571 232 c 0
 568.333 236 567 240.667 567 246 c 0
 567 261.333 577 281 597 305 c 0
 612.333 323 625.667 332 637 332 c 0
 659 332 675.667 316 687 284 c 0
 691.667 270.667 694 257.333 694 244 c 0
 694 190.667 671.667 137.333 627 84 c 0
 555.941 -0.666664 460.274 -43 340 -43 c 0
 254.667 -43 190.667 -11.3333 148 52 c 0
 120 94 106 145.667 106 207 c 0
EndSplineSet
Validated: 1
EndChar

StartChar: esseN
Encoding: 57383 57383 59
Width: 806
VWidth: 1000
Flags: HW
LayerCount: 2
Fore
SplineSet
125 412 m 0
 125 399.333 134.667 390.333 154 385 c 0
 181.333 377.313 195 366.979 195 354 c 0
 195 338 184.333 317.667 163 293 c 0
 148.333 276.333 135.667 268 125 268 c 0
 103.667 268 87.3333 282.667 76 312 c 0
 70.6667 326 68 340.667 68 356 c 0
 68 402.667 88 452 128 504 c 0
 199.311 598 295.977 645 418 645 c 0
 500.667 645 564 616 608 558 c 0
 639.333 517.333 655 468 655 410 c 0
 655 330.667 604.667 237 504 129 c 1
 592.667 125 656 92 694 30 c 0
 714.667 -4 725 -44 725 -90 c 0
 725 -190 693.333 -284.333 630 -373 c 0
 566 -462.333 486.667 -520 392 -546 c 0
 360.667 -554.667 329 -559 297 -559 c 0
 234.333 -559 188 -538.667 158 -498 c 0
 140 -474 131 -444.667 131 -410 c 0
 131 -378.667 144 -347.667 170 -317 c 0
 180 -305 187.667 -299 193 -299 c 0
 200.333 -299 205.667 -308.667 209 -328 c 0
 215 -366.667 225 -394.333 239 -411 c 0
 265.667 -443 313 -459 381 -459 c 0
 473 -459 541.333 -419.667 586 -341 c 0
 616 -289.667 631 -228 631 -156 c 0
 631 -78.6667 606 -23 556 11 c 0
 528.667 29.6667 496.333 39 459 39 c 0
 429.667 39 399.333 27 368 3 c 0
 346 -14.3333 329.667 -23 319 -23 c 0
 316.333 -23 314.333 -20.6667 313 -16 c 1
 313 -5.33333 360.667 42.3333 456 127 c 1
 527.333 184.067 563 253.733 563 336 c 0
 563 427.333 529.333 491 462 527 c 0
 429.333 544.333 392 553 350 553 c 0
 282.667 553 225 534.667 177 498 c 0
 142.333 471.333 125 442.667 125 412 c 0
EndSplineSet
Validated: 1
EndChar

StartChar: esseN.alt
Encoding: 65582 -1 60
Width: 806
VWidth: 1000
Flags: HW
LayerCount: 2
Fore
SplineSet
197 229 m 1
 233 240 l 1
 248.333 240 248 225.333 232 196 c 0
 215.333 164 196 141.667 174 129 c 0
 167.333 125 161.333 123 156 123 c 0
 126.667 123 102.333 138.667 83 170 c 0
 69.6667 191.333 63 215.333 63 242 c 0
 63 301.333 88 371.333 138 452 c 0
 192.667 539.333 255.333 601.667 326 639 c 0
 364.667 659.667 402.667 670 440 670 c 0
 482 670 517.667 663 547 649 c 1
 589 707.667 610 770.667 610 838 c 0
 610 916 582.667 977.333 528 1022 c 0
 484.667 1057.33 430.333 1075 365 1075 c 0
 296.333 1075 233 1052 175 1006 c 0
 129 970 105.333 933.667 104 897 c 0
 104 883 114.333 871.333 135 862 c 0
 157 851.407 168 841.074 168 831 c 0
 168 816.333 161.333 797.333 148 774 c 0
 132.667 748 116 735 98 735 c 0
 62.6667 735 45 766.333 45 829 c 0
 45 890.333 75.6667 955.333 137 1024 c 0
 197.667 1092.67 265 1139.33 339 1164 c 0
 367 1173.33 394 1178 420 1178 c 0
 498.667 1178 565.667 1152.33 621 1101 c 0
 673.667 1051.67 700 992 700 922 c 0
 700 875.333 677 799.667 631 695 c 0
 627.667 688.333 618 667 602 631 c 1
 703.333 567.874 754 491.874 754 403 c 0
 754 248.333 654.667 32.3333 456 -245 c 0
 397.333 -327.667 336 -406.333 272 -481 c 1
 196.4 -571 150.733 -616 135 -616 c 0
 129.667 -616 127 -613.333 127 -608 c 0
 127 -595.333 157.667 -551 219 -475 c 0
 329 -339.667 408 -237 456 -167 c 0
 590 29.6667 657 195.333 657 330 c 0
 657 418.667 621.667 484 551 526 c 0
 507.667 552 457.667 565 401 565 c 0
 335 565 273.667 541.333 217 494 c 1
 163 442 134.333 388.667 131 334 c 1
 131 302.667 140.333 275 159 251 c 0
 171 236.333 183.667 229 197 229 c 1
EndSplineSet
Validated: 1
EndChar

StartChar: hyarmen
Encoding: 57384 57384 61
Width: 806
VWidth: 1000
Flags: HW
LayerCount: 2
Fore
SplineSet
246 977 m 0
 278.667 977 334.333 895 413 731 c 1
 609 303 l 1
 676.333 163.667 724 94 752 94 c 0
 773.333 94 796.667 110.667 822 144 c 0
 842.571 170.667 856.571 184 864 184 c 0
 872.667 184 877 180 877 172 c 0
 877 160 863 133 835 91 c 0
 789 22.3333 749.667 -12 717 -12 c 0
 667 -12 597.333 88 508 288 c 1
 420 489 l 1
 235 113 l 1
 195 37 159.667 -9 129 -25 c 0
 117 -31.6667 104 -35 90 -35 c 0
 67.3333 -35 45.3333 -23.6667 24 -1 c 0
 9.33333 15 2 31 2 47 c 0
 2 72.3333 16.6667 102 46 136 c 0
 60 152 70 160 76 160 c 0
 79.3333 160 83 149.667 87 129 c 0
 94.3333 92.3333 108.333 74 129 74 c 0
 153 74 177.667 97.6667 203 145 c 0
 211 160.333 240.667 227.333 292 346 c 0
 324 419.333 355 486.333 385 547 c 1
 370.333 589 343.667 646.333 305 719 c 0
 253 817 213.333 866 186 866 c 0
 176.667 866 165 856 151 836 c 0
 139.667 820.667 131 813 125 813 c 1
 117.667 818.333 113.667 822.333 113 825 c 0
 113 839 130.667 867.333 166 910 c 0
 203.333 954.667 230 977 246 977 c 0
EndSplineSet
Validated: 1
EndChar

StartChar: hwestaS
Encoding: 57385 57385 62
Width: 806
VWidth: 1000
Flags: HW
LayerCount: 2
Fore
SplineSet
623 172 m 1
 592.333 94.6667 543 38.6667 475 4 c 0
 433.667 -17.3333 388.667 -27.6667 340 -27 c 0
 250 -27 179.333 9 128 81 c 0
 88 137 68 205 68 285 c 0
 68 367 95.6667 444.333 151 517 c 0
 219 607.667 297.667 653 387 653 c 0
 469.667 653 531.667 641.333 573 618 c 0
 590.333 608 606.333 595.333 621 580 c 1
 624 923 l 1
 629.661 1085.27 655.327 1191.27 701 1241 c 0
 719 1260.33 738.667 1270 760 1270 c 0
 780.667 1270 797.667 1251 811 1213 c 0
 816.333 1198.33 819 1186 819 1176 c 0
 819 1159.33 813.667 1150.33 803 1149 c 2
 788 1149 l 2
 750.667 1149 729 1055.33 723 868 c 1
 721.667 568.667 722.333 239 725 -121 c 1
 766.333 -111 803.333 -110.333 836 -119 c 0
 889.609 -132.167 954.275 -131.501 1030 -117 c 0
 1043.33 -115 1049.67 -117.667 1049 -125 c 0
 1049 -130.333 1045.33 -138.667 1038 -150 c 1
 1004 -220.667 947.333 -244.333 868 -221 c 0
 794.667 -198.333 724.333 -193 657 -205 c 1
 627 -207 614 -186.333 618 -143 c 1
 623 172 l 1
614 342 m 0
 614 428 578.333 490.667 507 530 c 0
 465 553.333 416.667 565 362 565 c 0
 274 565 211.667 529 175 457 c 0
 155 418.333 145 372.333 145 319 c 0
 145 225 175.667 157.333 237 116 c 0
 273 92 317 80 369 80 c 0
 436.333 80 494.333 107.333 543 162 c 0
 590.333 214 614 274 614 342 c 0
EndSplineSet
Validated: 33
EndChar

StartChar: yanta
Encoding: 57386 57386 63
Width: 806
VWidth: 1000
Flags: HW
LayerCount: 2
Fore
SplineSet
125 78 m 1
 165.667 78 225.667 166.333 305 343 c 0
 323 383 337.333 416.667 348 444 c 1
 307.333 519.333 276.667 557 256 557 c 0
 246.667 557 233.667 548.667 217 532 c 0
 209 524 203 520 199 520 c 0
 193 520 189.333 523.333 188 530 c 1
 188 543.333 201.667 566.333 229 599 c 0
 260.333 636.333 287 655 309 655 c 0
 345 655 409 558 501 364 c 2
 512 342 l 2
 543.333 276 579.667 215.667 621 161 c 0
 652.333 119 676.667 98 694 98 c 0
 708 98 727.333 115 752 149 c 0
 772 175 785.667 188.667 793 190 c 0
 798.333 190 801 186 801 178 c 0
 801 161.333 787.667 130 761 84 c 0
 724.333 22.6667 692.667 -8 666 -8 c 0
 625.333 -8 564.333 63.3333 483 206 c 2
 383 381 l 1
 317.667 256.333 269.333 170 238 122 c 0
 170.667 18.6667 116.667 -33 76 -33 c 0
 53.3333 -33 33 -19.3333 15 8 c 0
 6.33333 21.3333 2 33 2 43 c 0
 2 68.3333 19.6667 99.6667 55 137 c 0
 67 149.667 74.6667 156 78 156 c 0
 82 156 85 147 87 129 c 1
 93.6667 97 106.333 80 125 78 c 1
EndSplineSet
Validated: 1
EndChar

StartChar: uure
Encoding: 57387 57387 64
Width: 806
VWidth: 1000
Flags: HW
LayerCount: 2
Fore
SplineSet
78 299 m 1
 78 411.667 114.333 504.667 187 578 c 1
 256.333 642 334 675.333 420 678 c 1
 499.333 678 563 661 611 627 c 0
 632.333 611.667 655.333 590.333 680 563 c 0
 726.667 512.333 750 442.667 750 354 c 0
 750 225.333 708 127.333 624 60 c 0
 559.333 8 477.667 -18 379 -18 c 0
 295 -18 227 9 175 63 c 1
 113.006 124.993 80.6731 203.66 78 299 c 1
668 303 m 0
 668 383.667 635.333 453 570 511 c 0
 513.333 561.667 450.667 588.667 382 592 c 2
 371 592 l 2
 311 592 260 569 218 523 c 0
 176.667 477.667 156 419.333 156 348 c 128
 156 276.667 182 212.667 234 156 c 0
 288 97.3333 352.667 67.3333 428 66 c 0
 514.667 66 580.333 98 625 162 c 0
 653.667 203.333 668 250.333 668 303 c 0
EndSplineSet
Validated: 1
EndChar

StartChar: longCarrier
Encoding: 57388 57388 65
Width: 274
VWidth: 1000
Flags: HW
LayerCount: 2
Fore
SplineSet
193 471 m 0
 189.968 410.865 191.968 157.532 199 -289 c 1
 203 -451.667 201.667 -555.333 195 -600 c 0
 188.333 -642.667 144.333 -686.333 63 -731 c 1
 57 -733 55 -731 57 -725 c 1
 78.3333 -681.667 91 -640.667 95 -602 c 0
 97.6667 -580 100 -507.667 102 -385 c 0
 106 -169.667 104.667 89 98 391 c 0
 96 479 94 524.667 92 528 c 0
 82.6667 544.667 68 557 48 565 c 0
 39.3333 569 35 574 35 580 c 0
 35 592.667 44.6667 610.333 64 633 c 0
 84 656.333 103 668 121 668 c 0
 172.333 668 197 617.667 195 517 c 0
 195 532.333 194.333 517 193 471 c 0
EndSplineSet
Validated: 33
EndChar

StartChar: halla
Encoding: 57389 57389 66
Width: 274
VWidth: 1000
Flags: HW
LayerCount: 2
Fore
SplineSet
123 1274 m 0
 162.447 1274 184.781 1228.33 190 1137 c 1
 188 529 l 1
 190.285 396.285 193.285 264.285 197 133 c 0
 197 121 196.333 111.333 195 104 c 0
 188.333 60.6667 144.333 13 63 -39 c 1
 57.6667 -39 55 -37 55 -33 c 1
 79.6667 15.6667 94 63 98 109 c 0
 99.3333 128.333 100.667 197.667 102 317 c 1
 92 713 l 1
 94 987 92 1130.33 86 1143 c 0
 82 1153 71 1162 53 1170 c 0
 42.3333 1174 37 1178.67 37 1184 c 0
 37 1194.67 46.6667 1212 66 1236 c 0
 86.6667 1261.33 105.667 1274 123 1274 c 0
EndSplineSet
Validated: 33
EndChar

StartChar: shortCarrier
Encoding: 57390 57390 67
Width: 274
VWidth: 1000
Flags: HW
LayerCount: 2
Fore
SplineSet
102 322 m 0
 103.333 420 103.667 471.667 103 477 c 0
 100.333 511.667 89 535.667 69 549 c 0
 62.3333 553 54.3333 557 45 561 c 1
 27 559.667 31 576.667 57 612 c 0
 96.4193 666.749 135.753 674.083 175 634 c 0
 185 623.333 191 614.667 193 608 c 0
 197.667 590 199 548.333 197 483 c 1
 204.333 304.333 204 181.667 196 115 c 0
 195.333 113.667 195 112.333 195 111 c 0
 187.667 67.6667 143.667 20.3333 63 -31 c 1
 57.6667 -33 55 -31 55 -25 c 1
 79.6667 23 94 70.6667 98 118 c 0
 99.3333 136.667 100.667 204.667 102 322 c 0
EndSplineSet
Validated: 33
EndChar

StartChar: lambeN
Encoding: 57393 57393 68
Width: 806
VWidth: 1000
Flags: HW
LayerCount: 2
Fore
SplineSet
829 39 m 0
 829 2.51513 802.667 -32.4849 750 -66 c 1
 713.333 -91.3333 635.333 -94.6667 516 -76 c 1
 272 -35 l 1
 153.223 -18.5273 61.8898 -27.8606 -2 -63 c 1
 -13.3333 -71.6667 -20.3333 -71 -23 -61 c 1
 -24.3333 -39 -7.66667 -14.6667 27 12 c 0
 43.6667 25.3333 76.3333 39 125 53 c 1
 288.333 96.3333 382.333 122 407 130 c 0
 535.667 170.667 618.667 218 656 272 c 0
 676 300 686 331.667 686 367 c 0
 686 437.519 664.333 496.852 621 545 c 1
 555 611.667 451 645 309 645 c 0
 243 645 189.667 629 149 597 c 0
 122.333 576.333 109 552.667 109 526 c 0
 109 508.667 117 492.667 133 478 c 0
 137 474 139 471 139 469 c 0
 139 459.667 125 446 97 428 c 0
 80.3333 417.333 68.3333 412 61 412 c 1
 44.3333 415.333 35.6667 436.333 35 475 c 0
 35 556.333 76.3333 621.667 159 671 c 0
 230.333 713.667 313.333 735 408 735 c 0
 502 735 576 718.667 630 686 c 0
 734 621.448 786 532.781 786 420 c 0
 786 293.333 712.667 197 566 131 c 0
 497.333 99.6667 403.667 71.6667 285 47 c 1
 455 22.3333 558.333 8.66667 595 6 c 0
 693.667 -0.666667 764.333 13 807 47 c 1
 821 54.3333 828.333 51.6667 829 39 c 0
EndSplineSet
Validated: 33
EndChar

StartChar: lambeN.alt
Encoding: 65591 -1 69
Width: 1232
VWidth: 1000
Flags: HW
LayerCount: 2
Fore
SplineSet
608 -238 m 1
 866 -275 l 1
 1010 -291 1107.67 -278 1159 -236 c 1
 1167.67 -226 1174 -227.333 1178 -240 c 1
 1184 -270 1152.33 -308.667 1083 -356 c 0
 1039.67 -386.667 946.333 -392 803 -372 c 1
 458 -317 l 1
 327.333 -299.667 230.667 -300.333 168 -319 c 0
 127.333 -331.667 98 -343.333 80 -354 c 0
 64.6667 -362.667 57 -360.667 57 -348 c 1
 54.3333 -322.667 89.6667 -291.667 163 -255 c 0
 183.667 -245 202.333 -237 219 -231 c 0
 256.333 -217.667 317.333 -209.333 402 -206 c 0
 471.333 -203.333 522.333 -198 555 -190 c 2
 761 -141 l 1
 879.667 -108.333 963.333 -60 1012 4 c 0
 1055.33 61.3333 1077 135.667 1077 227 c 0
 1077 294.333 1069 348.333 1053 389 c 0
 1011.67 495 916.667 567.667 768 607 c 0
 694.667 627 613.333 637 524 637 c 0
 372.667 637 279.333 601.333 244 530 c 0
 234 510 229 487.667 229 463 c 0
 229 441.667 238.333 422.667 257 406 c 0
 263 400 266 395.667 266 393 c 0
 266 382.333 252.333 367.667 225 349 c 0
 207.667 337.667 194.667 332 186 332 c 0
 166 332 156 362 156 422 c 0
 156 508.667 200.667 582 290 642 c 0
 385.885 706.667 500.885 739 635 739 c 0
 833 739 981 677 1079 553 c 0
 1101 525 1119.67 494.333 1135 461 c 0
 1165 399 1180 342.333 1180 291 c 0
 1180 97.6667 1092.67 -44.3333 918 -135 c 0
 841.333 -175 738 -209.333 608 -238 c 1
EndSplineSet
Validated: 33
EndChar

StartChar: osse
Encoding: 57394 57394 70
Width: 806
VWidth: 1000
Flags: HW
LayerCount: 2
Fore
SplineSet
700 203 m 0
 700 173 679.667 137 639 95 c 0
 569.637 22.3333 492.637 -14 408 -14 c 0
 318 -14 244 20.6667 186 90 c 0
 136 149.333 111 217.667 111 295 c 0
 111 383.667 138.667 463.333 194 534 c 0
 264.752 623.333 358.419 668 475 668 c 0
 512.333 668 541.667 664.333 563 657 c 1
 651.667 621.667 696.667 588.333 698 557 c 0
 698 535.667 673 514 623 492 c 0
 610.333 486 602.667 483 600 483 c 0
 593.333 483 584.667 490.667 574 506 c 0
 555.333 534 534 553.333 510 564 c 128
 486 574.667 456 580 420 580 c 0
 323.333 580 257 543 221 469 c 0
 205 435.667 197 396.667 197 352 c 0
 197 270 225.333 204 282 154 c 0
 330 112.667 388.333 92 457 92 c 0
 520.333 92 574 116.667 618 166 c 2
 659 214 l 1
 668.333 222.667 677.333 227 686 227 c 0
 695.333 227 700 219 700 203 c 0
EndSplineSet
Validated: 1
EndChar

StartChar: osse.alt
Encoding: 65593 -1 71
Width: 806
VWidth: 1000
Flags: HW
LayerCount: 2
Fore
SplineSet
514 8 m 1
 486.755 -3.60362 453.421 -9.60362 414 -10 c 0
 317.333 -10 241 25.3333 185 96 c 0
 139.667 152.667 117 221.667 117 303 c 0
 117 387 144 463.333 198 532 c 0
 268.027 622.667 361.027 668 477 668 c 0
 542.167 668 602.167 649.333 657 612 c 0
 687 592 702 573.667 702 557 c 0
 702 536.333 678 515 630 493 c 0
 614.667 486.333 605.333 483 602 483 c 0
 596 483 588 490.667 578 506 c 0
 545.111 555.333 493.778 580 424 580 c 0
 343.333 580 285.667 557.333 251 512 c 0
 217.667 466.762 201 413.429 201 352 c 0
 201 270 229.333 204 286 154 c 0
 334 112.667 392.333 92 461 92 c 0
 526.333 92 580.667 117 624 167 c 2
 663 215 l 1
 671.667 223 680 227 688 227 c 1
 697.333 223.667 703 216.333 705 205 c 1
 705 178.333 679 127 627 51 c 1
 617 39 598.333 3.66667 571 -55 c 0
 537.667 -125 506 -170 476 -190 c 0
 459.333 -201.333 441.333 -207 422 -207 c 0
 416.667 -207 414 -204.333 414 -199 c 0
 414 -195 429 -169.667 459 -123 c 0
 498.333 -63 518 -22 518 0 c 0
 518 5.33333 516.667 8 514 8 c 1
EndSplineSet
Validated: 1
EndChar

StartChar: carrierX
Encoding: 57396 57396 72
Width: 806
VWidth: 1000
Flags: HW
LayerCount: 2
Fore
SplineSet
186 549 m 1
 208 603 263.667 637 353 651 c 0
 391 657 443.333 660.667 510 662 c 1
 612.667 658 675.333 653.667 698 649 c 1
 709.333 645 721 635.333 733 620 c 0
 763.667 581.333 746.667 546.667 682 516 c 0
 662.667 506.667 649.667 508 643 520 c 0
 633.86 536.619 626.527 545.619 621 547 c 0
 583.667 560.333 517 564 421 558 c 0
 302.529 550.392 224.863 525.392 188 483 c 1
 196.667 305.667 196.333 183.667 187 117 c 0
 186.333 115 186 113 186 111 c 0
 180 68.3333 136.333 21 55 -31 c 1
 49.6667 -33 47 -31 47 -25 c 1
 71.6667 23 86 70.6667 90 118 c 0
 91.3333 136.667 92.6667 204.667 94 322 c 0
 95.3333 421.333 95 477.333 93 490 c 0
 89.6667 518.667 78 539 58 551 c 0
 52 554.333 45 557.667 37 561 c 1
 19.6667 559.667 23 576.333 47 611 c 1
 86.4073 664.926 124.074 673.926 160 638 c 0
 173.333 624.667 181.333 611.333 184 598 c 1
 188 572.667 188.667 556.333 186 549 c 1
EndSplineSet
Validated: 33
EndChar

StartChar: quesseC
Encoding: 57399 57399 73
Width: 806
VWidth: 1000
Flags: HW
LayerCount: 2
Fore
SplineSet
635 276 m 0
 635 365.673 602.333 426 537 484 c 0
 499.612 517.43 430 549 389 549 c 0
 315 549 256.333 520.667 213 464 c 0
 179 418.667 162 363.667 162 299 c 0
 162 263.667 171.333 197.333 190 100 c 1
 457.333 102 604.333 96.6667 631 84 c 1
 627.667 114 635 204 635 276 c 0
719 308.614 m 0
 719 -250 l 1
 720.333 -412.667 714.667 -523.333 702 -582 c 0
 690 -636.667 670.333 -672 643 -688 c 1
 623.667 -702.667 601.333 -715 576 -725 c 0
 560.667 -730.333 551.667 -731 549 -727 c 0
 544.333 -722.333 549 -709.333 563 -688 c 1
 599 -644 618.333 -572 621 -472 c 1
 621 -317 l 1
 623 -170.333 625 -82.3333 627 -53 c 0
 629 -30.3333 623.333 -17.3333 610 -14 c 0
 542.667 3.33333 461.667 8.33333 367 1 c 0
 273 -6.33333 206.667 -8.66667 168 -6 c 0
 119.333 -2 70 27.3333 20 82 c 1
 -3.33333 109.333 -5.66667 122.333 13 121 c 0
 17 121 21.6667 120.333 27 119 c 0
 66.3333 109.667 103.667 103.333 139 100 c 1
 97 205.396 76 290.729 76 356 c 0
 76 480.667 113 566 187 612 c 0
 223 634 277 651 387 651 c 0
 465 651 530 634 578 600 c 0
 599.333 584.667 622.333 563.333 647 536 c 0
 693.667 485.333 719 397.281 719 308.614 c 0
EndSplineSet
Validated: 33
EndChar

StartChar: roomenN
Encoding: 57401 57401 74
Width: 806
VWidth: 1000
Flags: HW
LayerCount: 2
Fore
SplineSet
328 473 m 1
 212 303.314 154 182.98 154 112 c 0
 154 68.6667 176 40.6667 220 28 c 0
 233.333 24 248 22 264 22 c 0
 296 22 329.333 35 364 61 c 0
 380.667 74.3333 392.333 81 399 81 c 0
 408.333 81 414 77 416 69 c 1
 416 63 404.333 48.3333 381 25 c 0
 323.667 -34.3333 263 -64 199 -64 c 0
 129 -64 86.3333 -39.6667 71 9 c 0
 66.3333 25.6667 64 45.6667 64 69 c 0
 65.3333 125.667 120.667 236.667 230 402 c 1
 421 687 l 1
 483 783.667 514 848 514 880 c 0
 514 942 486.333 994 431 1036 c 0
 387.667 1068.67 341.667 1085 293 1085 c 0
 257.667 1085 218.667 1072.67 176 1048 c 0
 166.667 1042.67 160.667 1040 158 1040 c 0
 155.333 1040 154 1042 154 1046 c 0
 154 1057.33 169.333 1080.67 200 1116 c 0
 249.333 1172 292 1200 328 1200 c 0
 380.667 1200 432.667 1182.33 484 1147 c 0
 560 1094.33 598 1022.33 598 931 c 0
 598 881 577.667 827 537 769 c 1
 416 606 l 1
 450.667 503.333 495 397 549 287 c 0
 625 132.333 685.667 55 731 55 c 0
 743.667 55 765 64 795 82 c 0
 811.667 92.6667 824 98 832 98 c 0
 843.333 98 849.333 93 850 83 c 0
 850 73.6667 822.667 48 768 6 c 0
 708.667 -39.3333 671 -62 655 -62 c 0
 621.667 -62 544.333 55.3333 423 290 c 0
 362.333 407.333 330.667 468.333 328 473 c 1
EndSplineSet
Validated: 1
EndChar

StartChar: maltaX
Encoding: 57402 57402 75
Width: 1232
VWidth: 1000
Flags: HW
LayerCount: 2
Fore
SplineSet
918 -27 m 2
 362 0 l 1
 256 0 156.333 -15 63 -45 c 1
 57.6667 -45 55 -43.6667 55 -41 c 1
 79 24.3333 92.6667 78.6667 96 122 c 0
 98 149.333 97.3333 223.333 94 344 c 1
 95 478 l 1
 93.6667 504.667 91.3333 520.667 88 526 c 0
 79.3333 538.667 65.6667 550.667 47 562 c 0
 39 567.333 35 573.333 35 580 c 0
 35 592.667 44.6667 610.333 64 633 c 0
 84 656.333 103 668 121 668 c 0
 169.667 668 194 622.667 194 532 c 1
 193 471 l 1
 303.667 587 403.333 645 492 645 c 0
 552.667 645 602.333 625 641 585 c 0
 655.667 569 674 544.667 696 512 c 1
 733.333 550.667 780.667 584 838 612 c 0
 884.667 634 926.333 645 963 645 c 0
 1057.67 645 1124.33 603.333 1163 520 c 0
 1183.67 474.667 1194 420.667 1194 358 c 0
 1194 301.333 1179 238 1149 168 c 2
 1116 96 l 1
 1122.67 97.3333 1131.67 98 1143 98 c 0
 1193.67 98 1231.33 69.3333 1256 12 c 0
 1269.33 -19.3333 1276 -52.6667 1276 -88 c 0
 1276 -144 1254.33 -198 1211 -250 c 1
 1161.67 -305.333 1109 -334 1053 -336 c 1
 998.333 -336 971 -319 971 -285 c 0
 971 -257.667 985 -227.667 1013 -195 c 0
 1021.67 -185 1027.33 -180 1030 -180 c 0
 1036 -180 1043.33 -188.333 1052 -205 c 0
 1067.67 -236.333 1086.33 -252 1108 -252 c 0
 1147.33 -252 1174.67 -232.333 1190 -193 c 0
 1196.67 -176.333 1200 -158.333 1200 -139 c 0
 1200 -83 1181 -46 1143 -28 c 0
 1129 -21.3333 1113.33 -18 1096 -18 c 1
 942 -27 l 2
 918 -27 l 2
721 356 m 0
 721 292 699.667 202.667 657 88 c 1
 805 75.3333 945 76.6667 1077 92 c 1
 1097.67 164.667 1108 232.333 1108 295 c 0
 1108 385.667 1082 454.333 1030 501 c 0
 993.333 534.333 947 551 891 551 c 0
 833.667 551 787 535 751 503 c 0
 739.667 493 727 479.667 713 463 c 1
 718.333 426.333 721 390.667 721 356 c 0
188 70 m 1
 292 98.6667 431.333 108.667 606 100 c 1
 628 155.333 639 213.333 639 274 c 0
 639 368.667 612.667 441.333 560 492 c 0
 520.667 530 471.333 549 412 549 c 0
 364.667 549 315.667 529.667 265 491 c 0
 225.667 461.667 201.667 431.667 193 401 c 1
 187.667 340.333 186.667 263.333 190 170 c 0
 192 131.333 191.333 98 188 70 c 1
EndSplineSet
Validated: 33
EndChar

StartChar: hallaRoomen
Encoding: 57404 57404 76
Width: 808
VWidth: 1000
Flags: HW
LayerCount: 2
Fore
SplineSet
238.232 -31.5234 m 1
 417.276 113.299 651 236.57 651 463 c 0
 651 506.333 629 534.333 585 547 c 0
 571.667 551 557 553 541 553 c 0
 509 553 475.667 540 441 514 c 0
 424.333 500.667 412.667 494 406 494 c 0
 396.667 494 391 498 389 506 c 1
 389 512 400.667 526.667 424 550 c 0
 481.333 609.333 542 639 606 639 c 0
 676 639 718.667 614.667 734 566 c 0
 738.667 549.333 741 529.333 741 506 c 0
 741 88 121 0 121 -305 c 0
 121 -367 148.667 -419 204 -461 c 0
 247.333 -493.667 293.333 -510 342 -510 c 0
 377.333 -510 416.209 -497.451 459 -473 c 0
 468.333 -467.667 474.333 -465 477 -465 c 0
 479.667 -465 481 -467 481 -471 c 0
 481 -482.333 465.667 -505.667 435 -541 c 0
 385.667 -597 343 -625 307 -625 c 0
 254.333 -625 202.333 -607.333 151 -572 c 0
 75 -519.333 37 -447.333 37 -356 c 0
 37 -223.243 122.386 -126.642 229.475 -38.6611 c 1
 149.144 13.208 105.653 60.7612 99 104 c 1
 99 108 l 2
 99.6667 116.667 101.333 186.333 104 317 c 1
 106 624.333 103.333 874.333 96 1067 c 0
 94 1113.67 92 1138.33 90 1141 c 0
 84 1148.33 70.6667 1157.67 50 1169 c 0
 41.3673 1173.73 37 1178.67 37 1184 c 0
 37 1194.67 46.6667 1212 66 1236 c 0
 86.6667 1261.33 105.667 1274 123 1274 c 0
 145 1274 163 1254 177 1214 c 0
 185 1190.67 189.333 1166.33 190 1141 c 0
 191.333 1111.67 190.667 1046 188 944 c 0
 186.71 894.666 187.333 841.333 190 784 c 0
 193.333 730.667 196.333 630.333 199 483 c 1
 201 422 l 1
 205 257.333 203.667 151.333 197 104 c 1
 197 100 l 1
 200.298 53.8194 214.043 15.1455 238.232 -31.5234 c 1
EndSplineSet
Validated: 33
EndChar

StartChar: tehtaA.altshift1
Encoding: 65599 -1 77
Width: 0
VWidth: 1000
Flags: HW
LayerCount: 2
Fore
SplineSet
-323 1030 m 0
 -330.333 1030 -334.333 1034.67 -335 1044 c 0
 -335 1057.33 -302.333 1096.33 -237 1161 c 0
 -185 1213 -154.333 1239 -145 1239 c 0
 -136.333 1239 -107 1213.33 -57 1162 c 0
 -3.66667 1107.33 23 1073 23 1059 c 0
 23 1042.33 13 1024.33 -7 1005 c 0
 -21.6667 991.667 -35.3333 985 -48 985 c 0
 -60 985 -87.6667 1007 -131 1051 c 0
 -173 1093 -200 1114.67 -212 1116 c 0
 -220.667 1116 -242 1099.67 -276 1067 c 0
 -300.667 1042.33 -316.333 1030 -323 1030 c 0
EndSplineSet
Validated: 1
EndChar

StartChar: tehtaA.altshift2
Encoding: 65600 -1 78
Width: 0
VWidth: 1000
Flags: HW
LayerCount: 2
Fore
SplineSet
-514 1030 m 0
 -521.333 1030 -525.333 1034.67 -526 1044 c 0
 -526 1057.33 -493.333 1096.33 -428 1161 c 0
 -376 1213 -345.333 1239 -336 1239 c 0
 -327.333 1239 -298 1213.33 -248 1162 c 0
 -194.667 1107.33 -168 1073 -168 1059 c 0
 -168 1042.33 -178 1024.33 -198 1005 c 0
 -212.667 991.667 -226.333 985 -239 985 c 0
 -251 985 -278.667 1007 -322 1051 c 0
 -364 1093 -391 1114.67 -403 1116 c 0
 -411.667 1116 -433 1099.67 -467 1067 c 0
 -491.667 1042.33 -507.333 1030 -514 1030 c 0
EndSplineSet
Validated: 1
EndChar

StartChar: tehtaA.altshift3
Encoding: 65601 -1 79
Width: 0
VWidth: 1000
Flags: HW
LayerCount: 2
Fore
SplineSet
-633 1030 m 0
 -640.333 1030 -644.333 1034.67 -645 1044 c 0
 -645 1057.33 -612.333 1096.33 -547 1161 c 0
 -495 1213 -464.333 1239 -455 1239 c 0
 -446.333 1239 -417 1213.33 -367 1162 c 0
 -313.667 1107.33 -287 1073 -287 1059 c 0
 -287 1042.33 -297 1024.33 -317 1005 c 0
 -331.667 991.667 -345.333 985 -358 985 c 0
 -370 985 -397.667 1007 -441 1051 c 0
 -483 1093 -510 1114.67 -522 1116 c 0
 -530.667 1116 -552 1099.67 -586 1067 c 0
 -610.667 1042.33 -626.333 1030 -633 1030 c 0
EndSplineSet
Validated: 1
EndChar

StartChar: tehtaA.altshift4
Encoding: 65602 -1 80
Width: 0
VWidth: 1000
Flags: HW
LayerCount: 2
Fore
SplineSet
-766 1030 m 0
 -773.333 1030 -777.333 1034.67 -778 1044 c 0
 -778 1057.33 -745.333 1096.33 -680 1161 c 0
 -628 1213 -597.333 1239 -588 1239 c 0
 -579.333 1239 -550 1213.33 -500 1162 c 0
 -446.667 1107.33 -420 1073 -420 1059 c 0
 -420 1042.33 -430 1024.33 -450 1005 c 0
 -464.667 991.667 -478.333 985 -491 985 c 0
 -503 985 -530.667 1007 -574 1051 c 0
 -616 1093 -643 1114.67 -655 1116 c 0
 -663.667 1116 -685 1099.67 -719 1067 c 0
 -743.667 1042.33 -759.333 1030 -766 1030 c 0
EndSplineSet
Validated: 1
EndChar

StartChar: tehtaA.shift1
Encoding: 65603 -1 81
Width: 0
VWidth: 1000
Flags: HW
LayerCount: 2
Fore
SplineSet
-105 972 m 0
 -105 978.22 -90.3333 1000.89 -61 1040 c 1
 -49.6667 1053.33 -41.6667 1060.33 -37 1061 c 0
 -29 1061 -4.66667 1044.33 36 1011 c 2
 41 1007 l 2
 53 997.667 59.6667 989 61 981 c 1
 61 967.667 47.3333 945.667 20 915 c 0
 7.33333 900.333 -0.666667 893 -4 893 c 0
 -9.33333 893 -30.6667 907.333 -68 936 c 0
 -89.8665 952.4 -101.533 962.066 -103 965 c 0
 -104.333 967 -105 969.333 -105 972 c 0
-357 972 m 0
 -357 978.22 -342.333 1000.89 -313 1040 c 1
 -301.667 1053.33 -293.667 1060.33 -289 1061 c 0
 -281 1061 -256.667 1044.33 -216 1011 c 2
 -211 1007 l 2
 -199 997.667 -192.333 989 -191 981 c 1
 -191 967.667 -204.667 945.667 -232 915 c 0
 -244.667 900.333 -252.667 893 -256 893 c 0
 -261.333 893 -282.667 907.333 -320 936 c 0
 -341.867 952.4 -353.533 962.066 -355 965 c 0
 -356.333 967 -357 969.333 -357 972 c 0
-244 1155 m 0
 -244 1161.22 -229.333 1183.89 -200 1223 c 1
 -188.667 1236.33 -180.667 1243.33 -176 1244 c 0
 -168 1244 -143.667 1227.33 -103 1194 c 2
 -98 1190 l 2
 -86 1180.67 -79.3333 1172 -78 1164 c 1
 -78 1150.67 -91.6667 1128.67 -119 1098 c 0
 -131.667 1083.33 -139.667 1076 -143 1076 c 0
 -148.333 1076 -169.667 1090.33 -207 1119 c 0
 -228.867 1135.4 -240.533 1145.07 -242 1148 c 0
 -243.333 1150 -244 1152.33 -244 1155 c 0
EndSplineSet
Validated: 1
EndChar

StartChar: tehtaA.shift2
Encoding: 65604 -1 82
Width: 0
VWidth: 1000
Flags: HW
LayerCount: 2
Fore
SplineSet
-337 972 m 0
 -337 978.22 -322.333 1000.89 -293 1040 c 1
 -281.667 1053.33 -273.667 1060.33 -269 1061 c 0
 -261 1061 -236.667 1044.33 -196 1011 c 2
 -191 1007 l 2
 -179 997.667 -172.333 989 -171 981 c 1
 -171 967.667 -184.667 945.667 -212 915 c 0
 -224.667 900.333 -232.667 893 -236 893 c 0
 -241.333 893 -262.667 907.333 -300 936 c 0
 -321.867 952.4 -333.533 962.066 -335 965 c 0
 -336.333 967 -337 969.333 -337 972 c 0
-589 972 m 0
 -589 978.22 -574.333 1000.89 -545 1040 c 1
 -533.667 1053.33 -525.667 1060.33 -521 1061 c 0
 -513 1061 -488.667 1044.33 -448 1011 c 2
 -443 1007 l 2
 -431 997.667 -424.333 989 -423 981 c 1
 -423 967.667 -436.667 945.667 -464 915 c 0
 -476.667 900.333 -484.667 893 -488 893 c 0
 -493.333 893 -514.667 907.333 -552 936 c 0
 -573.867 952.4 -585.533 962.066 -587 965 c 0
 -588.333 967 -589 969.333 -589 972 c 0
-476 1155 m 0
 -476 1161.22 -461.333 1183.89 -432 1223 c 1
 -420.667 1236.33 -412.667 1243.33 -408 1244 c 0
 -400 1244 -375.667 1227.33 -335 1194 c 2
 -330 1190 l 2
 -318 1180.67 -311.333 1172 -310 1164 c 1
 -310 1150.67 -323.667 1128.67 -351 1098 c 0
 -363.667 1083.33 -371.667 1076 -375 1076 c 0
 -380.333 1076 -401.667 1090.33 -439 1119 c 0
 -460.867 1135.4 -472.533 1145.07 -474 1148 c 0
 -475.333 1150 -476 1152.33 -476 1155 c 0
EndSplineSet
Validated: 1
EndChar

StartChar: tehtaA.shift3
Encoding: 65605 -1 83
Width: 0
VWidth: 1000
Flags: HW
LayerCount: 2
Fore
SplineSet
-394 972 m 0
 -394 978.22 -379.333 1000.89 -350 1040 c 1
 -338.667 1053.33 -330.667 1060.33 -326 1061 c 0
 -318 1061 -293.667 1044.33 -253 1011 c 2
 -248 1007 l 2
 -236 997.667 -229.333 989 -228 981 c 1
 -228 967.667 -241.667 945.667 -269 915 c 0
 -281.667 900.333 -289.667 893 -293 893 c 0
 -298.333 893 -319.667 907.333 -357 936 c 0
 -378.867 952.4 -390.533 962.066 -392 965 c 0
 -393.333 967 -394 969.333 -394 972 c 0
-646 972 m 0
 -646 978.22 -631.333 1000.89 -602 1040 c 1
 -590.667 1053.33 -582.667 1060.33 -578 1061 c 0
 -570 1061 -545.667 1044.33 -505 1011 c 2
 -500 1007 l 2
 -488 997.667 -481.333 989 -480 981 c 1
 -480 967.667 -493.667 945.667 -521 915 c 0
 -533.667 900.333 -541.667 893 -545 893 c 0
 -550.333 893 -571.667 907.333 -609 936 c 0
 -630.867 952.4 -642.533 962.066 -644 965 c 0
 -645.333 967 -646 969.333 -646 972 c 0
-533 1155 m 0
 -533 1161.22 -518.333 1183.89 -489 1223 c 1
 -477.667 1236.33 -469.667 1243.33 -465 1244 c 0
 -457 1244 -432.667 1227.33 -392 1194 c 2
 -387 1190 l 2
 -375 1180.67 -368.333 1172 -367 1164 c 1
 -367 1150.67 -380.667 1128.67 -408 1098 c 0
 -420.667 1083.33 -428.667 1076 -432 1076 c 0
 -437.333 1076 -458.667 1090.33 -496 1119 c 0
 -517.867 1135.4 -529.533 1145.07 -531 1148 c 0
 -532.333 1150 -533 1152.33 -533 1155 c 0
EndSplineSet
Validated: 1
EndChar

StartChar: tehtaA.shift4
Encoding: 65606 -1 84
Width: 0
VWidth: 1000
Flags: HW
LayerCount: 2
Fore
SplineSet
-662 1155 m 0
 -662 1161.22 -647.333 1183.89 -618 1223 c 1
 -606.667 1236.33 -598.667 1243.33 -594 1244 c 0
 -586 1244 -561.667 1227.33 -521 1194 c 2
 -516 1190 l 2
 -504 1180.67 -497.333 1172 -496 1164 c 1
 -496 1150.67 -509.667 1128.67 -537 1098 c 0
 -549.667 1083.33 -557.667 1076 -561 1076 c 0
 -566.333 1076 -587.667 1090.33 -625 1119 c 0
 -646.867 1135.4 -658.533 1145.07 -660 1148 c 0
 -661.333 1150 -662 1152.33 -662 1155 c 0
-775 972 m 0
 -775 978.22 -760.333 1000.89 -731 1040 c 1
 -719.667 1053.33 -711.667 1060.33 -707 1061 c 0
 -699 1061 -674.667 1044.33 -634 1011 c 2
 -629 1007 l 2
 -617 997.667 -610.333 989 -609 981 c 1
 -609 967.667 -622.667 945.667 -650 915 c 0
 -662.667 900.333 -670.667 893 -674 893 c 0
 -679.333 893 -700.667 907.333 -738 936 c 0
 -759.867 952.4 -771.533 962.066 -773 965 c 0
 -774.333 967 -775 969.333 -775 972 c 0
-523 972 m 0
 -523 978.22 -508.333 1000.89 -479 1040 c 1
 -467.667 1053.33 -459.667 1060.33 -455 1061 c 0
 -447 1061 -422.667 1044.33 -382 1011 c 2
 -377 1007 l 2
 -365 997.667 -358.333 989 -357 981 c 1
 -357 967.667 -370.667 945.667 -398 915 c 0
 -410.667 900.333 -418.667 893 -422 893 c 0
 -427.333 893 -448.667 907.333 -486 936 c 0
 -507.867 952.4 -519.533 962.066 -521 965 c 0
 -522.333 967 -523 969.333 -523 972 c 0
EndSplineSet
Validated: 1
EndChar

StartChar: tehtaAB.shift1
Encoding: 65607 -1 85
Width: 0
VWidth: 1000
Flags: HW
LayerCount: 2
Fore
SplineSet
-190 -313 m 0
 -190 -319.22 -204.667 -341.887 -234 -381 c 1
 -245.333 -394.333 -253.333 -401.333 -258 -402 c 0
 -266 -402 -290.333 -385.333 -331 -352 c 2
 -336 -348 l 2
 -348 -338.667 -354.667 -330 -356 -322 c 1
 -356 -308.667 -342.333 -286.667 -315 -256 c 0
 -302.333 -241.333 -294.333 -234 -291 -234 c 0
 -285.667 -234 -264.333 -248.333 -227 -277 c 0
 -205.133 -293.4 -193.467 -303.066 -192 -306 c 0
 -190.667 -308 -190 -310.333 -190 -313 c 0
62 -313 m 0
 62 -319.22 47.3333 -341.887 18 -381 c 1
 6.66667 -394.333 -1.33333 -401.333 -6 -402 c 0
 -14 -402 -38.3333 -385.333 -79 -352 c 2
 -84 -348 l 2
 -96 -338.667 -102.667 -330 -104 -322 c 1
 -104 -308.667 -90.3333 -286.667 -63 -256 c 0
 -50.3333 -241.333 -42.3333 -234 -39 -234 c 0
 -33.6667 -234 -12.3333 -248.333 25 -277 c 0
 46.8665 -293.4 58.5332 -303.066 60 -306 c 0
 61.3333 -308 62 -310.333 62 -313 c 0
-51 -496 m 0
 -51 -502.22 -65.6667 -524.887 -95 -564 c 1
 -106.333 -577.333 -114.333 -584.333 -119 -585 c 0
 -127 -585 -151.333 -568.333 -192 -535 c 2
 -197 -531 l 2
 -209 -521.667 -215.667 -513 -217 -505 c 1
 -217 -491.667 -203.333 -469.667 -176 -439 c 0
 -163.333 -424.333 -155.333 -417 -152 -417 c 0
 -146.667 -417 -125.333 -431.333 -88 -460 c 0
 -66.1335 -476.4 -54.4668 -486.066 -53 -489 c 0
 -51.6667 -491 -51 -493.333 -51 -496 c 0
EndSplineSet
Validated: 1
EndChar

StartChar: tehtaAB.shift2
Encoding: 65608 -1 86
Width: 0
VWidth: 1000
Flags: HW
LayerCount: 2
Fore
SplineSet
-382 -313 m 0
 -382 -319.22 -396.667 -341.887 -426 -381 c 1
 -437.333 -394.333 -445.333 -401.333 -450 -402 c 0
 -458 -402 -482.333 -385.333 -523 -352 c 2
 -528 -348 l 2
 -540 -338.667 -546.667 -330 -548 -322 c 1
 -548 -308.667 -534.333 -286.667 -507 -256 c 0
 -494.333 -241.333 -486.333 -234 -483 -234 c 0
 -477.667 -234 -456.333 -248.333 -419 -277 c 0
 -397.133 -293.4 -385.467 -303.066 -384 -306 c 0
 -382.667 -308 -382 -310.333 -382 -313 c 0
-130 -313 m 0
 -130 -319.22 -144.667 -341.887 -174 -381 c 1
 -185.333 -394.333 -193.333 -401.333 -198 -402 c 0
 -206 -402 -230.333 -385.333 -271 -352 c 2
 -276 -348 l 2
 -288 -338.667 -294.667 -330 -296 -322 c 1
 -296 -308.667 -282.333 -286.667 -255 -256 c 0
 -242.333 -241.333 -234.333 -234 -231 -234 c 0
 -225.667 -234 -204.333 -248.333 -167 -277 c 0
 -145.133 -293.4 -133.467 -303.066 -132 -306 c 0
 -130.667 -308 -130 -310.333 -130 -313 c 0
-243 -496 m 0
 -243 -502.22 -257.667 -524.887 -287 -564 c 1
 -298.333 -577.333 -306.333 -584.333 -311 -585 c 0
 -319 -585 -343.333 -568.333 -384 -535 c 2
 -389 -531 l 2
 -401 -521.667 -407.667 -513 -409 -505 c 1
 -409 -491.667 -395.333 -469.667 -368 -439 c 0
 -355.333 -424.333 -347.333 -417 -344 -417 c 0
 -338.667 -417 -317.333 -431.333 -280 -460 c 0
 -258.133 -476.4 -246.467 -486.066 -245 -489 c 0
 -243.667 -491 -243 -493.333 -243 -496 c 0
EndSplineSet
Validated: 1
EndChar

StartChar: tehtaAB.shift3
Encoding: 65609 -1 87
Width: 0
VWidth: 1000
Flags: HW
LayerCount: 2
Fore
SplineSet
-478 -313 m 0
 -478 -319.22 -492.667 -341.887 -522 -381 c 1
 -533.333 -394.333 -541.333 -401.333 -546 -402 c 0
 -554 -402 -578.333 -385.333 -619 -352 c 2
 -624 -348 l 2
 -636 -338.667 -642.667 -330 -644 -322 c 1
 -644 -308.667 -630.333 -286.667 -603 -256 c 0
 -590.333 -241.333 -582.333 -234 -579 -234 c 0
 -573.667 -234 -552.333 -248.333 -515 -277 c 0
 -493.133 -293.4 -481.467 -303.066 -480 -306 c 0
 -478.667 -308 -478 -310.333 -478 -313 c 0
-226 -313 m 0
 -226 -319.22 -240.667 -341.887 -270 -381 c 1
 -281.333 -394.333 -289.333 -401.333 -294 -402 c 0
 -302 -402 -326.333 -385.333 -367 -352 c 2
 -372 -348 l 2
 -384 -338.667 -390.667 -330 -392 -322 c 1
 -392 -308.667 -378.333 -286.667 -351 -256 c 0
 -338.333 -241.333 -330.333 -234 -327 -234 c 0
 -321.667 -234 -300.333 -248.333 -263 -277 c 0
 -241.133 -293.4 -229.467 -303.066 -228 -306 c 0
 -226.667 -308 -226 -310.333 -226 -313 c 0
-339 -496 m 0
 -339 -502.22 -353.667 -524.887 -383 -564 c 1
 -394.333 -577.333 -402.333 -584.333 -407 -585 c 0
 -415 -585 -439.333 -568.333 -480 -535 c 2
 -485 -531 l 2
 -497 -521.667 -503.667 -513 -505 -505 c 1
 -505 -491.667 -491.333 -469.667 -464 -439 c 0
 -451.333 -424.333 -443.333 -417 -440 -417 c 0
 -434.667 -417 -413.333 -431.333 -376 -460 c 0
 -354.133 -476.4 -342.467 -486.066 -341 -489 c 0
 -339.667 -491 -339 -493.333 -339 -496 c 0
EndSplineSet
Validated: 1
EndChar

StartChar: tehtaAB.shift4
Encoding: 65610 -1 88
Width: 0
VWidth: 1000
Flags: HW
LayerCount: 2
Fore
SplineSet
-471 -498 m 0
 -471 -504.22 -485.667 -526.887 -515 -566 c 1
 -526.333 -579.333 -534.333 -586.333 -539 -587 c 0
 -547 -587 -571.333 -570.333 -612 -537 c 2
 -617 -533 l 2
 -629 -523.667 -635.667 -515 -637 -507 c 1
 -637 -493.667 -623.333 -471.667 -596 -441 c 0
 -583.333 -426.333 -575.333 -419 -572 -419 c 0
 -566.667 -419 -545.333 -433.333 -508 -462 c 0
 -486.133 -478.4 -474.467 -488.066 -473 -491 c 0
 -471.667 -493 -471 -495.333 -471 -498 c 0
-358 -315 m 0
 -358 -321.22 -372.667 -343.887 -402 -383 c 1
 -413.333 -396.333 -421.333 -403.333 -426 -404 c 0
 -434 -404 -458.333 -387.333 -499 -354 c 2
 -504 -350 l 2
 -516 -340.667 -522.667 -332 -524 -324 c 1
 -524 -310.667 -510.333 -288.667 -483 -258 c 0
 -470.333 -243.333 -462.333 -236 -459 -236 c 0
 -453.667 -236 -432.333 -250.333 -395 -279 c 0
 -373.133 -295.4 -361.467 -305.066 -360 -308 c 0
 -358.667 -310 -358 -312.333 -358 -315 c 0
-610 -315 m 0
 -610 -321.22 -624.667 -343.887 -654 -383 c 1
 -665.333 -396.333 -673.333 -403.333 -678 -404 c 0
 -686 -404 -710.333 -387.333 -751 -354 c 2
 -756 -350 l 2
 -768 -340.667 -774.667 -332 -776 -324 c 1
 -776 -310.667 -762.333 -288.667 -735 -258 c 0
 -722.333 -243.333 -714.333 -236 -711 -236 c 0
 -705.667 -236 -684.333 -250.333 -647 -279 c 0
 -625.133 -295.4 -613.467 -305.066 -612 -308 c 0
 -610.667 -310 -610 -312.333 -610 -315 c 0
EndSplineSet
Validated: 1
EndChar

StartChar: tehtaY.shift1
Encoding: 65611 -1 89
Width: 0
VWidth: 1000
Flags: HW
LayerCount: 2
Fore
SplineSet
-126 1089 m 0
 -126 1095.22 -111.333 1117.89 -82 1157 c 1
 -70.6667 1170.33 -62.6667 1177.33 -58 1178 c 0
 -50 1178 -25.6667 1161.33 15 1128 c 2
 20 1124 l 2
 32 1114.67 38.6667 1106 40 1098 c 1
 40 1084.67 26.3333 1062.67 -1 1032 c 0
 -13.6667 1017.33 -21.6667 1010 -25 1010 c 0
 -30.3333 1010 -51.6667 1024.33 -89 1053 c 0
 -110.867 1069.4 -122.533 1079.07 -124 1082 c 0
 -125.333 1084 -126 1086.33 -126 1089 c 0
-376 1087 m 0
 -376 1093.22 -361.333 1115.89 -332 1155 c 1
 -320.667 1168.33 -312.667 1175.33 -308 1176 c 0
 -300 1176 -275.667 1159.33 -235 1126 c 2
 -230 1122 l 2
 -218 1112.67 -211.333 1104 -210 1096 c 1
 -210 1082.67 -223.667 1060.67 -251 1030 c 0
 -263.667 1015.33 -271.667 1008 -275 1008 c 0
 -280.333 1008 -301.667 1022.33 -339 1051 c 0
 -360.867 1067.4 -372.533 1077.07 -374 1080 c 0
 -375.333 1082 -376 1084.33 -376 1087 c 0
EndSplineSet
Validated: 1
EndChar

StartChar: tehtaY.shift2
Encoding: 65612 -1 90
Width: 0
VWidth: 1000
Flags: HW
LayerCount: 2
Fore
SplineSet
-298 1089 m 0
 -298 1095.22 -283.333 1117.89 -254 1157 c 1
 -242.667 1170.33 -234.667 1177.33 -230 1178 c 0
 -222 1178 -197.667 1161.33 -157 1128 c 2
 -152 1124 l 2
 -140 1114.67 -133.333 1106 -132 1098 c 1
 -132 1084.67 -145.667 1062.67 -173 1032 c 0
 -185.667 1017.33 -193.667 1010 -197 1010 c 0
 -202.333 1010 -223.667 1024.33 -261 1053 c 0
 -282.867 1069.4 -294.533 1079.07 -296 1082 c 0
 -297.333 1084 -298 1086.33 -298 1089 c 0
-548 1087 m 0
 -548 1093.22 -533.333 1115.89 -504 1155 c 1
 -492.667 1168.33 -484.667 1175.33 -480 1176 c 0
 -472 1176 -447.667 1159.33 -407 1126 c 2
 -402 1122 l 2
 -390 1112.67 -383.333 1104 -382 1096 c 1
 -382 1082.67 -395.667 1060.67 -423 1030 c 0
 -435.667 1015.33 -443.667 1008 -447 1008 c 0
 -452.333 1008 -473.667 1022.33 -511 1051 c 0
 -532.867 1067.4 -544.533 1077.07 -546 1080 c 0
 -547.333 1082 -548 1084.33 -548 1087 c 0
EndSplineSet
Validated: 1
EndChar

StartChar: tehtaY.shift3
Encoding: 65613 -1 91
Width: 0
VWidth: 1000
Flags: HW
LayerCount: 2
Fore
SplineSet
-396 1089 m 0
 -396 1095.22 -381.333 1117.89 -352 1157 c 1
 -340.667 1170.33 -332.667 1177.33 -328 1178 c 0
 -320 1178 -295.667 1161.33 -255 1128 c 2
 -250 1124 l 2
 -238 1114.67 -231.333 1106 -230 1098 c 1
 -230 1084.67 -243.667 1062.67 -271 1032 c 0
 -283.667 1017.33 -291.667 1010 -295 1010 c 0
 -300.333 1010 -321.667 1024.33 -359 1053 c 0
 -380.867 1069.4 -392.533 1079.07 -394 1082 c 0
 -395.333 1084 -396 1086.33 -396 1089 c 0
-646 1087 m 0
 -646 1093.22 -631.333 1115.89 -602 1155 c 1
 -590.667 1168.33 -582.667 1175.33 -578 1176 c 0
 -570 1176 -545.667 1159.33 -505 1126 c 2
 -500 1122 l 2
 -488 1112.67 -481.333 1104 -480 1096 c 1
 -480 1082.67 -493.667 1060.67 -521 1030 c 0
 -533.667 1015.33 -541.667 1008 -545 1008 c 0
 -550.333 1008 -571.667 1022.33 -609 1051 c 0
 -630.867 1067.4 -642.533 1077.07 -644 1080 c 0
 -645.333 1082 -646 1084.33 -646 1087 c 0
EndSplineSet
Validated: 1
EndChar

StartChar: tehtaY.shift4
Encoding: 65614 -1 92
Width: 0
VWidth: 1000
Flags: HW
LayerCount: 2
Fore
SplineSet
-525 1089 m 0
 -525 1095.22 -510.333 1117.89 -481 1157 c 1
 -469.667 1170.33 -461.667 1177.33 -457 1178 c 0
 -449 1178 -424.667 1161.33 -384 1128 c 2
 -379 1124 l 2
 -367 1114.67 -360.333 1106 -359 1098 c 1
 -359 1084.67 -372.667 1062.67 -400 1032 c 0
 -412.667 1017.33 -420.667 1010 -424 1010 c 0
 -429.333 1010 -450.667 1024.33 -488 1053 c 0
 -509.867 1069.4 -521.533 1079.07 -523 1082 c 0
 -524.333 1084 -525 1086.33 -525 1089 c 0
-775 1087 m 0
 -775 1093.22 -760.333 1115.89 -731 1155 c 1
 -719.667 1168.33 -711.667 1175.33 -707 1176 c 0
 -699 1176 -674.667 1159.33 -634 1126 c 2
 -629 1122 l 2
 -617 1112.67 -610.333 1104 -609 1096 c 1
 -609 1082.67 -622.667 1060.67 -650 1030 c 0
 -662.667 1015.33 -670.667 1008 -674 1008 c 0
 -679.333 1008 -700.667 1022.33 -738 1051 c 0
 -759.867 1067.4 -771.533 1077.07 -773 1080 c 0
 -774.333 1082 -775 1084.33 -775 1087 c 0
EndSplineSet
Validated: 1
EndChar

StartChar: tehtaYB.lambe
Encoding: 65615 -1 93
Width: 0
VWidth: 1000
Flags: HW
LayerCount: 2
Fore
SplineSet
-775 55 m 0
 -775 61.2201 -760.333 83.8867 -731 123 c 1
 -719.667 136.333 -711.667 143.333 -707 144 c 0
 -699 144 -674.667 127.333 -634 94 c 2
 -629 90 l 2
 -617 80.6667 -610.333 72 -609 64 c 1
 -609 50.6667 -622.667 28.6667 -650 -2 c 0
 -662.667 -16.6667 -670.667 -24 -674 -24 c 0
 -679.333 -24 -700.667 -9.66667 -738 19 c 0
 -759.867 35.3997 -771.533 45.0664 -773 48 c 0
 -774.333 50 -775 52.3333 -775 55 c 0
-525 57 m 0
 -525 63.2201 -510.333 85.8867 -481 125 c 1
 -469.667 138.333 -461.667 145.333 -457 146 c 0
 -449 146 -424.667 129.333 -384 96 c 2
 -379 92 l 2
 -367 82.6667 -360.333 74 -359 66 c 1
 -359 52.6667 -372.667 30.6667 -400 0 c 0
 -412.667 -14.6667 -420.667 -22 -424 -22 c 0
 -429.333 -22 -450.667 -7.66667 -488 21 c 0
 -509.867 37.3997 -521.533 47.0664 -523 50 c 0
 -524.333 52 -525 54.3333 -525 57 c 0
EndSplineSet
Validated: 1
EndChar

StartChar: tehtaYB.shift1
Encoding: 65616 -1 94
Width: 0
VWidth: 1043
Flags: HW
LayerCount: 2
Fore
SplineSet
-126 -394 m 0
 -126 -387.78 -111.333 -365.113 -82 -326 c 1
 -70.6667 -312.667 -62.6667 -305.667 -58 -305 c 0
 -50 -305 -25.6667 -321.667 15 -355 c 2
 20 -359 l 2
 32 -368.333 38.6667 -377 40 -385 c 1
 40 -398.333 26.3333 -420.333 -1 -451 c 0
 -13.6667 -465.667 -21.6667 -473 -25 -473 c 0
 -30.3333 -473 -51.6667 -458.667 -89 -430 c 0
 -110.867 -413.6 -122.533 -403.934 -124 -401 c 0
 -125.333 -399 -126 -396.667 -126 -394 c 0
-376 -396 m 0
 -376 -389.78 -361.333 -367.113 -332 -328 c 1
 -320.667 -314.667 -312.667 -307.667 -308 -307 c 0
 -300 -307 -275.667 -323.667 -235 -357 c 2
 -230 -361 l 2
 -218 -370.333 -211.333 -379 -210 -387 c 1
 -210 -400.333 -223.667 -422.333 -251 -453 c 0
 -263.667 -467.667 -271.667 -475 -275 -475 c 0
 -280.333 -475 -301.667 -460.667 -339 -432 c 0
 -360.867 -415.6 -372.533 -405.934 -374 -403 c 0
 -375.333 -401 -376 -398.667 -376 -396 c 0
EndSplineSet
Validated: 1
EndChar

StartChar: tehtaYB.shift2
Encoding: 65617 -1 95
Width: 0
VWidth: 1043
Flags: HW
LayerCount: 2
Fore
SplineSet
-298 -394 m 0
 -298 -387.78 -283.333 -365.113 -254 -326 c 1
 -242.667 -312.667 -234.667 -305.667 -230 -305 c 0
 -222 -305 -197.667 -321.667 -157 -355 c 2
 -152 -359 l 2
 -140 -368.333 -133.333 -377 -132 -385 c 1
 -132 -398.333 -145.667 -420.333 -173 -451 c 0
 -185.667 -465.667 -193.667 -473 -197 -473 c 0
 -202.333 -473 -223.667 -458.667 -261 -430 c 0
 -282.867 -413.6 -294.533 -403.934 -296 -401 c 0
 -297.333 -399 -298 -396.667 -298 -394 c 0
-548 -396 m 0
 -548 -389.78 -533.333 -367.113 -504 -328 c 1
 -492.667 -314.667 -484.667 -307.667 -480 -307 c 0
 -472 -307 -447.667 -323.667 -407 -357 c 2
 -402 -361 l 2
 -390 -370.333 -383.333 -379 -382 -387 c 1
 -382 -400.333 -395.667 -422.333 -423 -453 c 0
 -435.667 -467.667 -443.667 -475 -447 -475 c 0
 -452.333 -475 -473.667 -460.667 -511 -432 c 0
 -532.867 -415.6 -544.533 -405.934 -546 -403 c 0
 -547.333 -401 -548 -398.667 -548 -396 c 0
EndSplineSet
Validated: 1
EndChar

StartChar: tehtaYB.shift3
Encoding: 65618 -1 96
Width: 0
VWidth: 1000
Flags: HW
LayerCount: 2
Fore
SplineSet
-396 -394 m 0
 -396 -387.78 -381.333 -365.113 -352 -326 c 1
 -340.667 -312.667 -332.667 -305.667 -328 -305 c 0
 -320 -305 -295.667 -321.667 -255 -355 c 2
 -250 -359 l 2
 -238 -368.333 -231.333 -377 -230 -385 c 1
 -230 -398.333 -243.667 -420.333 -271 -451 c 0
 -283.667 -465.667 -291.667 -473 -295 -473 c 0
 -300.333 -473 -321.667 -458.667 -359 -430 c 0
 -380.867 -413.6 -392.533 -403.934 -394 -401 c 0
 -395.333 -399 -396 -396.667 -396 -394 c 0
-646 -396 m 0
 -646 -389.78 -631.333 -367.113 -602 -328 c 1
 -590.667 -314.667 -582.667 -307.667 -578 -307 c 0
 -570 -307 -545.667 -323.667 -505 -357 c 2
 -500 -361 l 2
 -488 -370.333 -481.333 -379 -480 -387 c 1
 -480 -400.333 -493.667 -422.333 -521 -453 c 0
 -533.667 -467.667 -541.667 -475 -545 -475 c 0
 -550.333 -475 -571.667 -460.667 -609 -432 c 0
 -630.867 -415.6 -642.533 -405.934 -644 -403 c 0
 -645.333 -401 -646 -398.667 -646 -396 c 0
EndSplineSet
Validated: 1
EndChar

StartChar: tehtaYB.shift4
Encoding: 65619 -1 97
Width: 0
VWidth: 1000
Flags: HW
LayerCount: 2
Fore
SplineSet
-525 -394 m 0
 -525 -387.78 -510.333 -365.113 -481 -326 c 1
 -469.667 -312.667 -461.667 -305.667 -457 -305 c 0
 -449 -305 -424.667 -321.667 -384 -355 c 2
 -379 -359 l 2
 -367 -368.333 -360.333 -377 -359 -385 c 1
 -359 -398.333 -372.667 -420.333 -400 -451 c 0
 -412.667 -465.667 -420.667 -473 -424 -473 c 0
 -429.333 -473 -450.667 -458.667 -488 -430 c 0
 -509.867 -413.6 -521.533 -403.934 -523 -401 c 0
 -524.333 -399 -525 -396.667 -525 -394 c 0
-775 -396 m 0
 -775 -389.78 -760.333 -367.113 -731 -328 c 1
 -719.667 -314.667 -711.667 -307.667 -707 -307 c 0
 -699 -307 -674.667 -323.667 -634 -357 c 2
 -629 -361 l 2
 -617 -370.333 -610.333 -379 -609 -387 c 1
 -609 -400.333 -622.667 -422.333 -650 -453 c 0
 -662.667 -467.667 -670.667 -475 -674 -475 c 0
 -679.333 -475 -700.667 -460.667 -738 -432 c 0
 -759.867 -415.6 -771.533 -405.934 -773 -403 c 0
 -774.333 -401 -775 -398.667 -775 -396 c 0
EndSplineSet
Validated: 1
EndChar

StartChar: tehtaI.shift1
Encoding: 65620 -1 98
Width: 0
VWidth: 1000
Flags: HW
LayerCount: 2
Fore
SplineSet
-226 1087 m 0
 -226 1093.22 -211.333 1115.89 -182 1155 c 1
 -170.667 1168.33 -162.667 1175.33 -158 1176 c 0
 -150 1176 -125.667 1159.33 -85 1126 c 2
 -80 1122 l 2
 -68 1112.67 -61.3333 1104 -60 1096 c 1
 -60 1082.67 -73.6667 1060.67 -101 1030 c 0
 -113.667 1015.33 -121.667 1008 -125 1008 c 0
 -130.333 1008 -151.667 1022.33 -189 1051 c 0
 -210.867 1067.4 -222.533 1077.07 -224 1080 c 0
 -225.333 1082 -226 1084.33 -226 1087 c 0
EndSplineSet
Validated: 1
EndChar

StartChar: tehtaI.shift2
Encoding: 65621 -1 99
Width: 0
VWidth: 1000
Flags: HW
LayerCount: 2
Fore
SplineSet
-422 1087 m 0
 -422 1093.22 -407.333 1115.89 -378 1155 c 1
 -366.667 1168.33 -358.667 1175.33 -354 1176 c 0
 -346 1176 -321.667 1159.33 -281 1126 c 2
 -276 1122 l 2
 -264 1112.67 -257.333 1104 -256 1096 c 1
 -256 1082.67 -269.667 1060.67 -297 1030 c 0
 -309.667 1015.33 -317.667 1008 -321 1008 c 0
 -326.333 1008 -347.667 1022.33 -385 1051 c 0
 -406.867 1067.4 -418.533 1077.07 -420 1080 c 0
 -421.333 1082 -422 1084.33 -422 1087 c 0
EndSplineSet
Validated: 1
EndChar

StartChar: tehtaI.shift3
Encoding: 65622 -1 100
Width: 0
VWidth: 1000
Flags: HW
LayerCount: 2
Fore
SplineSet
-568 1087 m 0
 -568 1093.22 -553.333 1115.89 -524 1155 c 1
 -512.667 1168.33 -504.667 1175.33 -500 1176 c 0
 -492 1176 -467.667 1159.33 -427 1126 c 2
 -422 1122 l 2
 -410 1112.67 -403.333 1104 -402 1096 c 1
 -402 1082.67 -415.667 1060.67 -443 1030 c 0
 -455.667 1015.33 -463.667 1008 -467 1008 c 0
 -472.333 1008 -493.667 1022.33 -531 1051 c 0
 -552.867 1067.4 -564.533 1077.07 -566 1080 c 0
 -567.333 1082 -568 1084.33 -568 1087 c 0
EndSplineSet
Validated: 1
EndChar

StartChar: tehtaI.shift4
Encoding: 65623 -1 101
Width: 0
VWidth: 1000
Flags: HW
LayerCount: 2
Fore
SplineSet
-662 1087 m 0
 -662 1093.22 -647.333 1115.89 -618 1155 c 1
 -606.667 1168.33 -598.667 1175.33 -594 1176 c 0
 -586 1176 -561.667 1159.33 -521 1126 c 2
 -516 1122 l 2
 -504 1112.67 -497.333 1104 -496 1096 c 1
 -496 1082.67 -509.667 1060.67 -537 1030 c 0
 -549.667 1015.33 -557.667 1008 -561 1008 c 0
 -566.333 1008 -587.667 1022.33 -625 1051 c 0
 -646.867 1067.4 -658.533 1077.07 -660 1080 c 0
 -661.333 1082 -662 1084.33 -662 1087 c 0
EndSplineSet
Validated: 1
EndChar

StartChar: tehtaIB.lambe
Encoding: 65624 -1 102
Width: 0
VWidth: 1000
Flags: HW
LayerCount: 2
Fore
SplineSet
-644 10 m 0
 -644 16.2201 -629.333 38.8867 -600 78 c 1
 -588.667 91.3333 -580.667 98.3333 -576 99 c 0
 -568 99 -543.667 82.3333 -503 49 c 2
 -498 45 l 2
 -486 35.6667 -479.333 27 -478 19 c 1
 -478 5.66667 -491.667 -16.3333 -519 -47 c 0
 -531.667 -61.6667 -539.667 -69 -543 -69 c 0
 -548.333 -69 -569.667 -54.6667 -607 -26 c 0
 -628.867 -9.60026 -640.533 0.0664072 -642 3 c 0
 -643.333 5 -644 7.33333 -644 10 c 0
EndSplineSet
Validated: 1
EndChar

StartChar: tehtaIB.shift1
Encoding: 65625 -1 103
Width: 0
VWidth: 1000
Flags: HW
LayerCount: 2
Fore
SplineSet
-226 -398 m 0
 -226 -391.78 -211.333 -369.113 -182 -330 c 1
 -170.667 -316.667 -162.667 -309.667 -158 -309 c 0
 -150 -309 -125.667 -325.667 -85 -359 c 2
 -80 -363 l 2
 -68 -372.333 -61.3333 -381 -60 -389 c 1
 -60 -402.333 -73.6667 -424.333 -101 -455 c 0
 -113.667 -469.667 -121.667 -477 -125 -477 c 0
 -130.333 -477 -151.667 -462.667 -189 -434 c 0
 -210.867 -417.6 -222.533 -407.934 -224 -405 c 0
 -225.333 -403 -226 -400.667 -226 -398 c 0
EndSplineSet
Validated: 1
EndChar

StartChar: tehtaIB.shift2
Encoding: 65626 -1 104
Width: 0
VWidth: 1000
Flags: HW
LayerCount: 2
Fore
SplineSet
-422 -396 m 0
 -422 -389.78 -407.333 -367.113 -378 -328 c 1
 -366.667 -314.667 -358.667 -307.667 -354 -307 c 0
 -346 -307 -321.667 -323.667 -281 -357 c 2
 -276 -361 l 2
 -264 -370.333 -257.333 -379 -256 -387 c 1
 -256 -400.333 -269.667 -422.333 -297 -453 c 0
 -309.667 -467.667 -317.667 -475 -321 -475 c 0
 -326.333 -475 -347.667 -460.667 -385 -432 c 0
 -406.867 -415.6 -418.533 -405.934 -420 -403 c 0
 -421.333 -401 -422 -398.667 -422 -396 c 0
EndSplineSet
Validated: 1
EndChar

StartChar: tehtaIB.shift3
Encoding: 65627 -1 105
Width: 0
VWidth: 1000
Flags: HW
LayerCount: 2
Fore
SplineSet
-533 -396 m 0
 -533 -389.78 -518.333 -367.113 -489 -328 c 1
 -477.667 -314.667 -469.667 -307.667 -465 -307 c 0
 -457 -307 -432.667 -323.667 -392 -357 c 2
 -387 -361 l 2
 -375 -370.333 -368.333 -379 -367 -387 c 1
 -367 -400.333 -380.667 -422.333 -408 -453 c 0
 -420.667 -467.667 -428.667 -475 -432 -475 c 0
 -437.333 -475 -458.667 -460.667 -496 -432 c 0
 -517.867 -415.6 -529.533 -405.934 -531 -403 c 0
 -532.333 -401 -533 -398.667 -533 -396 c 0
EndSplineSet
Validated: 1
EndChar

StartChar: tehtaIB.shift35
Encoding: 65628 -1 106
Width: 0
VWidth: 1000
Flags: HW
LayerCount: 2
Fore
SplineSet
-568 -398 m 0
 -568 -391.78 -553.333 -369.113 -524 -330 c 1
 -512.667 -316.667 -504.667 -309.667 -500 -309 c 0
 -492 -309 -467.667 -325.667 -427 -359 c 2
 -422 -363 l 2
 -410 -372.333 -403.333 -381 -402 -389 c 1
 -402 -402.333 -415.667 -424.333 -443 -455 c 0
 -455.667 -469.667 -463.667 -477 -467 -477 c 0
 -472.333 -477 -493.667 -462.667 -531 -434 c 0
 -552.867 -417.6 -564.533 -407.934 -566 -405 c 0
 -567.333 -403 -568 -400.667 -568 -398 c 0
EndSplineSet
Validated: 1
EndChar

StartChar: tehtaIB.shift4
Encoding: 65629 -1 107
Width: 0
VWidth: 1000
Flags: HW
LayerCount: 2
Fore
SplineSet
-662 -396 m 0
 -662 -389.78 -647.333 -367.113 -618 -328 c 1
 -606.667 -314.667 -598.667 -307.667 -594 -307 c 0
 -586 -307 -561.667 -323.667 -521 -357 c 2
 -516 -361 l 2
 -504 -370.333 -497.333 -379 -496 -387 c 1
 -496 -400.333 -509.667 -422.333 -537 -453 c 0
 -549.667 -467.667 -557.667 -475 -561 -475 c 0
 -566.333 -475 -587.667 -460.667 -625 -432 c 0
 -646.867 -415.6 -658.533 -405.934 -660 -403 c 0
 -661.333 -401 -662 -398.667 -662 -396 c 0
EndSplineSet
Validated: 1
EndChar

StartChar: tehtaE.shift1
Encoding: 65630 -1 108
Width: 0
VWidth: 1000
Flags: HW
LayerCount: 2
Fore
SplineSet
-43 1270 m 0
 -23.6667 1270 -14 1259 -14 1237 c 0
 -14 1225 -21.6667 1211.33 -37 1196 c 0
 -57 1174.67 -124 1119.33 -238 1030 c 0
 -302 980 -337.333 954.667 -344 954 c 2
 -348 954 l 2
 -350.667 954 -353.333 957 -356 963 c 1
 -356 975 -291.333 1047 -162 1179 c 0
 -118 1223.67 -93.3333 1247.67 -88 1251 c 0
 -71.3333 1263.67 -56.3333 1270 -43 1270 c 0
EndSplineSet
Validated: 1
EndChar

StartChar: tehtaE.shift2
Encoding: 65631 -1 109
Width: 0
VWidth: 1000
Flags: HW
LayerCount: 2
Fore
SplineSet
-172 1270 m 0
 -152.667 1270 -143 1259 -143 1237 c 0
 -143 1225 -150.667 1211.33 -166 1196 c 0
 -186 1174.67 -253 1119.33 -367 1030 c 0
 -431 980 -466.333 954.667 -473 954 c 2
 -477 954 l 2
 -479.667 954 -482.333 957 -485 963 c 1
 -485 975 -420.333 1047 -291 1179 c 0
 -247 1223.67 -222.333 1247.67 -217 1251 c 0
 -200.333 1263.67 -185.333 1270 -172 1270 c 0
EndSplineSet
Validated: 1
EndChar

StartChar: tehtaE.shift3
Encoding: 65632 -1 110
Width: 0
VWidth: 1000
Flags: HW
LayerCount: 2
Fore
SplineSet
-303 1270 m 0
 -283.667 1270 -274 1259 -274 1237 c 0
 -274 1225 -281.667 1211.33 -297 1196 c 0
 -317 1174.67 -384 1119.33 -498 1030 c 0
 -562 980 -597.333 954.667 -604 954 c 2
 -608 954 l 2
 -610.667 954 -613.333 957 -616 963 c 1
 -616 975 -551.333 1047 -422 1179 c 0
 -378 1223.67 -353.333 1247.67 -348 1251 c 0
 -331.333 1263.67 -316.333 1270 -303 1270 c 0
EndSplineSet
Validated: 1
EndChar

StartChar: tehtaE.shift4
Encoding: 65633 -1 111
Width: 0
VWidth: 1000
Flags: HW
LayerCount: 2
Fore
SplineSet
-432 1270 m 0
 -412.667 1270 -403 1259 -403 1237 c 0
 -403 1225 -410.667 1211.33 -426 1196 c 0
 -446 1174.67 -513 1119.33 -627 1030 c 0
 -691 980 -726.333 954.667 -733 954 c 2
 -737 954 l 2
 -739.667 954 -742.333 957 -745 963 c 1
 -745 975 -680.333 1047 -551 1179 c 0
 -507 1223.67 -482.333 1247.67 -477 1251 c 0
 -460.333 1263.67 -445.333 1270 -432 1270 c 0
EndSplineSet
Validated: 1
EndChar

StartChar: tehtaEB.shift1
Encoding: 65634 -1 112
Width: 0
VWidth: 1000
Flags: HW
LayerCount: 2
Fore
SplineSet
-43 -280 m 0
 -23.6667 -280 -14 -291 -14 -313 c 0
 -14 -325 -21.6667 -338.667 -37 -354 c 0
 -57 -375.333 -124 -430.667 -238 -520 c 0
 -302 -570 -337.333 -595.333 -344 -596 c 2
 -348 -596 l 2
 -350.667 -596 -353.333 -593 -356 -587 c 1
 -356 -575 -291.333 -503 -162 -371 c 0
 -118 -326.333 -93.3333 -302.333 -88 -299 c 0
 -71.3333 -286.333 -56.3333 -280 -43 -280 c 0
EndSplineSet
Validated: 1
EndChar

StartChar: tehtaEB.shift2
Encoding: 65635 -1 113
Width: 0
VWidth: 1000
Flags: HW
LayerCount: 2
Fore
SplineSet
-172 -280 m 0
 -152.667 -280 -143 -291 -143 -313 c 0
 -143 -325 -150.667 -338.667 -166 -354 c 0
 -186 -375.333 -253 -430.667 -367 -520 c 0
 -431 -570 -466.333 -595.333 -473 -596 c 2
 -477 -596 l 2
 -479.667 -596 -482.333 -593 -485 -587 c 1
 -485 -575 -420.333 -503 -291 -371 c 0
 -247 -326.333 -222.333 -302.333 -217 -299 c 0
 -200.333 -286.333 -185.333 -280 -172 -280 c 0
EndSplineSet
Validated: 1
EndChar

StartChar: tehtaEB.shift3
Encoding: 65636 -1 114
Width: 0
VWidth: 1000
Flags: HW
LayerCount: 2
Fore
SplineSet
-303 -280 m 0
 -283.667 -280 -274 -291 -274 -313 c 0
 -274 -325 -281.667 -338.667 -297 -354 c 0
 -317 -375.333 -384 -430.667 -498 -520 c 0
 -562 -570 -597.333 -595.333 -604 -596 c 2
 -608 -596 l 2
 -610.667 -596 -613.333 -593 -616 -587 c 1
 -616 -575 -551.333 -503 -422 -371 c 0
 -378 -326.333 -353.333 -302.333 -348 -299 c 0
 -331.333 -286.333 -316.333 -280 -303 -280 c 0
EndSplineSet
Validated: 1
EndChar

StartChar: tehtaEB.shift4
Encoding: 65637 -1 115
Width: 0
VWidth: 1000
Flags: HW
LayerCount: 2
Fore
SplineSet
-432 -280 m 0
 -412.667 -280 -403 -291 -403 -313 c 0
 -403 -325 -410.667 -338.667 -426 -354 c 0
 -446 -375.333 -513 -430.667 -627 -520 c 0
 -691 -570 -726.333 -595.333 -733 -596 c 2
 -737 -596 l 2
 -739.667 -596 -742.333 -593 -745 -587 c 1
 -745 -575 -680.333 -503 -551 -371 c 0
 -507 -326.333 -482.333 -302.333 -477 -299 c 0
 -460.333 -286.333 -445.333 -280 -432 -280 c 0
EndSplineSet
Validated: 1
EndChar

StartChar: tehtaEEB.lambe
Encoding: 65638 -1 116
Width: 0
VWidth: 1000
Flags: HW
LayerCount: 2
Fore
SplineSet
-471 250 m 0
 -451.667 250 -442 239 -442 217 c 0
 -442 205 -449.667 191.333 -465 176 c 0
 -485 154.667 -552 99.3333 -666 10 c 0
 -730 -40 -765.333 -65.3333 -772 -66 c 2
 -776 -66 l 2
 -778.667 -66 -781.333 -63 -784 -57 c 1
 -784 -45 -719.333 27 -590 159 c 0
 -546 203.667 -521.333 227.667 -516 231 c 0
 -499.333 243.667 -484.333 250 -471 250 c 0
-373 209 m 0
 -353.667 209 -344 198 -344 176 c 0
 -344 164 -351.667 150.333 -367 135 c 0
 -387 113.667 -454 58.3333 -568 -31 c 0
 -632 -81 -667.333 -106.333 -674 -107 c 2
 -678 -107 l 2
 -680.667 -107 -683.333 -104 -686 -98 c 1
 -686 -86 -621.333 -14 -492 118 c 0
 -448 162.667 -423.333 186.667 -418 190 c 0
 -401.333 202.667 -386.333 209 -373 209 c 0
EndSplineSet
Validated: 1
EndChar

StartChar: tehtaEEB.shift1
Encoding: 65639 -1 117
Width: 0
VWidth: 1000
Flags: HW
LayerCount: 2
Fore
SplineSet
16 -301 m 0
 35.3333 -301 45 -312 45 -334 c 0
 45 -346 37.3333 -359.667 22 -375 c 0
 2 -396.333 -65 -451.667 -179 -541 c 0
 -243 -591 -278.333 -616.333 -285 -617 c 2
 -289 -617 l 2
 -291.667 -617 -294.333 -614 -297 -608 c 1
 -297 -596 -232.333 -524 -103 -392 c 0
 -59 -347.333 -34.3333 -323.333 -29 -320 c 0
 -12.3333 -307.333 2.66667 -301 16 -301 c 0
-82 -260 m 0
 -62.6667 -260 -53 -271 -53 -293 c 0
 -53 -305 -60.6667 -318.667 -76 -334 c 0
 -96 -355.333 -163 -410.667 -277 -500 c 0
 -341 -550 -376.333 -575.333 -383 -576 c 2
 -387 -576 l 2
 -389.667 -576 -392.333 -573 -395 -567 c 1
 -395 -555 -330.333 -483 -201 -351 c 0
 -157 -306.333 -132.333 -282.333 -127 -279 c 0
 -110.333 -266.333 -95.3333 -260 -82 -260 c 0
EndSplineSet
Validated: 1
EndChar

StartChar: tehtaEEB.shift2
Encoding: 65640 -1 118
Width: 0
VWidth: 1000
Flags: HW
LayerCount: 2
Fore
SplineSet
-144 -301 m 0
 -124.667 -301 -115 -312 -115 -334 c 0
 -115 -346 -122.667 -359.667 -138 -375 c 0
 -158 -396.333 -225 -451.667 -339 -541 c 0
 -403 -591 -438.333 -616.333 -445 -617 c 2
 -449 -617 l 2
 -451.667 -617 -454.333 -614 -457 -608 c 1
 -457 -596 -392.333 -524 -263 -392 c 0
 -219 -347.333 -194.333 -323.333 -189 -320 c 0
 -172.333 -307.333 -157.333 -301 -144 -301 c 0
-242 -260 m 0
 -222.667 -260 -213 -271 -213 -293 c 0
 -213 -305 -220.667 -318.667 -236 -334 c 0
 -256 -355.333 -323 -410.667 -437 -500 c 0
 -501 -550 -536.333 -575.333 -543 -576 c 2
 -547 -576 l 2
 -549.667 -576 -552.333 -573 -555 -567 c 1
 -555 -555 -490.333 -483 -361 -351 c 0
 -317 -306.333 -292.333 -282.333 -287 -279 c 0
 -270.333 -266.333 -255.333 -260 -242 -260 c 0
EndSplineSet
Validated: 1
EndChar

StartChar: tehtaEEB.shift3
Encoding: 65641 -1 119
Width: 0
VWidth: 1000
Flags: HW
LayerCount: 2
Fore
SplineSet
-275 -301 m 0
 -255.667 -301 -246 -312 -246 -334 c 0
 -246 -346 -253.667 -359.667 -269 -375 c 0
 -289 -396.333 -356 -451.667 -470 -541 c 0
 -534 -591 -569.333 -616.333 -576 -617 c 2
 -580 -617 l 2
 -582.667 -617 -585.333 -614 -588 -608 c 1
 -588 -596 -523.333 -524 -394 -392 c 0
 -350 -347.333 -325.333 -323.333 -320 -320 c 0
 -303.333 -307.333 -288.333 -301 -275 -301 c 0
-373 -260 m 0
 -353.667 -260 -344 -271 -344 -293 c 0
 -344 -305 -351.667 -318.667 -367 -334 c 0
 -387 -355.333 -454 -410.667 -568 -500 c 0
 -632 -550 -667.333 -575.333 -674 -576 c 2
 -678 -576 l 2
 -680.667 -576 -683.333 -573 -686 -567 c 1
 -686 -555 -621.333 -483 -492 -351 c 0
 -448 -306.333 -423.333 -282.333 -418 -279 c 0
 -401.333 -266.333 -386.333 -260 -373 -260 c 0
EndSplineSet
Validated: 1
EndChar

StartChar: tehtaEEB.shift4
Encoding: 65642 -1 120
Width: 0
VWidth: 1000
Flags: HW
LayerCount: 2
Fore
SplineSet
-373 -301 m 0
 -353.667 -301 -344 -312 -344 -334 c 0
 -344 -346 -351.667 -359.667 -367 -375 c 0
 -387 -396.333 -454 -451.667 -568 -541 c 0
 -632 -591 -667.333 -616.333 -674 -617 c 2
 -678 -617 l 2
 -680.667 -617 -683.333 -614 -686 -608 c 1
 -686 -596 -621.333 -524 -492 -392 c 0
 -448 -347.333 -423.333 -323.333 -418 -320 c 0
 -401.333 -307.333 -386.333 -301 -373 -301 c 0
-471 -260 m 0
 -451.667 -260 -442 -271 -442 -293 c 0
 -442 -305 -449.667 -318.667 -465 -334 c 0
 -485 -355.333 -552 -410.667 -666 -500 c 0
 -730 -550 -765.333 -575.333 -772 -576 c 2
 -776 -576 l 2
 -778.667 -576 -781.333 -573 -784 -567 c 1
 -784 -555 -719.333 -483 -590 -351 c 0
 -546 -306.333 -521.333 -282.333 -516 -279 c 0
 -499.333 -266.333 -484.333 -260 -471 -260 c 0
EndSplineSet
Validated: 1
EndChar

StartChar: tehtaO.shift1
Encoding: 65643 -1 121
Width: 0
VWidth: 1000
Flags: HW
LayerCount: 2
Fore
SplineSet
10 1300 m 0
 42 1300 58 1279 58 1237 c 0
 58 1201 38 1166.33 -2 1133 c 0
 -25.3333 1112.33 -41.6667 1102 -51 1102 c 0
 -57.6667 1102 -61 1104.67 -61 1110 c 0
 -61 1112.67 -54.6667 1120 -42 1132 c 0
 -27.3333 1147.33 -20 1162 -20 1176 c 0
 -20 1194 -26 1206.67 -38 1214 c 0
 -41.3333 1216 -44.3333 1217 -47 1217 c 0
 -75 1217 -144.333 1154 -255 1028 c 2
 -282 997 l 2
 -318 955 -342 934 -354 934 c 0
 -359.333 934 -362 936 -362 940 c 0
 -362 951.333 -335 990 -281 1056 c 0
 -191.667 1166.67 -115.333 1240.67 -52 1278 c 0
 -27.3333 1292.67 -6.66667 1300 10 1300 c 0
EndSplineSet
Validated: 1
EndChar

StartChar: tehtaO.shift2
Encoding: 65644 -1 122
Width: 0
VWidth: 1000
Flags: HW
LayerCount: 2
Fore
SplineSet
-129 1300 m 0
 -97 1300 -81 1279 -81 1237 c 0
 -81 1201 -101 1166.33 -141 1133 c 0
 -164.333 1112.33 -180.667 1102 -190 1102 c 0
 -196.667 1102 -200 1104.67 -200 1110 c 0
 -200 1112.67 -193.667 1120 -181 1132 c 0
 -166.333 1147.33 -159 1162 -159 1176 c 0
 -159 1194 -165 1206.67 -177 1214 c 0
 -180.333 1216 -183.333 1217 -186 1217 c 0
 -214 1217 -283.333 1154 -394 1028 c 2
 -421 997 l 2
 -457 955 -481 934 -493 934 c 0
 -498.333 934 -501 936 -501 940 c 0
 -501 951.333 -474 990 -420 1056 c 0
 -330.667 1166.67 -254.333 1240.67 -191 1278 c 0
 -166.333 1292.67 -145.667 1300 -129 1300 c 0
EndSplineSet
Validated: 1
EndChar

StartChar: tehtaO.shift3
Encoding: 65645 -1 123
Width: 0
VWidth: 1000
Flags: HW
LayerCount: 2
Fore
SplineSet
-271 1300 m 0
 -239 1300 -223 1279 -223 1237 c 0
 -223 1201 -243 1166.33 -283 1133 c 0
 -306.333 1112.33 -322.667 1102 -332 1102 c 0
 -338.667 1102 -342 1104.67 -342 1110 c 0
 -342 1112.67 -335.667 1120 -323 1132 c 0
 -308.333 1147.33 -301 1162 -301 1176 c 0
 -301 1194 -307 1206.67 -319 1214 c 0
 -322.333 1216 -325.333 1217 -328 1217 c 0
 -356 1217 -425.333 1154 -536 1028 c 2
 -563 997 l 2
 -599 955 -623 934 -635 934 c 0
 -640.333 934 -643 936 -643 940 c 0
 -643 951.333 -616 990 -562 1056 c 0
 -472.667 1166.67 -396.333 1240.67 -333 1278 c 0
 -308.333 1292.67 -287.667 1300 -271 1300 c 0
EndSplineSet
Validated: 1
EndChar

StartChar: tehtaO.shift4
Encoding: 65646 -1 124
Width: 0
VWidth: 1000
Flags: HW
LayerCount: 2
Fore
SplineSet
-408 1300 m 0
 -376 1300 -360 1279 -360 1237 c 0
 -360 1201 -380 1166.33 -420 1133 c 0
 -443.333 1112.33 -459.667 1102 -469 1102 c 0
 -475.667 1102 -479 1104.67 -479 1110 c 0
 -479 1112.67 -472.667 1120 -460 1132 c 0
 -445.333 1147.33 -438 1162 -438 1176 c 0
 -438 1194 -444 1206.67 -456 1214 c 0
 -459.333 1216 -462.333 1217 -465 1217 c 0
 -493 1217 -562.333 1154 -673 1028 c 2
 -700 997 l 2
 -736 955 -760 934 -772 934 c 0
 -777.333 934 -780 936 -780 940 c 0
 -780 951.333 -753 990 -699 1056 c 0
 -609.667 1166.67 -533.333 1240.67 -470 1278 c 0
 -445.333 1292.67 -424.667 1300 -408 1300 c 0
EndSplineSet
Validated: 1
EndChar

StartChar: tehtaOB.shift1
Encoding: 65647 -1 125
Width: 0
VWidth: 1000
Flags: HW
LayerCount: 2
Fore
SplineSet
-301 -623 m 1
 -341.667 -623 -362 -602.667 -362 -562 c 0
 -362 -507.333 -308 -435 -200 -345 c 0
 -134 -289.667 -80.3333 -252.333 -39 -233 c 0
 -32.3333 -229.667 -27.6667 -228 -25 -228 c 0
 -21.6667 -228 -20 -229.333 -20 -232 c 0
 -20 -238 -43.3333 -259.667 -90 -297 c 0
 -172.667 -362.333 -226.333 -412.333 -251 -447 c 0
 -267.667 -470.333 -276 -490.667 -276 -508 c 0
 -276 -539.333 -266 -556 -246 -558 c 1
 -223.333 -558 -189.333 -535.667 -144 -491 c 0
 -119.333 -467 -104.667 -455 -100 -455 c 0
 -97.3333 -455 -96 -456.333 -96 -459 c 0
 -96 -470.333 -115 -494.667 -153 -532 c 1
 -215 -590 -264.333 -620.333 -301 -623 c 1
EndSplineSet
Validated: 1
EndChar

StartChar: tehtaOB.shift2
Encoding: 65648 -1 126
Width: 0
VWidth: 1000
Flags: HW
LayerCount: 2
Fore
SplineSet
-441 -623 m 1
 -481.667 -623 -502 -602.667 -502 -562 c 0
 -502 -507.333 -448 -435 -340 -345 c 0
 -274 -289.667 -220.333 -252.333 -179 -233 c 0
 -172.333 -229.667 -167.667 -228 -165 -228 c 0
 -161.667 -228 -160 -229.333 -160 -232 c 0
 -160 -238 -183.333 -259.667 -230 -297 c 0
 -312.667 -362.333 -366.333 -412.333 -391 -447 c 0
 -407.667 -470.333 -416 -490.667 -416 -508 c 0
 -416 -539.333 -406 -556 -386 -558 c 1
 -363.333 -558 -329.333 -535.667 -284 -491 c 0
 -259.333 -467 -244.667 -455 -240 -455 c 0
 -237.333 -455 -236 -456.333 -236 -459 c 0
 -236 -470.333 -255 -494.667 -293 -532 c 1
 -355 -590 -404.333 -620.333 -441 -623 c 1
EndSplineSet
Validated: 1
EndChar

StartChar: tehtaOB.shift3
Encoding: 65649 -1 127
Width: 0
VWidth: 1000
Flags: HW
LayerCount: 2
Fore
SplineSet
-590 -623 m 1
 -630.667 -623 -651 -602.667 -651 -562 c 0
 -651 -507.333 -597 -435 -489 -345 c 0
 -423 -289.667 -369.333 -252.333 -328 -233 c 0
 -321.333 -229.667 -316.667 -228 -314 -228 c 0
 -310.667 -228 -309 -229.333 -309 -232 c 0
 -309 -238 -332.333 -259.667 -379 -297 c 0
 -461.667 -362.333 -515.333 -412.333 -540 -447 c 0
 -556.667 -470.333 -565 -490.667 -565 -508 c 0
 -565 -539.333 -555 -556 -535 -558 c 1
 -512.333 -558 -478.333 -535.667 -433 -491 c 0
 -408.333 -467 -393.667 -455 -389 -455 c 0
 -386.333 -455 -385 -456.333 -385 -459 c 0
 -385 -470.333 -404 -494.667 -442 -532 c 1
 -504 -590 -553.333 -620.333 -590 -623 c 1
EndSplineSet
Validated: 1
EndChar

StartChar: tehtaOB.shift4
Encoding: 65650 -1 128
Width: 0
VWidth: 1000
Flags: HW
LayerCount: 2
Fore
SplineSet
-731 -623 m 1
 -771.667 -623 -792 -602.667 -792 -562 c 0
 -792 -507.333 -738 -435 -630 -345 c 0
 -564 -289.667 -510.333 -252.333 -469 -233 c 0
 -462.333 -229.667 -457.667 -228 -455 -228 c 0
 -451.667 -228 -450 -229.333 -450 -232 c 0
 -450 -238 -473.333 -259.667 -520 -297 c 0
 -602.667 -362.333 -656.333 -412.333 -681 -447 c 0
 -697.667 -470.333 -706 -490.667 -706 -508 c 0
 -706 -539.333 -696 -556 -676 -558 c 1
 -653.333 -558 -619.333 -535.667 -574 -491 c 0
 -549.333 -467 -534.667 -455 -530 -455 c 0
 -527.333 -455 -526 -456.333 -526 -459 c 0
 -526 -470.333 -545 -494.667 -583 -532 c 1
 -645 -590 -694.333 -620.333 -731 -623 c 1
EndSplineSet
Validated: 1
EndChar

StartChar: tehtaU.altshift1
Encoding: 65651 -1 129
Width: 0
VWidth: 1000
Flags: HW
LayerCount: 2
Fore
SplineSet
-415 1237 m 0
 -415 1279 -399.333 1300 -368 1300 c 0
 -317.333 1300 -238.667 1240.33 -132 1121 c 0
 -67.3333 1049 -23.6667 993 -1 953 c 0
 2.33333 946.333 4 942 4 940 c 0
 4 936 1.33333 934 -4 934 c 0
 -16 934 -40 955 -76 997 c 0
 -142.667 1076.33 -201.333 1137.67 -252 1181 c 0
 -280 1205 -299.667 1217 -311 1217 c 0
 -321.667 1217 -329.667 1209 -335 1193 c 0
 -337 1187.67 -338 1182 -338 1176 c 0
 -338 1161.33 -328 1144.33 -308 1125 c 0
 -300.667 1117.67 -297 1112.67 -297 1110 c 0
 -297 1104.67 -300.333 1102 -307 1102 c 0
 -316.333 1102 -332.667 1112.33 -356 1133 c 0
 -395.333 1165.67 -415 1200.33 -415 1237 c 0
EndSplineSet
Validated: 1
EndChar

StartChar: tehtaU.altshift2
Encoding: 65652 -1 130
Width: 0
VWidth: 1000
Flags: HW
LayerCount: 2
Fore
SplineSet
-565 1237 m 0
 -565 1279 -549.333 1300 -518 1300 c 0
 -467.333 1300 -388.667 1240.33 -282 1121 c 0
 -217.333 1049 -173.667 993 -151 953 c 0
 -147.667 946.333 -146 942 -146 940 c 0
 -146 936 -148.667 934 -154 934 c 0
 -166 934 -190 955 -226 997 c 0
 -292.667 1076.33 -351.333 1137.67 -402 1181 c 0
 -430 1205 -449.667 1217 -461 1217 c 0
 -471.667 1217 -479.667 1209 -485 1193 c 0
 -487 1187.67 -488 1182 -488 1176 c 0
 -488 1161.33 -478 1144.33 -458 1125 c 0
 -450.667 1117.67 -447 1112.67 -447 1110 c 0
 -447 1104.67 -450.333 1102 -457 1102 c 0
 -466.333 1102 -482.667 1112.33 -506 1133 c 0
 -545.333 1165.67 -565 1200.33 -565 1237 c 0
EndSplineSet
Validated: 1
EndChar

StartChar: tehtaU.altshift3
Encoding: 65653 -1 131
Width: 0
VWidth: 1000
Flags: HW
LayerCount: 2
Fore
SplineSet
-714 1237 m 0
 -714 1279 -698.333 1300 -667 1300 c 0
 -616.333 1300 -537.667 1240.33 -431 1121 c 0
 -366.333 1049 -322.667 993 -300 953 c 0
 -296.667 946.333 -295 942 -295 940 c 0
 -295 936 -297.667 934 -303 934 c 0
 -315 934 -339 955 -375 997 c 0
 -441.667 1076.33 -500.333 1137.67 -551 1181 c 0
 -579 1205 -598.667 1217 -610 1217 c 0
 -620.667 1217 -628.667 1209 -634 1193 c 0
 -636 1187.67 -637 1182 -637 1176 c 0
 -637 1161.33 -627 1144.33 -607 1125 c 0
 -599.667 1117.67 -596 1112.67 -596 1110 c 0
 -596 1104.67 -599.333 1102 -606 1102 c 0
 -615.333 1102 -631.667 1112.33 -655 1133 c 0
 -694.333 1165.67 -714 1200.33 -714 1237 c 0
EndSplineSet
Validated: 1
EndChar

StartChar: tehtaU.altshift4
Encoding: 65654 -1 132
Width: 0
VWidth: 1000
Flags: HW
LayerCount: 2
Fore
SplineSet
-874 1237 m 0
 -874 1279 -858.333 1300 -827 1300 c 0
 -776.333 1300 -697.667 1240.33 -591 1121 c 0
 -526.333 1049 -482.667 993 -460 953 c 0
 -456.667 946.333 -455 942 -455 940 c 0
 -455 936 -457.667 934 -463 934 c 0
 -475 934 -499 955 -535 997 c 0
 -601.667 1076.33 -660.333 1137.67 -711 1181 c 0
 -739 1205 -758.667 1217 -770 1217 c 0
 -780.667 1217 -788.667 1209 -794 1193 c 0
 -796 1187.67 -797 1182 -797 1176 c 0
 -797 1161.33 -787 1144.33 -767 1125 c 0
 -759.667 1117.67 -756 1112.67 -756 1110 c 0
 -756 1104.67 -759.333 1102 -766 1102 c 0
 -775.333 1102 -791.667 1112.33 -815 1133 c 0
 -854.333 1165.67 -874 1200.33 -874 1237 c 0
EndSplineSet
Validated: 1
EndChar

StartChar: tehtaU.shift1
Encoding: 65655 -1 133
Width: 0
VWidth: 1000
Flags: HW
LayerCount: 2
Fore
SplineSet
-82 1325 m 1
 -41.3333 1325 -21 1304.67 -21 1264 c 0
 -21 1209.33 -75 1137 -183 1047 c 0
 -249 991.667 -302.667 954.333 -344 935 c 0
 -350.667 931.667 -355.333 930 -358 930 c 0
 -361.333 930 -363 931.333 -363 934 c 0
 -363 940 -339.667 961.667 -293 999 c 0
 -210.333 1064.33 -156.667 1114.33 -132 1149 c 0
 -115.333 1172.33 -107 1192.67 -107 1210 c 0
 -107 1241.33 -117 1258 -137 1260 c 1
 -159.667 1260 -193.667 1237.67 -239 1193 c 0
 -263.667 1169 -278.333 1157 -283 1157 c 0
 -285.667 1157 -287 1158.33 -287 1161 c 0
 -287 1172.33 -268 1196.67 -230 1234 c 1
 -168 1292 -118.667 1322.33 -82 1325 c 1
EndSplineSet
Validated: 1
EndChar

StartChar: tehtaU.shift2
Encoding: 65656 -1 134
Width: 0
VWidth: 1000
Flags: HW
LayerCount: 2
Fore
SplineSet
-221 1325 m 1
 -180.333 1325 -160 1304.67 -160 1264 c 0
 -160 1209.33 -214 1137 -322 1047 c 0
 -388 991.667 -441.667 954.333 -483 935 c 0
 -489.667 931.667 -494.333 930 -497 930 c 0
 -500.333 930 -502 931.333 -502 934 c 0
 -502 940 -478.667 961.667 -432 999 c 0
 -349.333 1064.33 -295.667 1114.33 -271 1149 c 0
 -254.333 1172.33 -246 1192.67 -246 1210 c 0
 -246 1241.33 -256 1258 -276 1260 c 1
 -298.667 1260 -332.667 1237.67 -378 1193 c 0
 -402.667 1169 -417.333 1157 -422 1157 c 0
 -424.667 1157 -426 1158.33 -426 1161 c 0
 -426 1172.33 -407 1196.67 -369 1234 c 1
 -307 1292 -257.667 1322.33 -221 1325 c 1
EndSplineSet
Validated: 1
EndChar

StartChar: tehtaU.shift3
Encoding: 65657 -1 135
Width: 0
VWidth: 1000
Flags: HW
LayerCount: 2
Fore
SplineSet
-371 1325 m 1
 -330.333 1325 -310 1304.67 -310 1264 c 0
 -310 1209.33 -364 1137 -472 1047 c 0
 -538 991.667 -591.667 954.333 -633 935 c 0
 -639.667 931.667 -644.333 930 -647 930 c 0
 -650.333 930 -652 931.333 -652 934 c 0
 -652 940 -628.667 961.667 -582 999 c 0
 -499.333 1064.33 -445.667 1114.33 -421 1149 c 0
 -404.333 1172.33 -396 1192.67 -396 1210 c 0
 -396 1241.33 -406 1258 -426 1260 c 1
 -448.667 1260 -482.667 1237.67 -528 1193 c 0
 -552.667 1169 -567.333 1157 -572 1157 c 0
 -574.667 1157 -576 1158.33 -576 1161 c 0
 -576 1172.33 -557 1196.67 -519 1234 c 1
 -457 1292 -407.667 1322.33 -371 1325 c 1
EndSplineSet
Validated: 1
EndChar

StartChar: tehtaU.shift4
Encoding: 65658 -1 136
Width: 0
VWidth: 1000
Flags: HW
LayerCount: 2
Fore
SplineSet
-512 1325 m 1
 -471.333 1325 -451 1304.67 -451 1264 c 0
 -451 1209.33 -505 1137 -613 1047 c 0
 -679 991.667 -732.667 954.333 -774 935 c 0
 -780.667 931.667 -785.333 930 -788 930 c 0
 -791.333 930 -793 931.333 -793 934 c 0
 -793 940 -769.667 961.667 -723 999 c 0
 -640.333 1064.33 -586.667 1114.33 -562 1149 c 0
 -545.333 1172.33 -537 1192.67 -537 1210 c 0
 -537 1241.33 -547 1258 -567 1260 c 1
 -589.667 1260 -623.667 1237.67 -669 1193 c 0
 -693.667 1169 -708.333 1157 -713 1157 c 0
 -715.667 1157 -717 1158.33 -717 1161 c 0
 -717 1172.33 -698 1196.67 -660 1234 c 1
 -598 1292 -548.667 1322.33 -512 1325 c 1
EndSplineSet
Validated: 1
EndChar

StartChar: tehtaUB.shift1
Encoding: 65659 -1 137
Width: 0
VWidth: 1000
Flags: HW
LayerCount: 2
Fore
SplineSet
-354 -567 m 0
 -354 -593 -341 -615.333 -315 -634 c 0
 -298.333 -646.667 -280.667 -653 -262 -653 c 0
 -204 -653 -153.667 -548.333 -111 -339 c 1
 -59 -59 l 1
 -53 -31.6667 -45 -18 -35 -18 c 0
 -24.3333 -18 -18.6667 -23.6667 -18 -35 c 1
 -18 -23.8889 -33.3333 -120.556 -64 -325 c 0
 -75.3333 -401 -85.3333 -459.333 -94 -500 c 0
 -107.333 -568 -134 -626.667 -174 -676 c 0
 -216.667 -728 -266.667 -754 -324 -754 c 1
 -399.333 -748 -438.667 -716.333 -442 -659 c 1
 -442 -612.333 -410.667 -566 -348 -520 c 1
 -352 -530 -354 -545.667 -354 -567 c 0
EndSplineSet
Validated: 37
EndChar

StartChar: tehtaUB.shift2
Encoding: 65660 -1 138
Width: 0
VWidth: 1000
Flags: HW
LayerCount: 2
Fore
SplineSet
-43 -98 m 0
 -135.667 -261.333 -234.333 -398.667 -339 -510 c 0
 -465.667 -645.333 -580 -713 -682 -713 c 0
 -756 -713 -793 -689.667 -793 -643 c 0
 -793 -605.278 -758.667 -554.945 -690 -492 c 1
 -695.333 -506 -698 -521 -698 -537 c 0
 -698 -568.333 -682 -592.667 -650 -610 c 0
 -633.333 -618.667 -615.333 -623 -596 -623 c 0
 -495.333 -623 -375 -521.333 -235 -318 c 0
 -219.667 -295.333 -173 -222.667 -95 -100 c 0
 -55 -37.3333 -30 -6 -20 -6 c 0
 -12 -6 -8 -10 -8 -18 c 0
 -8 -26.6667 -18.3333 -50.6667 -39 -90 c 0
 -40.3333 -93.3333 -41.6667 -96 -43 -98 c 0
EndSplineSet
Validated: 1
EndChar

StartChar: tehtaUB.shift3
Encoding: 65661 -1 139
Width: 0
VWidth: 1000
Flags: HW
LayerCount: 2
Fore
SplineSet
-878 -723 m 0
 -968 -723 -1013 -697 -1013 -645 c 0
 -1013 -603.278 -973.667 -551.278 -895 -489 c 1
 -904.333 -511 -909 -531 -909 -549 c 0
 -909 -576.333 -893.333 -600 -862 -620 c 0
 -844 -631.333 -827 -637 -811 -637 c 0
 -701 -637 -560.667 -528 -390 -310 c 1
 -213 -73 l 1
 -196.333 -53 -185.333 -43 -180 -43 c 0
 -170.667 -43 -165.667 -48.3333 -165 -59 c 0
 -165 -82.3333 -200.333 -140.333 -271 -233 c 0
 -373.667 -368.333 -480.333 -482.667 -591 -576 c 0
 -708.333 -674 -804 -723 -878 -723 c 0
EndSplineSet
Validated: 1
EndChar

StartChar: tehtaUB.shift4
Encoding: 65662 -1 140
Width: 0
VWidth: 1000
Flags: HW
LayerCount: 2
Fore
SplineSet
-1030 -723 m 0
 -1120 -723 -1165 -697 -1165 -645 c 0
 -1165 -603.278 -1125.67 -551.278 -1047 -489 c 1
 -1056.33 -511 -1061 -531 -1061 -549 c 0
 -1061 -576.333 -1045.33 -600 -1014 -620 c 0
 -996 -631.333 -979 -637 -963 -637 c 0
 -853 -637 -712.667 -528 -542 -310 c 1
 -365 -73 l 1
 -348.333 -53 -337.333 -43 -332 -43 c 0
 -322.667 -43 -317.667 -48.3333 -317 -59 c 0
 -317 -82.3333 -352.333 -140.333 -423 -233 c 0
 -525.667 -368.333 -632.333 -482.667 -743 -576 c 0
 -860.333 -674 -956 -723 -1030 -723 c 0
EndSplineSet
Validated: 1
EndChar

StartChar: tehtaN.althighnarrow
Encoding: 65663 -1 141
Width: 0
VWidth: 1000
Flags: HW
LayerCount: 2
Fore
SplineSet
-745 1257 m 1
 -695.83 1349.67 -625.83 1396 -535 1396 c 0
 -484.333 1396 -428.667 1386 -368 1366 c 0
 -328.667 1353.33 -297.333 1347 -274 1347 c 0
 -224.667 1347 -166.667 1365 -100 1401 c 1
 -149.333 1309 -202.667 1263 -260 1263 c 0
 -319.333 1263 -377.333 1271.33 -434 1288 c 0
 -478.667 1301.33 -520.333 1308 -559 1308 c 0
 -588.333 1308 -650.333 1291 -745 1257 c 1
EndSplineSet
Validated: 1
EndChar

StartChar: tehtaN.althighwide
Encoding: 65664 -1 142
Width: 0
VWidth: 1000
Flags: HW
LayerCount: 2
Fore
SplineSet
-762 1401 m 0
 -697.333 1401 -608.667 1388.67 -496 1364 c 0
 -393.333 1342 -316 1331 -264 1331 c 0
 -200.667 1331 -127.667 1351 -45 1391 c 1
 -84.3333 1335 -123.667 1296.33 -163 1275 c 0
 -209 1251 -270.667 1239 -348 1239 c 0
 -400 1239 -472.333 1251 -565 1275 c 128
 -657.667 1299 -730 1311 -782 1311 c 0
 -854 1311 -936.667 1300.33 -1030 1279 c 0
 -906 1307.67 -937.333 1300.33 -1124 1257 c 1
 -1005.33 1353 -884.667 1401 -762 1401 c 0
EndSplineSet
Validated: 37
EndChar

StartChar: tehtaN.altnarrow
Encoding: 65665 -1 143
Width: 0
VWidth: 1000
Flags: HW
LayerCount: 2
Fore
SplineSet
-745 815 m 1
 -695.83 907.667 -625.83 954 -535 954 c 0
 -484.333 954 -428.667 944 -368 924 c 0
 -328.667 911.333 -297.333 905 -274 905 c 0
 -224.667 905 -166.667 923 -100 959 c 1
 -149.333 867 -202.667 821 -260 821 c 0
 -319.333 821 -377.333 829.333 -434 846 c 0
 -478.667 859.333 -520.333 866 -559 866 c 0
 -588.333 866 -650.333 849 -745 815 c 1
EndSplineSet
Validated: 1
EndChar

StartChar: tehtaN.altwide
Encoding: 65666 -1 144
Width: 0
VWidth: 1000
Flags: HW
LayerCount: 2
Fore
SplineSet
-762 959 m 0
 -697.333 959 -608.667 946.667 -496 922 c 0
 -393.333 900 -316 889 -264 889 c 0
 -200.667 889 -127.667 909 -45 949 c 1
 -84.3333 893 -123.667 854.333 -163 833 c 0
 -209 809 -270.667 797 -348 797 c 0
 -400 797 -472.333 809 -565 833 c 0
 -657.667 857 -730 869 -782 869 c 0
 -854 869 -936.667 858.333 -1030 837 c 0
 -906 865.667 -937.333 858.333 -1124 815 c 1
 -1005.33 911 -884.667 959 -762 959 c 0
EndSplineSet
Validated: 37
EndChar

StartChar: tehtaN.highnarrow
Encoding: 65667 -1 145
Width: 0
VWidth: 1000
Flags: HW
LayerCount: 2
Fore
SplineSet
-713 1233 m 1
 -678.063 1293 -603.396 1323 -489 1323 c 1
 -307 1315 l 1
 -303 1315 l 2
 -243 1315 -172 1319 -90 1327 c 1
 -110.667 1276.33 -153.667 1245.67 -219 1235 c 0
 -244.333 1231 -275.667 1229 -313 1229 c 2
 -594 1235 l 1
 -598 1235 l 2
 -647.333 1235 -685.667 1234.33 -713 1233 c 1
EndSplineSet
Validated: 1
EndChar

StartChar: tehtaN.highwide
Encoding: 65668 -1 146
Width: 0
VWidth: 1000
Flags: HW
LayerCount: 2
Fore
SplineSet
-414 1219 m 1
 -854 1233 l 1
 -962 1233 -1058.33 1228.33 -1143 1219 c 1
 -1113.67 1276.33 -1046.67 1310 -942 1320 c 0
 -910 1323.33 -869 1325 -819 1325 c 0
 -795 1325 -713.333 1321.33 -574 1314 c 0
 -508.667 1310.67 -446.333 1309 -387 1309 c 0
 -283 1309 -182.667 1313 -86 1321 c 1
 -110 1265 -177.667 1232.33 -289 1223 c 0
 -319.667 1220.33 -361.333 1219 -414 1219 c 1
EndSplineSet
Validated: 1
EndChar

StartChar: tehtaN.narrow
Encoding: 65669 -1 147
Width: 0
VWidth: 1000
Flags: HW
LayerCount: 2
Fore
SplineSet
-713 862 m 1
 -678.063 922 -603.396 952 -489 952 c 1
 -307 944 l 1
 -303 944 l 2
 -243 944 -172 948 -90 956 c 1
 -110.667 905.333 -153.667 874.667 -219 864 c 0
 -244.333 860 -275.667 858 -313 858 c 2
 -594 864 l 1
 -598 864 l 2
 -647.333 864 -685.667 863.333 -713 862 c 1
EndSplineSet
Validated: 1
EndChar

StartChar: tehtaN.wide
Encoding: 65670 -1 148
Width: 0
VWidth: 1000
Flags: HW
LayerCount: 2
Fore
SplineSet
-414 850 m 1
 -854 864 l 1
 -962 864 -1058.33 859.333 -1143 850 c 1
 -1113.67 907.333 -1046.67 941 -942 951 c 0
 -910 954.333 -869 956 -819 956 c 0
 -795 956 -713.333 952.333 -574 945 c 0
 -508.667 941.667 -446.333 940 -387 940 c 0
 -283 940 -182.667 944 -86 952 c 1
 -110 896 -177.667 863.333 -289 854 c 0
 -319.667 851.333 -361.333 850 -414 850 c 1
EndSplineSet
Validated: 1
EndChar

StartChar: tehtaB.altlambe
Encoding: 65671 -1 149
Width: 0
VWidth: 1000
Flags: HW
LayerCount: 2
Fore
SplineSet
-502 154 m 1
 -446 138.667 -393.667 139.667 -345 157 c 0
 -339.667 159 -312.667 170 -264 190 c 1
 -317.306 81.4133 -380.973 31.7466 -455 41 c 0
 -483.667 44.3333 -528.667 54.3333 -590 71 c 0
 -640.667 84.3333 -691 86.3333 -741 77 c 0
 -770.333 71.6667 -804 63 -842 51 c 1
 -801.333 107.667 -766.667 144.333 -738 161 c 0
 -689.797 188.777 -611.131 186.444 -502 154 c 1
EndSplineSet
Validated: 33
EndChar

StartChar: tehtaB.altlownarrow
Encoding: 65672 -1 150
Width: 0
VWidth: 1000
Flags: HW
LayerCount: 2
Fore
SplineSet
-745 -588 m 1
 -695.83 -495.333 -625.83 -449 -535 -449 c 0
 -484.333 -449 -428.667 -459 -368 -479 c 0
 -328.667 -491.667 -297.333 -498 -274 -498 c 0
 -224.667 -498 -166.667 -480 -100 -444 c 1
 -149.333 -536 -202.667 -582 -260 -582 c 0
 -319.333 -582 -377.333 -573.667 -434 -557 c 0
 -478.667 -543.667 -520.333 -537 -559 -537 c 0
 -588.333 -537 -650.333 -554 -745 -588 c 1
EndSplineSet
Validated: 1
EndChar

StartChar: tehtaB.altlowwide
Encoding: 65673 -1 151
Width: 0
VWidth: 1000
Flags: HW
LayerCount: 2
Fore
SplineSet
-762 -444 m 0
 -697.333 -444 -608.667 -456.333 -496 -481 c 0
 -393.333 -503 -316 -514 -264 -514 c 0
 -200.667 -514 -127.667 -494 -45 -454 c 1
 -84.3333 -510 -123.667 -548.667 -163 -570 c 0
 -209 -594 -270.667 -606 -348 -606 c 0
 -400 -606 -472.333 -594 -565 -570 c 0
 -657.667 -546 -730 -534 -782 -534 c 0
 -854 -534 -936.667 -544.667 -1030 -566 c 0
 -906 -537.333 -937.333 -544.667 -1124 -588 c 1
 -1005.33 -492 -884.667 -444 -762 -444 c 0
EndSplineSet
Validated: 37
EndChar

StartChar: tehtaB.altnarrow
Encoding: 65674 -1 152
Width: 0
VWidth: 1000
Flags: HW
LayerCount: 2
Fore
SplineSet
-745 -293 m 1
 -695.83 -200.333 -625.83 -154 -535 -154 c 0
 -484.333 -154 -428.667 -164 -368 -184 c 0
 -328.667 -196.667 -297.333 -203 -274 -203 c 0
 -224.667 -203 -166.667 -185 -100 -149 c 1
 -149.333 -241 -202.667 -287 -260 -287 c 0
 -319.333 -287 -377.333 -278.667 -434 -262 c 0
 -478.667 -248.667 -520.333 -242 -559 -242 c 0
 -588.333 -242 -650.333 -259 -745 -293 c 1
EndSplineSet
Validated: 1
EndChar

StartChar: tehtaB.altwide
Encoding: 65675 -1 153
Width: 0
VWidth: 1000
Flags: HW
LayerCount: 2
Fore
SplineSet
-762 -147 m 0
 -697.333 -147 -608.667 -159.333 -496 -184 c 0
 -393.333 -206 -316 -217 -264 -217 c 0
 -200.667 -217 -127.667 -197 -45 -157 c 1
 -84.3333 -213 -123.667 -251.667 -163 -273 c 0
 -209 -297 -270.667 -309 -348 -309 c 0
 -400 -309 -472.333 -297 -565 -273 c 0
 -657.667 -249 -730 -237 -782 -237 c 0
 -854 -237 -936.667 -247.667 -1030 -269 c 0
 -906 -240.333 -937.333 -247.667 -1124 -291 c 1
 -1005.33 -195 -884.667 -147 -762 -147 c 0
EndSplineSet
Validated: 37
EndChar

StartChar: tehtaB.lambe
Encoding: 65676 -1 154
Width: 0
VWidth: 1000
Flags: HW
LayerCount: 2
Fore
SplineSet
-621 150 m 1
 -469 139 l 1
 -432.333 139 -382.333 143.333 -319 152 c 1
 -331 102 -365.333 72 -422 62 c 0
 -443.333 58.6667 -473.333 57 -512 57 c 1
 -640 61 l 1
 -641 61 l 2
 -685.667 61 -741.667 58.3333 -809 53 c 1
 -789.667 105.667 -748.667 136.667 -686 146 c 0
 -667.333 148.667 -645.667 150 -621 150 c 1
EndSplineSet
Validated: 1
EndChar

StartChar: tehtaB.lownarrow
Encoding: 65677 -1 155
Width: 0
VWidth: 1000
Flags: HW
LayerCount: 2
Fore
SplineSet
-713 -613 m 1
 -678.063 -553 -603.396 -523 -489 -523 c 1
 -307 -531 l 1
 -303 -531 l 2
 -243 -531 -172 -527 -90 -519 c 1
 -110.667 -569.667 -153.667 -600.333 -219 -611 c 0
 -244.333 -615 -275.667 -617 -313 -617 c 2
 -594 -611 l 1
 -598 -611 l 2
 -647.333 -611 -685.667 -611.667 -713 -613 c 1
EndSplineSet
Validated: 1
EndChar

StartChar: tehtaB.lowwide
Encoding: 65678 -1 156
Width: 0
VWidth: 1000
Flags: HW
LayerCount: 2
Fore
SplineSet
-414 -625 m 1
 -854 -611 l 1
 -962 -611 -1058.33 -615.667 -1143 -625 c 1
 -1113.67 -567.667 -1046.67 -534 -942 -524 c 0
 -910 -520.667 -869 -519 -819 -519 c 0
 -795 -519 -713.333 -522.667 -574 -530 c 0
 -508.667 -533.333 -446.333 -535 -387 -535 c 0
 -283 -535 -182.667 -531 -86 -523 c 1
 -110 -579 -177.667 -611.667 -289 -621 c 0
 -319.667 -623.667 -361.333 -625 -414 -625 c 1
EndSplineSet
Validated: 1
EndChar

StartChar: tehtaB.narrow
Encoding: 65679 -1 157
Width: 0
VWidth: 1000
Flags: HW
LayerCount: 2
Fore
SplineSet
-713 -244 m 1
 -678.063 -184 -603.397 -154 -489 -154 c 1
 -307 -162 l 1
 -303 -162 l 2
 -243 -162 -172 -158 -90 -150 c 1
 -110.667 -200.667 -153.667 -231.333 -219 -242 c 0
 -244.333 -246 -275.667 -248 -313 -248 c 2
 -594 -242 l 1
 -598 -242 l 2
 -647.333 -242 -685.667 -242.667 -713 -244 c 1
EndSplineSet
Validated: 1
EndChar

StartChar: tehtaB.wide
Encoding: 65680 -1 158
Width: 0
VWidth: 1000
Flags: HW
LayerCount: 2
Fore
SplineSet
-414 -256 m 1
 -854 -242 l 1
 -962 -242 -1058.33 -246.667 -1143 -256 c 1
 -1113.67 -198.667 -1046.67 -165 -942 -155 c 0
 -910 -151.667 -869 -150 -819 -150 c 0
 -795 -150 -713.333 -153.667 -574 -161 c 0
 -508.667 -164.333 -446.333 -166 -387 -166 c 0
 -283 -166 -182.667 -162 -86 -154 c 1
 -110 -210 -177.667 -242.667 -289 -252 c 0
 -319.667 -254.667 -361.333 -256 -414 -256 c 1
EndSplineSet
Validated: 1
EndChar

StartChar: tehtaW.shift1
Encoding: 65681 -1 159
Width: 0
VWidth: 1000
Flags: HW
LayerCount: 2
Fore
SplineSet
-233 1083 m 2
 -271.667 1083 -296 1085.67 -306 1091 c 0
 -322.667 1100.33 -330 1121.67 -328 1155 c 0
 -326 1207.67 -304.667 1250 -264 1282 c 1
 -269.333 1266 -272 1251.67 -272 1239 c 0
 -272 1217 -252.667 1207.33 -214 1210 c 1
 -135.614 1225.68 -70.2803 1224.35 -18 1206 c 0
 -2.66667 1200.67 7.33333 1194 12 1186 c 0
 22 1170.67 27 1148.67 27 1120 c 0
 27 1066 9 1005 -27 937 c 0
 -52.3333 889.667 -77.3333 858.667 -102 844 c 1
 -56 918.667 -33 981.333 -33 1032 c 0
 -33 1058.67 -48 1075 -78 1081 c 1
 -145 1090 l 2
 -230 1083 l 1
 -233 1083 l 2
EndSplineSet
Validated: 33
EndChar

StartChar: tehtaW.shift2
Encoding: 65682 -1 160
Width: 0
VWidth: 1000
Flags: HW
LayerCount: 2
Fore
SplineSet
-496 1218 m 1
 -442.714 1220.05 -389.047 1221.71 -335 1223 c 1
 -290.333 1222.33 -235.333 1218.67 -170 1212 c 0
 -116.667 1208 -90 1187 -90 1149 c 0
 -90 1074.33 -109 1002 -147 932 c 0
 -169.667 890 -194.333 860.667 -221 844 c 1
 -175 908 -152 973.333 -152 1040 c 0
 -152 1071.33 -195 1089 -281 1093 c 0
 -324.333 1095 -398 1094 -502 1090 c 1
 -539 1090 l 2
 -568.333 1090 -586 1100.33 -592 1121 c 0
 -594.667 1131 -596 1146.33 -596 1167 c 0
 -594.505 1213.36 -573.171 1253.69 -532 1288 c 1
 -538 1272.67 -541 1257.67 -541 1243 c 0
 -541 1226.33 -526 1218 -496 1218 c 1
EndSplineSet
Validated: 33
EndChar

StartChar: tehtaW.shift3
Encoding: 65683 -1 161
Width: 0
VWidth: 1000
Flags: HW
LayerCount: 2
Fore
SplineSet
-698 1090 m 0
 -727.333 1090 -745.333 1100.33 -752 1121 c 0
 -754.667 1131 -756 1146.33 -756 1167 c 0
 -756 1212.11 -734.667 1252.45 -692 1288 c 1
 -697.333 1272 -700 1257 -700 1243 c 0
 -700 1225.67 -684.667 1217.33 -654 1218 c 0
 -593.372 1220.37 -532.039 1222.04 -470 1223 c 1
 -415.333 1222.33 -355.667 1218.67 -291 1212 c 1
 -237.667 1208 -211 1187 -211 1149 c 0
 -211 1073 -229.667 1000.67 -267 932 c 0
 -289.667 890 -314.667 860.667 -342 844 c 1
 -294 908.667 -270 974 -270 1040 c 0
 -270 1071.33 -309.667 1088 -389 1090 c 2
 -438 1090 l 2
 -485.333 1091.33 -572 1091.33 -698 1090 c 0
EndSplineSet
Validated: 33
EndChar

StartChar: tehtaW.shift4
Encoding: 65684 -1 162
Width: 0
VWidth: 1000
Flags: HW
LayerCount: 2
Fore
SplineSet
-893 1071 m 0
 -925.667 1071 -944.667 1084 -950 1110 c 0
 -952 1120.67 -952.667 1134.33 -952 1151 c 0
 -952 1196.33 -931.667 1236.67 -891 1272 c 1
 -895 1254.67 -897 1242.33 -897 1235 c 0
 -897 1214.33 -886.667 1203 -866 1201 c 0
 -862 1200.33 -850.333 1200 -831 1200 c 2
 -662 1206 l 1
 -492.443 1208.87 -366.776 1205.54 -285 1196 c 1
 -229 1192 -201 1171 -201 1133 c 0
 -201 1061.67 -220.333 989.667 -259 917 c 0
 -283 870.333 -307.333 840.333 -332 827 c 1
 -304.667 867.667 -284.333 912 -271 960 c 0
 -261.667 996.667 -261.333 1024.67 -270 1044 c 0
 -279.333 1064.67 -354.667 1075 -496 1075 c 2
 -526 1075 l 2
 -607.333 1075 -724 1073.67 -876 1071 c 0
 -884 1071 -884 1071 -893 1071 c 0
EndSplineSet
Validated: 33
EndChar

StartChar: tehtaBreve.altshift1
Encoding: 65685 -1 163
Width: 0
VWidth: 1000
Flags: HW
LayerCount: 2
Fore
SplineSet
10 1194 m 0
 17.3333 1194 21.3333 1189.33 22 1180 c 0
 22 1166.67 -10.6667 1127.67 -76 1063 c 0
 -128 1011 -158.667 985 -168 985 c 0
 -176.667 985 -206 1010.67 -256 1062 c 0
 -309.333 1116.67 -336 1151 -336 1165 c 0
 -336 1181.67 -326 1199.67 -306 1219 c 0
 -291.333 1232.33 -277.667 1239 -265 1239 c 0
 -253 1239 -225.333 1217 -182 1173 c 0
 -140 1131 -113 1109.33 -101 1108 c 0
 -92.3333 1108 -71 1124.33 -37 1157 c 0
 -12.3333 1181.67 3.33333 1194 10 1194 c 0
EndSplineSet
Validated: 1
EndChar

StartChar: tehtaBreve.altshift2
Encoding: 65686 -1 164
Width: 0
VWidth: 1000
Flags: HW
LayerCount: 2
Fore
SplineSet
-174 1194 m 0
 -166.667 1194 -162.667 1189.33 -162 1180 c 0
 -162 1166.67 -194.667 1127.67 -260 1063 c 0
 -312 1011 -342.667 985 -352 985 c 0
 -360.667 985 -390 1010.67 -440 1062 c 0
 -493.333 1116.67 -520 1151 -520 1165 c 0
 -520 1181.67 -510 1199.67 -490 1219 c 0
 -475.333 1232.33 -461.667 1239 -449 1239 c 0
 -437 1239 -409.333 1217 -366 1173 c 0
 -324 1131 -297 1109.33 -285 1108 c 0
 -276.333 1108 -255 1124.33 -221 1157 c 0
 -196.333 1181.67 -180.667 1194 -174 1194 c 0
EndSplineSet
Validated: 1
EndChar

StartChar: tehtaBreve.altshift3
Encoding: 65687 -1 165
Width: 0
VWidth: 1000
Flags: HW
LayerCount: 2
Fore
SplineSet
-299 1194 m 0
 -291.667 1194 -287.667 1189.33 -287 1180 c 0
 -287 1166.67 -319.667 1127.67 -385 1063 c 0
 -437 1011 -467.667 985 -477 985 c 0
 -485.667 985 -515 1010.67 -565 1062 c 0
 -618.333 1116.67 -645 1151 -645 1165 c 0
 -645 1181.67 -635 1199.67 -615 1219 c 0
 -600.333 1232.33 -586.667 1239 -574 1239 c 0
 -562 1239 -534.333 1217 -491 1173 c 0
 -449 1131 -422 1109.33 -410 1108 c 0
 -401.333 1108 -380 1124.33 -346 1157 c 0
 -321.333 1181.67 -305.667 1194 -299 1194 c 0
EndSplineSet
Validated: 1
EndChar

StartChar: tehtaBreve.altshift4
Encoding: 65688 -1 166
Width: 0
VWidth: 1000
Flags: HW
LayerCount: 2
Fore
SplineSet
-432 1194 m 0
 -424.667 1194 -420.667 1189.33 -420 1180 c 0
 -420 1166.67 -452.667 1127.67 -518 1063 c 0
 -570 1011 -600.667 985 -610 985 c 0
 -618.667 985 -648 1010.67 -698 1062 c 0
 -751.333 1116.67 -778 1151 -778 1165 c 0
 -778 1181.67 -768 1199.67 -748 1219 c 0
 -733.333 1232.33 -719.667 1239 -707 1239 c 0
 -695 1239 -667.333 1217 -624 1173 c 0
 -582 1131 -555 1109.33 -543 1108 c 0
 -534.333 1108 -513 1124.33 -479 1157 c 0
 -454.333 1181.67 -438.667 1194 -432 1194 c 0
EndSplineSet
Validated: 1
EndChar

StartChar: tehtaAE.shift1
Encoding: 65689 -1 167
Width: 0
VWidth: 1000
Flags: HW
LayerCount: 2
Fore
SplineSet
-190 1164 m 0
 -190 1157.78 -204.667 1135.11 -234 1096 c 1
 -245.333 1082.67 -253.333 1075.67 -258 1075 c 0
 -266 1075 -290.333 1091.67 -331 1125 c 2
 -336 1129 l 2
 -348 1138.33 -354.667 1147 -356 1155 c 1
 -356 1168.33 -342.333 1190.33 -315 1221 c 0
 -302.333 1235.67 -294.333 1243 -291 1243 c 0
 -285.667 1243 -264.333 1228.67 -227 1200 c 0
 -205.133 1183.6 -193.467 1173.93 -192 1171 c 0
 -190.667 1169 -190 1166.67 -190 1164 c 0
62 1164 m 0
 62 1157.78 47.3333 1135.11 18 1096 c 1
 6.66667 1082.67 -1.33333 1075.67 -6 1075 c 0
 -14 1075 -38.3333 1091.67 -79 1125 c 2
 -84 1129 l 2
 -96 1138.33 -102.667 1147 -104 1155 c 1
 -104 1168.33 -90.3333 1190.33 -63 1221 c 0
 -50.3333 1235.67 -42.3333 1243 -39 1243 c 0
 -33.6667 1243 -12.3333 1228.67 25 1200 c 0
 46.8665 1183.6 58.5332 1173.93 60 1171 c 0
 61.3333 1169 62 1166.67 62 1164 c 0
-51 981 m 0
 -51 974.78 -65.6667 952.113 -95 913 c 1
 -106.333 899.667 -114.333 892.667 -119 892 c 0
 -127 892 -151.333 908.667 -192 942 c 2
 -197 946 l 2
 -209 955.333 -215.667 964 -217 972 c 1
 -217 985.333 -203.333 1007.33 -176 1038 c 0
 -163.333 1052.67 -155.333 1060 -152 1060 c 0
 -146.667 1060 -125.333 1045.67 -88 1017 c 0
 -66.1335 1000.6 -54.4668 990.934 -53 988 c 0
 -51.6667 986 -51 983.667 -51 981 c 0
EndSplineSet
Validated: 1
EndChar

StartChar: tehtaAE.shift2
Encoding: 65690 -1 168
Width: 0
VWidth: 1000
Flags: HW
LayerCount: 2
Fore
SplineSet
-382 1164 m 0
 -382 1157.78 -396.667 1135.11 -426 1096 c 1
 -437.333 1082.67 -445.333 1075.67 -450 1075 c 0
 -458 1075 -482.333 1091.67 -523 1125 c 2
 -528 1129 l 2
 -540 1138.33 -546.667 1147 -548 1155 c 1
 -548 1168.33 -534.333 1190.33 -507 1221 c 0
 -494.333 1235.67 -486.333 1243 -483 1243 c 0
 -477.667 1243 -456.333 1228.67 -419 1200 c 0
 -397.133 1183.6 -385.467 1173.93 -384 1171 c 0
 -382.667 1169 -382 1166.67 -382 1164 c 0
-130 1164 m 0
 -130 1157.78 -144.667 1135.11 -174 1096 c 1
 -185.333 1082.67 -193.333 1075.67 -198 1075 c 0
 -206 1075 -230.333 1091.67 -271 1125 c 2
 -276 1129 l 2
 -288 1138.33 -294.667 1147 -296 1155 c 1
 -296 1168.33 -282.333 1190.33 -255 1221 c 0
 -242.333 1235.67 -234.333 1243 -231 1243 c 0
 -225.667 1243 -204.333 1228.67 -167 1200 c 0
 -145.133 1183.6 -133.467 1173.93 -132 1171 c 0
 -130.667 1169 -130 1166.67 -130 1164 c 0
-243 981 m 0
 -243 974.78 -257.667 952.113 -287 913 c 1
 -298.333 899.667 -306.333 892.667 -311 892 c 0
 -319 892 -343.333 908.667 -384 942 c 2
 -389 946 l 2
 -401 955.333 -407.667 964 -409 972 c 1
 -409 985.333 -395.333 1007.33 -368 1038 c 0
 -355.333 1052.67 -347.333 1060 -344 1060 c 0
 -338.667 1060 -317.333 1045.67 -280 1017 c 0
 -258.133 1000.6 -246.467 990.934 -245 988 c 0
 -243.667 986 -243 983.667 -243 981 c 0
EndSplineSet
Validated: 1
EndChar

StartChar: tehtaAE.shift3
Encoding: 65691 -1 169
Width: 0
VWidth: 1000
Flags: HW
LayerCount: 2
Fore
SplineSet
-478 1164 m 0
 -478 1157.78 -492.667 1135.11 -522 1096 c 1
 -533.333 1082.67 -541.333 1075.67 -546 1075 c 0
 -554 1075 -578.333 1091.67 -619 1125 c 2
 -624 1129 l 2
 -636 1138.33 -642.667 1147 -644 1155 c 1
 -644 1168.33 -630.333 1190.33 -603 1221 c 0
 -590.333 1235.67 -582.333 1243 -579 1243 c 0
 -573.667 1243 -552.333 1228.67 -515 1200 c 0
 -493.133 1183.6 -481.467 1173.93 -480 1171 c 0
 -478.667 1169 -478 1166.67 -478 1164 c 0
-226 1164 m 0
 -226 1157.78 -240.667 1135.11 -270 1096 c 1
 -281.333 1082.67 -289.333 1075.67 -294 1075 c 0
 -302 1075 -326.333 1091.67 -367 1125 c 2
 -372 1129 l 2
 -384 1138.33 -390.667 1147 -392 1155 c 1
 -392 1168.33 -378.333 1190.33 -351 1221 c 0
 -338.333 1235.67 -330.333 1243 -327 1243 c 0
 -321.667 1243 -300.333 1228.67 -263 1200 c 0
 -241.133 1183.6 -229.467 1173.93 -228 1171 c 0
 -226.667 1169 -226 1166.67 -226 1164 c 0
-339 981 m 0
 -339 974.78 -353.667 952.113 -383 913 c 1
 -394.333 899.667 -402.333 892.667 -407 892 c 0
 -415 892 -439.333 908.667 -480 942 c 2
 -485 946 l 2
 -497 955.333 -503.667 964 -505 972 c 1
 -505 985.333 -491.333 1007.33 -464 1038 c 0
 -451.333 1052.67 -443.333 1060 -440 1060 c 0
 -434.667 1060 -413.333 1045.67 -376 1017 c 0
 -354.133 1000.6 -342.467 990.934 -341 988 c 0
 -339.667 986 -339 983.667 -339 981 c 0
EndSplineSet
Validated: 1
EndChar

StartChar: tehtaAE.shift4
Encoding: 65692 -1 170
Width: 0
VWidth: 1000
Flags: HW
LayerCount: 2
Fore
SplineSet
-471 981 m 0
 -471 974.78 -485.667 952.113 -515 913 c 1
 -526.333 899.667 -534.333 892.667 -539 892 c 0
 -547 892 -571.333 908.667 -612 942 c 2
 -617 946 l 2
 -629 955.333 -635.667 964 -637 972 c 1
 -637 985.333 -623.333 1007.33 -596 1038 c 0
 -583.333 1052.67 -575.333 1060 -572 1060 c 0
 -566.667 1060 -545.333 1045.67 -508 1017 c 0
 -486.133 1000.6 -474.467 990.934 -473 988 c 0
 -471.667 986 -471 983.667 -471 981 c 0
-358 1164 m 0
 -358 1157.78 -372.667 1135.11 -402 1096 c 1
 -413.333 1082.67 -421.333 1075.67 -426 1075 c 0
 -434 1075 -458.333 1091.67 -499 1125 c 2
 -504 1129 l 2
 -516 1138.33 -522.667 1147 -524 1155 c 1
 -524 1168.33 -510.333 1190.33 -483 1221 c 0
 -470.333 1235.67 -462.333 1243 -459 1243 c 0
 -453.667 1243 -432.333 1228.67 -395 1200 c 0
 -373.133 1183.6 -361.467 1173.93 -360 1171 c 0
 -358.667 1169 -358 1166.67 -358 1164 c 0
-610 1164 m 0
 -610 1157.78 -624.667 1135.11 -654 1096 c 1
 -665.333 1082.67 -673.333 1075.67 -678 1075 c 0
 -686 1075 -710.333 1091.67 -751 1125 c 2
 -756 1129 l 2
 -768 1138.33 -774.667 1147 -776 1155 c 1
 -776 1168.33 -762.333 1190.33 -735 1221 c 0
 -722.333 1235.67 -714.333 1243 -711 1243 c 0
 -705.667 1243 -684.333 1228.67 -647 1200 c 0
 -625.133 1183.6 -613.467 1173.93 -612 1171 c 0
 -610.667 1169 -610 1166.67 -610 1164 c 0
EndSplineSet
Validated: 1
EndChar

StartChar: tehtaThinnas.shift1
Encoding: 65693 -1 171
Width: 0
VWidth: 1000
Flags: HW
LayerCount: 2
Fore
SplineSet
-219 -655 m 1
 -224.333 -568.333 -227 -510.333 -227 -481 c 0
 -227 -301 -194.333 -211 -129 -211 c 1
 -116 -213 l 1
 -115 -213 l 1
 -111 -273.667 -109 -328.333 -109 -377 c 0
 -109 -565 -138.333 -659 -197 -659 c 0
 -201 -659 -208.333 -657.667 -219 -655 c 1
EndSplineSet
Validated: 1
EndChar

StartChar: tehtaThinnas.shift2
Encoding: 65694 -1 172
Width: 0
VWidth: 1000
Flags: HW
LayerCount: 2
Fore
SplineSet
-375 -655 m 1
 -380.333 -568.333 -383 -510.333 -383 -481 c 0
 -383 -301 -350.333 -211 -285 -211 c 1
 -272 -213 l 1
 -271 -213 l 1
 -267 -273.667 -265 -328.333 -265 -377 c 0
 -265 -565 -294.333 -659 -353 -659 c 0
 -357 -659 -364.333 -657.667 -375 -655 c 1
EndSplineSet
Validated: 1
EndChar

StartChar: tehtaThinnas.shift3
Encoding: 65695 -1 173
Width: 0
VWidth: 1000
Flags: HW
LayerCount: 2
Fore
SplineSet
-532 -655 m 1
 -537.333 -568.333 -540 -510.333 -540 -481 c 0
 -540 -301 -507.333 -211 -442 -211 c 1
 -429 -213 l 1
 -428 -213 l 1
 -424 -273.667 -422 -328.333 -422 -377 c 0
 -422 -565 -451.333 -659 -510 -659 c 0
 -514 -659 -521.333 -657.667 -532 -655 c 1
EndSplineSet
Validated: 1
EndChar

StartChar: tehtaThinnas.shift4
Encoding: 65696 -1 174
Width: 0
VWidth: 1000
Flags: HW
LayerCount: 2
Fore
SplineSet
-690 -655 m 1
 -695.333 -568.333 -698 -510.333 -698 -481 c 0
 -698 -301 -665.333 -211 -600 -211 c 1
 -587 -213 l 1
 -586 -213 l 1
 -582 -273.667 -580 -328.333 -580 -377 c 0
 -580 -565 -609.333 -659 -668 -659 c 0
 -672 -659 -679.333 -657.667 -690 -655 c 1
EndSplineSet
Validated: 1
EndChar

StartChar: tehtaS
Encoding: 57432 57432 175
Width: 331
VWidth: 1000
Flags: HW
LayerCount: 2
Fore
SplineSet
55 -106 m 1
 147 -109.333 193.667 -87 195 -39 c 0
 195 -6.33333 171.667 21.3333 125 44 c 0
 93.6667 58.6667 62.3333 66 31 66 c 0
 13.6667 66 -11.6667 57.6667 -45 41 c 0
 -94.3333 15.6667 -144.667 2 -196 0 c 2
 -211 0 l 2
 -264.333 0 -291.667 20.3333 -293 61 c 1
 -293 66 l 1
 -134.333 98 -49.6667 115 -39 117 c 0
 19 126.333 66.6667 131 104 131 c 0
 174 131 231 111.667 275 73 c 0
 306.333 44.3333 322 11.6667 322 -25 c 0
 322 -69.6667 302.667 -108.667 264 -142 c 0
 234.667 -167.333 203.333 -180 170 -180 c 0
 134 -180 95.6667 -155.333 55 -106 c 1
EndSplineSet
Validated: 33
EndChar

StartChar: tehtaS.down
Encoding: 65698 -1 176
Width: 0
VWidth: 1000
Flags: HW
LayerCount: 2
Fore
SplineSet
-213 -408 m 0
 -166.333 -408 -143 -382.667 -143 -332 c 0
 -143 -274 -176 -212 -242 -146 c 2
 -355 -44 l 2
 -359 -40 -363 -36.3333 -367 -33 c 0
 -398.333 -3 -414 18.3333 -414 31 c 0
 -414 37 -411.333 41 -406 43 c 1
 -280 -53 -198 -118.333 -160 -153 c 0
 -100.667 -207 -64.3333 -252.333 -51 -289 c 0
 -39 -324.333 -33 -357 -33 -387 c 0
 -33 -437.667 -55 -474.667 -99 -498 c 0
 -121 -510 -145.333 -516 -172 -516 c 0
 -229.333 -516 -270.333 -496.667 -295 -458 c 0
 -307 -439.333 -313 -417 -313 -391 c 0
 -313 -373 -311 -354 -307 -334 c 1
 -267.667 -383.333 -236.333 -408 -213 -408 c 0
EndSplineSet
Validated: 1
EndChar

StartChar: tehtaS.lifted
Encoding: 65699 -1 177
Width: 440
VWidth: 1000
Flags: HW
LayerCount: 2
Fore
SplineSet
156 47 m 1
 189.333 40.3333 215 37 233 37 c 0
 274.333 37 301 54.6667 313 90 c 0
 317 100 319 111 319 123 c 1
 313.667 188.333 283 222.333 227 225 c 1
 184.333 225 138 191.667 88 125 c 1
 40 54.3333 -52 12 -188 -2 c 1
 -166 61.3333 -132 94 -86 96 c 0
 -46.6667 98 -6.66667 118.667 34 158 c 2
 100 225 l 1
 143.333 263.667 190 283 240 283 c 0
 328.473 283 387.14 248.667 416 180 c 0
 426.667 155.333 432 129.333 432 102 c 0
 432 45.3333 408.333 3 361 -25 c 0
 333.667 -41 303.333 -49 270 -49 c 0
 226.667 -49 188.667 -17 156 47 c 1
EndSplineSet
Validated: 1
EndChar

StartChar: tehtaS.raised
Encoding: 65700 -1 178
Width: 438
VWidth: 1000
Flags: HW
LayerCount: 2
Fore
SplineSet
231 406 m 0
 277.667 406 301 425.667 301 465 c 0
 301 484.333 290.667 506 270 530 c 0
 235.333 571.333 157 597.667 35 609 c 2
 -108 622 l 1
 -142 626.667 -158.667 635 -158 647 c 0
 -158 649.667 -157.333 652.333 -156 655 c 1
 12.6667 656.333 115.333 655.667 152 653 c 0
 247.333 645.667 318 622.667 364 584 c 0
 408 546.286 430 507.286 430 467 c 0
 430 422.333 411 385 373 355 c 0
 345 333 312 321 274 319 c 2
 266 319 l 2
 222 319 184 352 152 418 c 1
 184 410 210.333 406 231 406 c 0
EndSplineSet
Validated: 33
EndChar

StartChar: tehtaS.raisedupward
Encoding: 65701 -1 179
Width: 438
VWidth: 1000
Flags: HW
LayerCount: 2
Fore
SplineSet
303 817 m 0
 303 857 278.333 877 229 877 c 0
 215.667 877 190.667 873.333 154 866 c 1
 186 930.667 223.333 963 266 963 c 0
 316 963 357.667 945.667 391 911 c 0
 417 884.333 430 853 430 817 c 0
 430 763 396.667 715.333 330 674 c 0
 280 642.667 172.667 627 8 627 c 1
 -151 629 l 1
 -154 629 l 1
 -155.333 633 -156 638.333 -156 645 c 0
 -156 667 -135.333 678 -94 678 c 2
 5 676 l 1
 8 676 l 2
 139.333 676 227.333 701.333 272 752 c 0
 292.667 776 303 797.667 303 817 c 0
EndSplineSet
Validated: 1
EndChar

StartChar: tehtaS.swash
Encoding: 65702 -1 180
Width: 620
VWidth: 1000
Flags: HW
LayerCount: 2
Fore
SplineSet
569 238 m 0
 569 262 555.667 282.333 529 299 c 0
 514.333 308.333 499.667 313 485 313 c 0
 441.667 313 389.667 264.667 329 168 c 0
 313 142 299 116.667 287 92 c 1
 365.667 85.3333 435.667 101.333 497 140 c 0
 545 170 569 202.667 569 238 c 0
-170 94 m 1
 72 94 207.333 93.3333 236 92 c 1
 279.333 173.333 330.333 244.333 389 305 c 0
 449.667 367.667 504.333 399 553 399 c 0
 606.333 399 639.333 379.667 652 341 c 0
 655.333 331 657 320.333 657 309 c 0
 657 247 619 185.667 543 125 c 0
 449.153 50.4256 347.487 8.75893 238 0 c 1
 107 -251 l 1
 -28.3333 -497.667 -144 -622.333 -240 -625 c 1
 -276.667 -625 -298.333 -611 -305 -583 c 0
 -306.333 -579.667 -307 -575.667 -307 -571 c 0
 -307 -532.333 -290.333 -493 -257 -453 c 0
 -239 -431.667 -227.667 -424.667 -223 -432 c 1
 -223 -434.667 -226.667 -443.667 -234 -459 c 0
 -238 -467 -240 -474.333 -240 -481 c 0
 -240 -503.667 -231 -521.667 -213 -535 c 0
 -203.667 -541.667 -194 -545 -184 -545 c 0
 -112 -545 10.3333 -370.667 183 -22 c 2
 193 -2 l 1
 136.333 -1.33333 3 -2 -207 -4 c 1
 -170 94 l 1
EndSplineSet
Validated: 33
EndChar

StartChar: tehtaS.swashlambe
Encoding: 65703 -1 181
Width: 624
VWidth: 1000
Flags: HW
LayerCount: 2
Fore
SplineSet
268 -61 m 1
 382 -58.3333 464.333 -38.3333 515 -1 c 0
 544.333 20.3333 559 46.6667 559 78 c 0
 559 100 548.667 118.667 528 134 c 0
 517.333 142.667 506 147 494 147 c 0
 449.333 147 374 77.6667 268 -61 c 1
207 -145 m 1
 -52.8653 -471.667 -218.865 -635 -291 -635 c 0
 -321.667 -635 -343 -622.667 -355 -598 c 0
 -359.667 -588.667 -362 -579 -362 -569 c 0
 -362 -527.667 -345 -487.333 -311 -448 c 0
 -293.667 -428 -283 -421.333 -279 -428 c 1
 -279 -430.667 -282.667 -440 -290 -456 c 0
 -293.333 -464 -295 -471.667 -295 -479 c 0
 -295 -501 -286 -519.333 -268 -534 c 0
 -258.667 -541.333 -249.333 -545 -240 -545 c 0
 -202.667 -545 -142 -497.667 -58 -403 c 1
 160 -152 l 1
 34 -157.333 -89 -160 -209 -160 c 1
 -156 -61 l 1
 171 -65 l 2
 187.667 -64.3333 205.667 -63.6667 225 -63 c 1
 277.667 9 335 76.6667 397 140 c 0
 463 206.667 511 240 541 240 c 0
 590.333 240 623.333 221.667 640 185 c 0
 646 172.333 649 158.333 649 143 c 0
 649 85.6667 615.667 29.6667 549 -25 c 0
 450.739 -105 336.739 -145 207 -145 c 1
EndSplineSet
Validated: 1
EndChar

StartChar: tehtaS.upward
Encoding: 65704 -1 182
Width: 425
VWidth: 1000
Flags: HW
LayerCount: 2
Fore
SplineSet
436 154 m 0
 436 99.3333 402.667 50.6667 336 8 c 1
 290 -19.3333 221.667 -33 131 -33 c 0
 93.6667 -33 4.00001 -26.3333 -138 -13 c 0
 -149.333 -11.6667 -160 -10.6667 -170 -10 c 1
 -160 37.3333 -140.333 61 -111 61 c 0
 -98.3333 61 -70.6667 52.3333 -28 35 c 0
 10.6667 19.6667 42.6667 12 68 12 c 0
 136 12 194 27.3333 242 58 c 0
 256 67.3333 267.333 77.3333 276 88 c 1
 298 112 309 134 309 154 c 0
 309 176.667 297 193.667 273 205 c 0
 262.333 210.333 250 213 236 213 c 0
 215.333 213 190 209 160 201 c 1
 193.333 266.333 232 299 276 299 c 0
 322 299 361.667 282.333 395 249 c 0
 422.333 221.667 436 190 436 154 c 0
EndSplineSet
Validated: 1
EndChar

StartChar: tehtaX.shift3
Encoding: 65705 -1 183
Width: 0
VWidth: 1000
Flags: HW
LayerCount: 2
Fore
SplineSet
-626 -516 m 0
 -676 -516 -714.667 -498.333 -742 -463 c 0
 -759.333 -441 -768 -415.667 -768 -387 c 0
 -768 -308 -733 -237 -663 -174 c 1
 -622.333 -136 -565 -91.6667 -491 -41 c 0
 -450.333 -13.6667 -418.333 9.66667 -395 29 c 1
 -364 12 l 1
 -497 -91 l 1
 -601 -177.797 -653 -258.13 -653 -332 c 0
 -653 -382.667 -631.333 -408 -588 -408 c 0
 -562.667 -408 -530.333 -383.333 -491 -334 c 1
 -487 -354 -485 -372.333 -485 -389 c 0
 -485 -447 -510.667 -485.667 -562 -505 c 0
 -581.333 -512.333 -602.667 -516 -626 -516 c 0
EndSplineSet
Validated: 1
EndChar

StartChar: tehtaX.shift4
Encoding: 65706 -1 184
Width: 0
VWidth: 1000
Flags: HW
LayerCount: 2
Fore
SplineSet
-1085 -516 m 0
 -1135 -516 -1173.67 -498.333 -1201 -463 c 0
 -1218.33 -441 -1227 -415.667 -1227 -387 c 0
 -1227 -308 -1192 -237 -1122 -174 c 1
 -1081.33 -136 -1024 -91.6667 -950 -41 c 0
 -909.333 -13.6667 -877.333 9.66667 -854 29 c 1
 -823 12 l 1
 -956 -91 l 1
 -1060 -177.797 -1112 -258.13 -1112 -332 c 0
 -1112 -382.667 -1090.33 -408 -1047 -408 c 0
 -1021.67 -408 -989.333 -383.333 -950 -334 c 1
 -946 -354 -944 -372.333 -944 -389 c 0
 -944 -447 -969.667 -485.667 -1021 -505 c 0
 -1040.33 -512.333 -1061.67 -516 -1085 -516 c 0
EndSplineSet
Validated: 1
EndChar

StartChar: tengwarPusta
Encoding: 57440 57440 185
Width: 421
VWidth: 1000
Flags: HW
LayerCount: 2
Fore
SplineSet
131 348 m 0
 131 354.22 145.667 376.887 175 416 c 1
 186.333 429.333 194.333 436.333 199 437 c 0
 207 437 231.333 420.333 272 387 c 2
 277 383 l 2
 289 373.667 295.667 365 297 357 c 1
 297 343.667 283.333 321.667 256 291 c 0
 243.333 276.333 235.333 269 232 269 c 0
 226.667 269 205.333 283.333 168 312 c 0
 146.133 328.4 134.467 338.066 133 341 c 0
 131.667 343 131 345.333 131 348 c 0
EndSplineSet
Validated: 1
EndChar

StartChar: tengwarDoublepusta
Encoding: 57441 57441 186
Width: 421
VWidth: 1000
Flags: HW
LayerCount: 2
Fore
SplineSet
131 67 m 0
 131 73.2201 145.667 95.8867 175 135 c 1
 186.333 148.333 194.333 155.333 199 156 c 0
 207 156 231.333 139.333 272 106 c 2
 277 102 l 2
 289 92.6667 295.667 84 297 76 c 1
 297 62.6667 283.333 40.6667 256 10 c 0
 243.333 -4.66667 235.333 -12 232 -12 c 0
 226.667 -12 205.333 2.33333 168 31 c 0
 146.133 47.3997 134.467 57.0664 133 60 c 0
 131.667 62 131 64.3333 131 67 c 0
131 614 m 0
 131 620.22 145.667 642.887 175 682 c 1
 186.333 695.333 194.333 702.333 199 703 c 0
 207 703 231.333 686.333 272 653 c 2
 277 649 l 2
 289 639.667 295.667 631 297 623 c 1
 297 609.667 283.333 587.667 256 557 c 0
 243.333 542.333 235.333 535 232 535 c 0
 226.667 535 205.333 549.333 168 578 c 0
 146.133 594.4 134.467 604.066 133 607 c 0
 131.667 609 131 611.333 131 614 c 0
EndSplineSet
Validated: 1
EndChar

StartChar: tengwarTriplepusta
Encoding: 57442 57442 187
Width: 516
VWidth: 1000
Flags: HW
LayerCount: 2
Fore
SplineSet
201 69 m 0
 201 75.2201 215.667 97.8867 245 137 c 1
 256.333 150.333 264.333 157.333 269 158 c 0
 277 158 301.333 141.333 342 108 c 2
 347 104 l 2
 359 94.6667 365.667 86 367 78 c 1
 367 64.6667 353.333 42.6667 326 12 c 0
 313.333 -2.66667 305.333 -10 302 -10 c 0
 296.667 -10 275.333 4.33333 238 33 c 0
 216.133 49.3997 204.467 59.0664 203 62 c 0
 201.667 64 201 66.3333 201 69 c 0
205 348 m 0
 205 354.22 219.667 376.887 249 416 c 1
 260.333 429.333 268.333 436.333 273 437 c 0
 281 437 305.333 420.333 346 387 c 2
 351 383 l 2
 363 373.667 369.667 365 371 357 c 1
 371 343.667 357.333 321.667 330 291 c 0
 317.333 276.333 309.333 269 306 269 c 0
 300.667 269 279.333 283.333 242 312 c 0
 220.133 328.4 208.467 338.066 207 341 c 0
 205.667 343 205 345.333 205 348 c 0
205 614 m 0
 205 620.22 219.667 642.887 249 682 c 1
 260.333 695.333 268.333 702.333 273 703 c 0
 281 703 305.333 686.333 346 653 c 2
 351 649 l 2
 363 639.667 369.667 631 371 623 c 1
 371 609.667 357.333 587.667 330 557 c 0
 317.333 542.333 309.333 535 306 535 c 0
 300.667 535 279.333 549.333 242 578 c 0
 220.133 594.4 208.467 604.066 207 607 c 0
 205.667 609 205 611.333 205 614 c 0
EndSplineSet
Validated: 1
EndChar

StartChar: tengwarExclamation
Encoding: 57445 57445 188
Width: 354
VWidth: 1000
Flags: HW
LayerCount: 2
Fore
SplineSet
178 911 m 0
 178 837 190 726.333 214 579 c 0
 234 459 244 371 244 315 c 0
 244 209 219.333 83.6667 170 -61 c 1
 171.333 -27 172 15.3333 172 66 c 0
 172 180 156.333 337.333 125 538 c 0
 104.333 670.667 94 759 94 803 c 0
 94 901 112.333 995.333 149 1086 c 0
 157 1106.67 171.667 1140 193 1186 c 1
 183 1090.67 178 999 178 911 c 0
EndSplineSet
Validated: 1
EndChar

StartChar: tengwarQuestion
Encoding: 57446 57446 189
Width: 806
VWidth: 1000
Flags: HW
LayerCount: 2
Fore
SplineSet
231 731 m 1
 345.667 793 421 838.333 457 867 c 0
 525 920.483 559 984.483 559 1059 c 0
 559 1115.67 540 1157.33 502 1184 c 0
 480.667 1198.67 456 1206 428 1206 c 0
 368 1206 316.333 1181.33 273 1132 c 0
 249.667 1106 238 1084.33 238 1067 c 1
 231.333 996.333 229 884.333 231 731 c 1
236 1137 m 1
 290.667 1209 347.333 1259.33 406 1288 c 0
 434.667 1302 461.667 1309 487 1309 c 0
 566.333 1309 618.667 1274.33 644 1205 c 0
 654 1179 659 1149.33 659 1116 c 0
 659 1046.67 623 967 551 877 c 0
 522.333 840.333 503.333 820.333 494 817 c 1
 574 817 626 785 650 721 c 0
 658 699.667 662 675.667 662 649 c 0
 662 549.667 615.667 461.667 523 385 c 1
 459.573 335.427 365.906 278.094 242 213 c 1
 242 106.333 240 46.3333 236 33 c 0
 230.667 11 188.333 -22.6667 109 -68 c 1
 103.667 -68 100.667 -65.6667 100 -61 c 1
 122 -18.3333 135.333 21 140 57 c 0
 149.495 137.703 147.161 465.703 133 1041 c 0
 131.667 1092.33 131 1126.33 131 1143 c 0
 131 1178.33 114.333 1200.67 81 1210 c 2
 45 1220 l 1
 39.6667 1222.67 37 1226.33 37 1231 c 0
 37 1241.67 46.6667 1258.67 66 1282 c 0
 86.6667 1306.67 105.667 1319 123 1319 c 0
 179.667 1319 214.333 1286.67 227 1222 c 0
 230.333 1208 233.333 1179.67 236 1137 c 1
238 258 m 1
 336 308 398.333 342 425 360 c 0
 515.667 420.747 561 502.747 561 606 c 0
 561 665.333 544.667 706 512 728 c 0
 496 738.667 472.667 748 442 756 c 0
 404 766 334.333 741.333 233 682 c 1
 238 258 l 1
EndSplineSet
Validated: 33
EndChar

StartChar: tengwarParenthesis
Encoding: 57447 57447 190
Width: 641
VWidth: 1000
Flags: HW
LayerCount: 2
Fore
SplineSet
340 1143 m 0
 340 1161.67 352.333 1184.67 377 1212 c 0
 398.333 1235.33 418 1247 436 1247 c 0
 485.333 1247 513.667 1190.67 521 1078 c 0
 522.333 1058 523.333 1036 524 1012 c 0
 532.667 492.667 531.667 87.6667 521 -203 c 0
 519.667 -247 518 -277 516 -293 c 0
 510 -351 465.667 -413.667 383 -481 c 1
 377 -483 375 -481 377 -475 c 0
 401 -409 416 -350.333 422 -299 c 0
 428.667 -246.333 430 19.6667 426 499 c 0
 423.333 793.667 419.333 966.667 414 1018 c 1
 406.667 1076 388.667 1111.67 360 1125 c 0
 348.667 1130.33 342.333 1134.33 341 1137 c 0
 340.333 1139 340 1141 340 1143 c 0
188 1022 m 0
 182.667 1022 180 1025.33 180 1032 c 0
 180 1048 190.333 1071.67 211 1103 c 0
 231.667 1135 250.667 1151 268 1151 c 0
 295.333 1151 315.333 1134.33 328 1101 c 0
 334.667 1083 338 1062 338 1038 c 1
 341 -460 l 1
 340.333 -470.667 340 -477 340 -479 c 0
 334 -529.667 313 -569.333 277 -598 c 2
 225 -637 l 1
 200.333 -659.667 188 -690.333 188 -729 c 0
 188 -785.667 209.333 -834.667 252 -876 c 0
 287.333 -909.333 325.667 -926 367 -926 c 0
 396.333 -926 427.333 -914.333 460 -891 c 0
 467.333 -885.667 472.333 -883 475 -883 c 128
 477.667 -883 479 -884.333 479 -887 c 0
 479 -900.333 465.667 -925.333 439 -962 c 0
 401.667 -1015.33 368.667 -1042 340 -1042 c 0
 278.667 -1042 225.667 -1014.33 181 -959 c 0
 139.667 -907 119 -846.667 119 -778 c 0
 119 -720.667 133.667 -678.333 163 -651 c 1
 209 -611 l 1
 233 -585.667 245.333 -547.333 246 -496 c 0
 248 -180 247 58.6667 243 220 c 0
 239.667 347.333 238 580 238 918 c 0
 238 958 230 988 214 1008 c 0
 206 1017.33 197.333 1022 188 1022 c 0
EndSplineSet
Validated: 33
EndChar

StartChar: tengwarSection
Encoding: 57448 57448 191
Width: 753
VWidth: 1000
Flags: HW
LayerCount: 2
Fore
SplineSet
707 442 m 1
 657.982 327.333 594.315 270 516 270 c 0
 477.333 270 434.333 279.333 387 298 c 1
 335 317.333 290 327.333 252 328 c 0
 220 328 156.333 306 61 262 c 1
 83 315.333 117.333 359.333 164 394 c 0
 204 423.333 245.667 438 289 438 c 0
 329 438 374 427.667 424 407 c 1
 474 387.667 515.667 377.667 549 377 c 0
 591 377 643.667 398.667 707 442 c 1
EndSplineSet
Validated: 1
EndChar

StartChar: tengwarSection.wide
Encoding: 65714 -1 192
Width: 980
VWidth: 1000
Flags: HW
LayerCount: 2
Fore
SplineSet
18 311 m 1
 114.377 447.667 214.044 516 317 516 c 0
 349 516 423.333 505 540 483 c 0
 640 464.333 713.333 455 760 455 c 0
 816.667 455 881.333 473.333 954 510 c 1
 870.667 380 785.333 315 698 315 c 0
 681.333 315 625.667 325 531 345 c 0
 423.667 367.667 339.667 379 279 379 c 0
 213 379 126 356.333 18 311 c 1
EndSplineSet
Validated: 1
EndChar

StartChar: tengwarDoublesection
Encoding: 57449 57449 193
Width: 753
VWidth: 1000
Flags: HW
LayerCount: 2
Fore
SplineSet
707 297 m 1
 657.982 182.333 594.315 125 516 125 c 0
 477.333 125 434.333 134.333 387 153 c 1
 335 172.333 290 182.333 252 183 c 0
 220 183 156.333 161 61 117 c 1
 83 170.333 117.333 214.333 164 249 c 0
 204 278.333 245.667 293 289 293 c 0
 329 293 374 282.667 424 262 c 1
 474 242.667 515.667 232.667 549 232 c 0
 591 232 643.667 253.667 707 297 c 1
707 628 m 1
 657.982 513.333 594.315 456 516 456 c 0
 477.333 456 434.333 465.333 387 484 c 1
 335 503.333 290 513.333 252 514 c 0
 220 514 156.333 492 61 448 c 1
 83 501.333 117.333 545.333 164 580 c 0
 204 609.333 245.667 624 289 624 c 0
 329 624 374 613.667 424 593 c 1
 474 573.667 515.667 563.667 549 563 c 0
 591 563 643.667 584.667 707 628 c 1
EndSplineSet
Validated: 1
EndChar

StartChar: tengwarQuoteleft
Encoding: 57450 57450 194
Width: 376
VWidth: 1000
Flags: HW
LayerCount: 2
Fore
SplineSet
313 1174 m 0
 313 1061.33 294 996.333 256 979 c 0
 220 963.667 201 959 199 965 c 0
 197 971.667 201.667 979 213 987 c 0
 225 995 231 1042.67 231 1130 c 1
 231 1251 l 1
 229.667 1269.67 225 1279.33 217 1280 c 0
 211.667 1280 209 1282 209 1286 c 0
 209 1291.33 226 1302.33 260 1319 c 1
 295.333 1333.13 313 1284.8 313 1174 c 0
88 1124 m 0
 88 1183.33 87 1217 85 1225 c 0
 82.3333 1233.67 78 1238.33 72 1239 c 1
 68.6667 1240.33 65.6667 1243 63 1247 c 1
 63 1253 80.3333 1264 115 1280 c 1
 150.333 1293.95 168 1257.61 168 1171 c 0
 168 1082.33 153.667 1032 125 1020 c 0
 97 1008 82 1004.67 80 1010 c 0
 78.6667 1012 79 1016.33 81 1023 c 0
 85.6667 1041 88 1074.67 88 1124 c 0
EndSplineSet
Validated: 33
EndChar

StartChar: tengwarQuoteright
Encoding: 57451 57451 195
Width: 376
VWidth: 1000
Flags: HW
LayerCount: 2
Fore
SplineSet
313 -66 m 0
 313 -178 294 -242.667 256 -260 c 0
 220.667 -275.333 201.667 -280 199 -274 c 0
 197 -267.333 201.667 -260 213 -252 c 1
 225 -246 231 -199 231 -111 c 1
 231 11 l 1
 229.667 29.6667 225 39.6667 217 41 c 0
 211.667 41 209 43 209 47 c 0
 209 51.6667 226 62.6667 260 80 c 1
 295.333 93.9193 313 45.2527 313 -66 c 0
88 -115 m 0
 88 -57 87.6667 -25.6667 87 -21 c 0
 84.3333 -7 79.3333 0 72 0 c 0
 70 0 67 2.66667 63 8 c 1
 63 12.6667 80.3333 23 115 39 c 0
 150.333 54.807 168 18.4737 168 -70 c 0
 168 -157.333 153.667 -207 125 -219 c 128
 96.3333 -231 81.3333 -234.333 80 -229 c 0
 78.6667 -226.333 78.6667 -223.667 80 -221 c 0
 85.3333 -207.667 88 -172.333 88 -115 c 0
EndSplineSet
Validated: 33
EndChar

StartChar: tengwardigit0
Encoding: 57456 57456 196
Width: 808
VWidth: 1000
Flags: HW
LayerCount: 2
Fore
SplineSet
80 428 m 0
 67.3333 428 61 437 61 455 c 0
 61 483.667 87.6667 521 141 567 c 0
 219.839 635.667 303.839 670 393 670 c 0
 491 670 572.333 637.333 637 572 c 0
 697 512.667 727 442 727 360 c 0
 727 272.667 698 195 640 127 c 0
 564.667 39 461.667 -6.66667 331 -10 c 0
 317 -10 l 0
 276.333 -10 243 -6.66667 217 0 c 1
 116.333 38 66 71.3333 66 100 c 0
 66 119.333 91 139.333 141 160 c 0
 159.667 168 172 172 178 172 c 1
 189.333 165.333 206.333 150.333 229 127 c 0
 261.667 94.3333 312.333 78 381 78 c 0
 467.667 78 529 97.3333 565 136 c 0
 578.333 150 590.667 168 602 190 c 0
 622.667 230.667 633 270.333 633 309 c 0
 633 382.333 603.333 443.667 544 493 c 0
 486.667 541 417.333 565 336 565 c 0
 266 565 205 539 153 487 c 2
 107 441 l 1
 97 432.333 88 428 80 428 c 0
EndSplineSet
Validated: 1
EndChar

